M48
; DRILL file {KiCad (5.1.6)-1} date 05/27/20 22:40:43
; FORMAT={-:-/ absolute / metric / decimal}
; #@! TF.CreationDate,2020-05-27T22:40:43+03:00
; #@! TF.GenerationSoftware,Kicad,Pcbnew,(5.1.6)-1
; #@! TF.FileFunction,Plated,1,2,PTH
FMAT,2
METRIC
T1C0.300
T2C0.400
T3C0.500
T4C1.000
T5C3.200
%
G90
G05
T1
X91.936Y-108.248
X92.746Y-114.169
X92.862Y-117.881
X92.888Y-115.824
X93.904Y-106.07
X94.134Y-125.349
X94.666Y-123.088
X94.751Y-109.991
X95.555Y-116.408
X96.042Y-111.547
X96.774Y-123.85
X96.855Y-112.438
X97.257Y-117.983
X97.993Y-109.982
X98.157Y-113.61
X98.196Y-124.155
X98.416Y-118.728
X98.577Y-114.376
X99.465Y-114.468
X99.953Y-127.997
X100.436Y-109.828
X100.736Y-130.124
X101.074Y-127.9
X101.111Y-132.189
X101.38Y-118.704
X101.625Y-125.425
X101.905Y-123.673
X103.099Y-119.634
X103.361Y-114.359
X104.318Y-123.292
X104.623Y-108.89
X105.664Y-116.713
X107.216Y-106.589
X109.55Y-111.306
X109.997Y-110.252
X111.735Y-130.835
X112.249Y-109.958
X112.823Y-116.862
X112.946Y-112.811
X113.485Y-122.243
X113.589Y-111.608
X113.716Y-115.926
X114.071Y-117.856
X115.319Y-112.715
X115.809Y-107.812
X115.824Y-122.53
X115.926Y-115.849
X115.951Y-124.79
X117.246Y-122.443
X117.323Y-118.491
X117.983Y-115.849
X118.237Y-106.02
X118.516Y-131.547
X118.618Y-112.573
X119.964Y-122.758
X120.073Y-124.691
X120.192Y-118.614
X121.238Y-118.494
X123.241Y-104.343
X134.112Y-98.12
X135.915Y-104.521
X135.966Y-111.354
X136.042Y-118.288
X140.132Y-102.641
X140.589Y-98.527
T2
X91.191Y-104.612
X105.87Y-106.364
X106.631Y-114.384
X115.778Y-111.155
X130.96Y-104.364
X133.353Y-115.517
X133.353Y-118.316
T3
X88.659Y-95.25
X89.362Y-93.553
X89.362Y-96.947
X91.059Y-92.85
X91.059Y-97.65
X92.756Y-93.553
X92.756Y-96.947
X93.459Y-95.25
X88.659Y-134.62
X89.362Y-132.923
X89.362Y-136.317
X91.059Y-132.22
X91.059Y-137.02
X92.756Y-132.923
X92.756Y-136.317
X93.459Y-134.62
X142.507Y-95.25
X143.21Y-93.553
X143.21Y-96.947
X144.907Y-92.85
X144.907Y-97.65
X146.604Y-93.553
X146.604Y-96.947
X147.307Y-95.25
X142.507Y-134.62
X143.21Y-132.923
X143.21Y-136.317
X144.907Y-132.22
X144.907Y-137.02
X146.604Y-132.923
X146.604Y-136.317
X147.307Y-134.62
T4
X130.302Y-96.774
X132.842Y-96.774
X135.382Y-96.774
X137.922Y-96.774
X112.522Y-134.62
X115.062Y-134.62
X117.602Y-134.62
X120.142Y-134.62
X122.682Y-134.62
T5
X91.059Y-95.25
X91.059Y-134.62
X144.907Y-95.25
X144.907Y-134.62
T0
M30
