%TF.GenerationSoftware,KiCad,Pcbnew,(5.1.6)-1*%
%TF.CreationDate,2020-05-27T22:40:41+03:00*%
%TF.ProjectId,MD-100 Emulator,4d442d31-3030-4204-956d-756c61746f72,rev?*%
%TF.SameCoordinates,Original*%
%TF.FileFunction,Paste,Top*%
%TF.FilePolarity,Positive*%
%FSLAX46Y46*%
G04 Gerber Fmt 4.6, Leading zero omitted, Abs format (unit mm)*
G04 Created by KiCad (PCBNEW (5.1.6)-1) date 2020-05-27 22:40:41*
%MOMM*%
%LPD*%
G01*
G04 APERTURE LIST*
%ADD10R,2.000000X7.875000*%
%ADD11R,0.550000X1.500000*%
%ADD12R,1.500000X0.550000*%
%ADD13R,0.900000X0.800000*%
%ADD14R,2.540000X0.600000*%
G04 APERTURE END LIST*
%TO.C,U4*%
G36*
G01*
X142964000Y-124005000D02*
X142964000Y-124305000D01*
G75*
G02*
X142814000Y-124455000I-150000J0D01*
G01*
X141164000Y-124455000D01*
G75*
G02*
X141014000Y-124305000I0J150000D01*
G01*
X141014000Y-124005000D01*
G75*
G02*
X141164000Y-123855000I150000J0D01*
G01*
X142814000Y-123855000D01*
G75*
G02*
X142964000Y-124005000I0J-150000D01*
G01*
G37*
G36*
G01*
X142964000Y-122735000D02*
X142964000Y-123035000D01*
G75*
G02*
X142814000Y-123185000I-150000J0D01*
G01*
X141164000Y-123185000D01*
G75*
G02*
X141014000Y-123035000I0J150000D01*
G01*
X141014000Y-122735000D01*
G75*
G02*
X141164000Y-122585000I150000J0D01*
G01*
X142814000Y-122585000D01*
G75*
G02*
X142964000Y-122735000I0J-150000D01*
G01*
G37*
G36*
G01*
X142964000Y-121465000D02*
X142964000Y-121765000D01*
G75*
G02*
X142814000Y-121915000I-150000J0D01*
G01*
X141164000Y-121915000D01*
G75*
G02*
X141014000Y-121765000I0J150000D01*
G01*
X141014000Y-121465000D01*
G75*
G02*
X141164000Y-121315000I150000J0D01*
G01*
X142814000Y-121315000D01*
G75*
G02*
X142964000Y-121465000I0J-150000D01*
G01*
G37*
G36*
G01*
X142964000Y-120195000D02*
X142964000Y-120495000D01*
G75*
G02*
X142814000Y-120645000I-150000J0D01*
G01*
X141164000Y-120645000D01*
G75*
G02*
X141014000Y-120495000I0J150000D01*
G01*
X141014000Y-120195000D01*
G75*
G02*
X141164000Y-120045000I150000J0D01*
G01*
X142814000Y-120045000D01*
G75*
G02*
X142964000Y-120195000I0J-150000D01*
G01*
G37*
G36*
G01*
X147914000Y-120195000D02*
X147914000Y-120495000D01*
G75*
G02*
X147764000Y-120645000I-150000J0D01*
G01*
X146114000Y-120645000D01*
G75*
G02*
X145964000Y-120495000I0J150000D01*
G01*
X145964000Y-120195000D01*
G75*
G02*
X146114000Y-120045000I150000J0D01*
G01*
X147764000Y-120045000D01*
G75*
G02*
X147914000Y-120195000I0J-150000D01*
G01*
G37*
G36*
G01*
X147914000Y-121465000D02*
X147914000Y-121765000D01*
G75*
G02*
X147764000Y-121915000I-150000J0D01*
G01*
X146114000Y-121915000D01*
G75*
G02*
X145964000Y-121765000I0J150000D01*
G01*
X145964000Y-121465000D01*
G75*
G02*
X146114000Y-121315000I150000J0D01*
G01*
X147764000Y-121315000D01*
G75*
G02*
X147914000Y-121465000I0J-150000D01*
G01*
G37*
G36*
G01*
X147914000Y-122735000D02*
X147914000Y-123035000D01*
G75*
G02*
X147764000Y-123185000I-150000J0D01*
G01*
X146114000Y-123185000D01*
G75*
G02*
X145964000Y-123035000I0J150000D01*
G01*
X145964000Y-122735000D01*
G75*
G02*
X146114000Y-122585000I150000J0D01*
G01*
X147764000Y-122585000D01*
G75*
G02*
X147914000Y-122735000I0J-150000D01*
G01*
G37*
G36*
G01*
X147914000Y-124005000D02*
X147914000Y-124305000D01*
G75*
G02*
X147764000Y-124455000I-150000J0D01*
G01*
X146114000Y-124455000D01*
G75*
G02*
X145964000Y-124305000I0J150000D01*
G01*
X145964000Y-124005000D01*
G75*
G02*
X146114000Y-123855000I150000J0D01*
G01*
X147764000Y-123855000D01*
G75*
G02*
X147914000Y-124005000I0J-150000D01*
G01*
G37*
%TD*%
%TO.C,U3*%
G36*
G01*
X142961000Y-117249000D02*
X142961000Y-117549000D01*
G75*
G02*
X142811000Y-117699000I-150000J0D01*
G01*
X141161000Y-117699000D01*
G75*
G02*
X141011000Y-117549000I0J150000D01*
G01*
X141011000Y-117249000D01*
G75*
G02*
X141161000Y-117099000I150000J0D01*
G01*
X142811000Y-117099000D01*
G75*
G02*
X142961000Y-117249000I0J-150000D01*
G01*
G37*
G36*
G01*
X142961000Y-115979000D02*
X142961000Y-116279000D01*
G75*
G02*
X142811000Y-116429000I-150000J0D01*
G01*
X141161000Y-116429000D01*
G75*
G02*
X141011000Y-116279000I0J150000D01*
G01*
X141011000Y-115979000D01*
G75*
G02*
X141161000Y-115829000I150000J0D01*
G01*
X142811000Y-115829000D01*
G75*
G02*
X142961000Y-115979000I0J-150000D01*
G01*
G37*
G36*
G01*
X142961000Y-114709000D02*
X142961000Y-115009000D01*
G75*
G02*
X142811000Y-115159000I-150000J0D01*
G01*
X141161000Y-115159000D01*
G75*
G02*
X141011000Y-115009000I0J150000D01*
G01*
X141011000Y-114709000D01*
G75*
G02*
X141161000Y-114559000I150000J0D01*
G01*
X142811000Y-114559000D01*
G75*
G02*
X142961000Y-114709000I0J-150000D01*
G01*
G37*
G36*
G01*
X142961000Y-113439000D02*
X142961000Y-113739000D01*
G75*
G02*
X142811000Y-113889000I-150000J0D01*
G01*
X141161000Y-113889000D01*
G75*
G02*
X141011000Y-113739000I0J150000D01*
G01*
X141011000Y-113439000D01*
G75*
G02*
X141161000Y-113289000I150000J0D01*
G01*
X142811000Y-113289000D01*
G75*
G02*
X142961000Y-113439000I0J-150000D01*
G01*
G37*
G36*
G01*
X147911000Y-113439000D02*
X147911000Y-113739000D01*
G75*
G02*
X147761000Y-113889000I-150000J0D01*
G01*
X146111000Y-113889000D01*
G75*
G02*
X145961000Y-113739000I0J150000D01*
G01*
X145961000Y-113439000D01*
G75*
G02*
X146111000Y-113289000I150000J0D01*
G01*
X147761000Y-113289000D01*
G75*
G02*
X147911000Y-113439000I0J-150000D01*
G01*
G37*
G36*
G01*
X147911000Y-114709000D02*
X147911000Y-115009000D01*
G75*
G02*
X147761000Y-115159000I-150000J0D01*
G01*
X146111000Y-115159000D01*
G75*
G02*
X145961000Y-115009000I0J150000D01*
G01*
X145961000Y-114709000D01*
G75*
G02*
X146111000Y-114559000I150000J0D01*
G01*
X147761000Y-114559000D01*
G75*
G02*
X147911000Y-114709000I0J-150000D01*
G01*
G37*
G36*
G01*
X147911000Y-115979000D02*
X147911000Y-116279000D01*
G75*
G02*
X147761000Y-116429000I-150000J0D01*
G01*
X146111000Y-116429000D01*
G75*
G02*
X145961000Y-116279000I0J150000D01*
G01*
X145961000Y-115979000D01*
G75*
G02*
X146111000Y-115829000I150000J0D01*
G01*
X147761000Y-115829000D01*
G75*
G02*
X147911000Y-115979000I0J-150000D01*
G01*
G37*
G36*
G01*
X147911000Y-117249000D02*
X147911000Y-117549000D01*
G75*
G02*
X147761000Y-117699000I-150000J0D01*
G01*
X146111000Y-117699000D01*
G75*
G02*
X145961000Y-117549000I0J150000D01*
G01*
X145961000Y-117249000D01*
G75*
G02*
X146111000Y-117099000I150000J0D01*
G01*
X147761000Y-117099000D01*
G75*
G02*
X147911000Y-117249000I0J-150000D01*
G01*
G37*
%TD*%
%TO.C,U2*%
G36*
G01*
X142961000Y-110467000D02*
X142961000Y-110767000D01*
G75*
G02*
X142811000Y-110917000I-150000J0D01*
G01*
X141161000Y-110917000D01*
G75*
G02*
X141011000Y-110767000I0J150000D01*
G01*
X141011000Y-110467000D01*
G75*
G02*
X141161000Y-110317000I150000J0D01*
G01*
X142811000Y-110317000D01*
G75*
G02*
X142961000Y-110467000I0J-150000D01*
G01*
G37*
G36*
G01*
X142961000Y-109197000D02*
X142961000Y-109497000D01*
G75*
G02*
X142811000Y-109647000I-150000J0D01*
G01*
X141161000Y-109647000D01*
G75*
G02*
X141011000Y-109497000I0J150000D01*
G01*
X141011000Y-109197000D01*
G75*
G02*
X141161000Y-109047000I150000J0D01*
G01*
X142811000Y-109047000D01*
G75*
G02*
X142961000Y-109197000I0J-150000D01*
G01*
G37*
G36*
G01*
X142961000Y-107927000D02*
X142961000Y-108227000D01*
G75*
G02*
X142811000Y-108377000I-150000J0D01*
G01*
X141161000Y-108377000D01*
G75*
G02*
X141011000Y-108227000I0J150000D01*
G01*
X141011000Y-107927000D01*
G75*
G02*
X141161000Y-107777000I150000J0D01*
G01*
X142811000Y-107777000D01*
G75*
G02*
X142961000Y-107927000I0J-150000D01*
G01*
G37*
G36*
G01*
X142961000Y-106657000D02*
X142961000Y-106957000D01*
G75*
G02*
X142811000Y-107107000I-150000J0D01*
G01*
X141161000Y-107107000D01*
G75*
G02*
X141011000Y-106957000I0J150000D01*
G01*
X141011000Y-106657000D01*
G75*
G02*
X141161000Y-106507000I150000J0D01*
G01*
X142811000Y-106507000D01*
G75*
G02*
X142961000Y-106657000I0J-150000D01*
G01*
G37*
G36*
G01*
X147911000Y-106657000D02*
X147911000Y-106957000D01*
G75*
G02*
X147761000Y-107107000I-150000J0D01*
G01*
X146111000Y-107107000D01*
G75*
G02*
X145961000Y-106957000I0J150000D01*
G01*
X145961000Y-106657000D01*
G75*
G02*
X146111000Y-106507000I150000J0D01*
G01*
X147761000Y-106507000D01*
G75*
G02*
X147911000Y-106657000I0J-150000D01*
G01*
G37*
G36*
G01*
X147911000Y-107927000D02*
X147911000Y-108227000D01*
G75*
G02*
X147761000Y-108377000I-150000J0D01*
G01*
X146111000Y-108377000D01*
G75*
G02*
X145961000Y-108227000I0J150000D01*
G01*
X145961000Y-107927000D01*
G75*
G02*
X146111000Y-107777000I150000J0D01*
G01*
X147761000Y-107777000D01*
G75*
G02*
X147911000Y-107927000I0J-150000D01*
G01*
G37*
G36*
G01*
X147911000Y-109197000D02*
X147911000Y-109497000D01*
G75*
G02*
X147761000Y-109647000I-150000J0D01*
G01*
X146111000Y-109647000D01*
G75*
G02*
X145961000Y-109497000I0J150000D01*
G01*
X145961000Y-109197000D01*
G75*
G02*
X146111000Y-109047000I150000J0D01*
G01*
X147761000Y-109047000D01*
G75*
G02*
X147911000Y-109197000I0J-150000D01*
G01*
G37*
G36*
G01*
X147911000Y-110467000D02*
X147911000Y-110767000D01*
G75*
G02*
X147761000Y-110917000I-150000J0D01*
G01*
X146111000Y-110917000D01*
G75*
G02*
X145961000Y-110767000I0J150000D01*
G01*
X145961000Y-110467000D01*
G75*
G02*
X146111000Y-110317000I150000J0D01*
G01*
X147761000Y-110317000D01*
G75*
G02*
X147911000Y-110467000I0J-150000D01*
G01*
G37*
%TD*%
%TO.C,U1*%
G36*
G01*
X142961000Y-103685000D02*
X142961000Y-103985000D01*
G75*
G02*
X142811000Y-104135000I-150000J0D01*
G01*
X141161000Y-104135000D01*
G75*
G02*
X141011000Y-103985000I0J150000D01*
G01*
X141011000Y-103685000D01*
G75*
G02*
X141161000Y-103535000I150000J0D01*
G01*
X142811000Y-103535000D01*
G75*
G02*
X142961000Y-103685000I0J-150000D01*
G01*
G37*
G36*
G01*
X142961000Y-102415000D02*
X142961000Y-102715000D01*
G75*
G02*
X142811000Y-102865000I-150000J0D01*
G01*
X141161000Y-102865000D01*
G75*
G02*
X141011000Y-102715000I0J150000D01*
G01*
X141011000Y-102415000D01*
G75*
G02*
X141161000Y-102265000I150000J0D01*
G01*
X142811000Y-102265000D01*
G75*
G02*
X142961000Y-102415000I0J-150000D01*
G01*
G37*
G36*
G01*
X142961000Y-101145000D02*
X142961000Y-101445000D01*
G75*
G02*
X142811000Y-101595000I-150000J0D01*
G01*
X141161000Y-101595000D01*
G75*
G02*
X141011000Y-101445000I0J150000D01*
G01*
X141011000Y-101145000D01*
G75*
G02*
X141161000Y-100995000I150000J0D01*
G01*
X142811000Y-100995000D01*
G75*
G02*
X142961000Y-101145000I0J-150000D01*
G01*
G37*
G36*
G01*
X142961000Y-99875000D02*
X142961000Y-100175000D01*
G75*
G02*
X142811000Y-100325000I-150000J0D01*
G01*
X141161000Y-100325000D01*
G75*
G02*
X141011000Y-100175000I0J150000D01*
G01*
X141011000Y-99875000D01*
G75*
G02*
X141161000Y-99725000I150000J0D01*
G01*
X142811000Y-99725000D01*
G75*
G02*
X142961000Y-99875000I0J-150000D01*
G01*
G37*
G36*
G01*
X147911000Y-99875000D02*
X147911000Y-100175000D01*
G75*
G02*
X147761000Y-100325000I-150000J0D01*
G01*
X146111000Y-100325000D01*
G75*
G02*
X145961000Y-100175000I0J150000D01*
G01*
X145961000Y-99875000D01*
G75*
G02*
X146111000Y-99725000I150000J0D01*
G01*
X147761000Y-99725000D01*
G75*
G02*
X147911000Y-99875000I0J-150000D01*
G01*
G37*
G36*
G01*
X147911000Y-101145000D02*
X147911000Y-101445000D01*
G75*
G02*
X147761000Y-101595000I-150000J0D01*
G01*
X146111000Y-101595000D01*
G75*
G02*
X145961000Y-101445000I0J150000D01*
G01*
X145961000Y-101145000D01*
G75*
G02*
X146111000Y-100995000I150000J0D01*
G01*
X147761000Y-100995000D01*
G75*
G02*
X147911000Y-101145000I0J-150000D01*
G01*
G37*
G36*
G01*
X147911000Y-102415000D02*
X147911000Y-102715000D01*
G75*
G02*
X147761000Y-102865000I-150000J0D01*
G01*
X146111000Y-102865000D01*
G75*
G02*
X145961000Y-102715000I0J150000D01*
G01*
X145961000Y-102415000D01*
G75*
G02*
X146111000Y-102265000I150000J0D01*
G01*
X147761000Y-102265000D01*
G75*
G02*
X147911000Y-102415000I0J-150000D01*
G01*
G37*
G36*
G01*
X147911000Y-103685000D02*
X147911000Y-103985000D01*
G75*
G02*
X147761000Y-104135000I-150000J0D01*
G01*
X146111000Y-104135000D01*
G75*
G02*
X145961000Y-103985000I0J150000D01*
G01*
X145961000Y-103685000D01*
G75*
G02*
X146111000Y-103535000I150000J0D01*
G01*
X147761000Y-103535000D01*
G75*
G02*
X147911000Y-103685000I0J-150000D01*
G01*
G37*
%TD*%
D10*
%TO.C,Y1*%
X129540000Y-122498500D03*
X129540000Y-110623500D03*
%TD*%
D11*
%TO.C,U7*%
X113246000Y-109311000D03*
X114046000Y-109311000D03*
X114846000Y-109311000D03*
X115646000Y-109311000D03*
X116446000Y-109311000D03*
X117246000Y-109311000D03*
X118046000Y-109311000D03*
X118846000Y-109311000D03*
X119646000Y-109311000D03*
X120446000Y-109311000D03*
X121246000Y-109311000D03*
D12*
X122946000Y-111011000D03*
X122946000Y-111811000D03*
X122946000Y-112611000D03*
X122946000Y-113411000D03*
X122946000Y-114211000D03*
X122946000Y-115011000D03*
X122946000Y-115811000D03*
X122946000Y-116611000D03*
X122946000Y-117411000D03*
X122946000Y-118211000D03*
X122946000Y-119011000D03*
D11*
X121246000Y-120711000D03*
X120446000Y-120711000D03*
X119646000Y-120711000D03*
X118846000Y-120711000D03*
X118046000Y-120711000D03*
X117246000Y-120711000D03*
X116446000Y-120711000D03*
X115646000Y-120711000D03*
X114846000Y-120711000D03*
X114046000Y-120711000D03*
X113246000Y-120711000D03*
D12*
X111546000Y-119011000D03*
X111546000Y-118211000D03*
X111546000Y-117411000D03*
X111546000Y-116611000D03*
X111546000Y-115811000D03*
X111546000Y-115011000D03*
X111546000Y-114211000D03*
X111546000Y-113411000D03*
X111546000Y-112611000D03*
X111546000Y-111811000D03*
X111546000Y-111011000D03*
%TD*%
%TO.C,U6*%
G36*
G01*
X98895000Y-133378000D02*
X98895000Y-133678000D01*
G75*
G02*
X98745000Y-133828000I-150000J0D01*
G01*
X97095000Y-133828000D01*
G75*
G02*
X96945000Y-133678000I0J150000D01*
G01*
X96945000Y-133378000D01*
G75*
G02*
X97095000Y-133228000I150000J0D01*
G01*
X98745000Y-133228000D01*
G75*
G02*
X98895000Y-133378000I0J-150000D01*
G01*
G37*
G36*
G01*
X98895000Y-132108000D02*
X98895000Y-132408000D01*
G75*
G02*
X98745000Y-132558000I-150000J0D01*
G01*
X97095000Y-132558000D01*
G75*
G02*
X96945000Y-132408000I0J150000D01*
G01*
X96945000Y-132108000D01*
G75*
G02*
X97095000Y-131958000I150000J0D01*
G01*
X98745000Y-131958000D01*
G75*
G02*
X98895000Y-132108000I0J-150000D01*
G01*
G37*
G36*
G01*
X98895000Y-130838000D02*
X98895000Y-131138000D01*
G75*
G02*
X98745000Y-131288000I-150000J0D01*
G01*
X97095000Y-131288000D01*
G75*
G02*
X96945000Y-131138000I0J150000D01*
G01*
X96945000Y-130838000D01*
G75*
G02*
X97095000Y-130688000I150000J0D01*
G01*
X98745000Y-130688000D01*
G75*
G02*
X98895000Y-130838000I0J-150000D01*
G01*
G37*
G36*
G01*
X98895000Y-129568000D02*
X98895000Y-129868000D01*
G75*
G02*
X98745000Y-130018000I-150000J0D01*
G01*
X97095000Y-130018000D01*
G75*
G02*
X96945000Y-129868000I0J150000D01*
G01*
X96945000Y-129568000D01*
G75*
G02*
X97095000Y-129418000I150000J0D01*
G01*
X98745000Y-129418000D01*
G75*
G02*
X98895000Y-129568000I0J-150000D01*
G01*
G37*
G36*
G01*
X98895000Y-128298000D02*
X98895000Y-128598000D01*
G75*
G02*
X98745000Y-128748000I-150000J0D01*
G01*
X97095000Y-128748000D01*
G75*
G02*
X96945000Y-128598000I0J150000D01*
G01*
X96945000Y-128298000D01*
G75*
G02*
X97095000Y-128148000I150000J0D01*
G01*
X98745000Y-128148000D01*
G75*
G02*
X98895000Y-128298000I0J-150000D01*
G01*
G37*
G36*
G01*
X98895000Y-127028000D02*
X98895000Y-127328000D01*
G75*
G02*
X98745000Y-127478000I-150000J0D01*
G01*
X97095000Y-127478000D01*
G75*
G02*
X96945000Y-127328000I0J150000D01*
G01*
X96945000Y-127028000D01*
G75*
G02*
X97095000Y-126878000I150000J0D01*
G01*
X98745000Y-126878000D01*
G75*
G02*
X98895000Y-127028000I0J-150000D01*
G01*
G37*
G36*
G01*
X98895000Y-125758000D02*
X98895000Y-126058000D01*
G75*
G02*
X98745000Y-126208000I-150000J0D01*
G01*
X97095000Y-126208000D01*
G75*
G02*
X96945000Y-126058000I0J150000D01*
G01*
X96945000Y-125758000D01*
G75*
G02*
X97095000Y-125608000I150000J0D01*
G01*
X98745000Y-125608000D01*
G75*
G02*
X98895000Y-125758000I0J-150000D01*
G01*
G37*
G36*
G01*
X103845000Y-125758000D02*
X103845000Y-126058000D01*
G75*
G02*
X103695000Y-126208000I-150000J0D01*
G01*
X102045000Y-126208000D01*
G75*
G02*
X101895000Y-126058000I0J150000D01*
G01*
X101895000Y-125758000D01*
G75*
G02*
X102045000Y-125608000I150000J0D01*
G01*
X103695000Y-125608000D01*
G75*
G02*
X103845000Y-125758000I0J-150000D01*
G01*
G37*
G36*
G01*
X103845000Y-127028000D02*
X103845000Y-127328000D01*
G75*
G02*
X103695000Y-127478000I-150000J0D01*
G01*
X102045000Y-127478000D01*
G75*
G02*
X101895000Y-127328000I0J150000D01*
G01*
X101895000Y-127028000D01*
G75*
G02*
X102045000Y-126878000I150000J0D01*
G01*
X103695000Y-126878000D01*
G75*
G02*
X103845000Y-127028000I0J-150000D01*
G01*
G37*
G36*
G01*
X103845000Y-128298000D02*
X103845000Y-128598000D01*
G75*
G02*
X103695000Y-128748000I-150000J0D01*
G01*
X102045000Y-128748000D01*
G75*
G02*
X101895000Y-128598000I0J150000D01*
G01*
X101895000Y-128298000D01*
G75*
G02*
X102045000Y-128148000I150000J0D01*
G01*
X103695000Y-128148000D01*
G75*
G02*
X103845000Y-128298000I0J-150000D01*
G01*
G37*
G36*
G01*
X103845000Y-129568000D02*
X103845000Y-129868000D01*
G75*
G02*
X103695000Y-130018000I-150000J0D01*
G01*
X102045000Y-130018000D01*
G75*
G02*
X101895000Y-129868000I0J150000D01*
G01*
X101895000Y-129568000D01*
G75*
G02*
X102045000Y-129418000I150000J0D01*
G01*
X103695000Y-129418000D01*
G75*
G02*
X103845000Y-129568000I0J-150000D01*
G01*
G37*
G36*
G01*
X103845000Y-130838000D02*
X103845000Y-131138000D01*
G75*
G02*
X103695000Y-131288000I-150000J0D01*
G01*
X102045000Y-131288000D01*
G75*
G02*
X101895000Y-131138000I0J150000D01*
G01*
X101895000Y-130838000D01*
G75*
G02*
X102045000Y-130688000I150000J0D01*
G01*
X103695000Y-130688000D01*
G75*
G02*
X103845000Y-130838000I0J-150000D01*
G01*
G37*
G36*
G01*
X103845000Y-132108000D02*
X103845000Y-132408000D01*
G75*
G02*
X103695000Y-132558000I-150000J0D01*
G01*
X102045000Y-132558000D01*
G75*
G02*
X101895000Y-132408000I0J150000D01*
G01*
X101895000Y-132108000D01*
G75*
G02*
X102045000Y-131958000I150000J0D01*
G01*
X103695000Y-131958000D01*
G75*
G02*
X103845000Y-132108000I0J-150000D01*
G01*
G37*
G36*
G01*
X103845000Y-133378000D02*
X103845000Y-133678000D01*
G75*
G02*
X103695000Y-133828000I-150000J0D01*
G01*
X102045000Y-133828000D01*
G75*
G02*
X101895000Y-133678000I0J150000D01*
G01*
X101895000Y-133378000D01*
G75*
G02*
X102045000Y-133228000I150000J0D01*
G01*
X103695000Y-133228000D01*
G75*
G02*
X103845000Y-133378000I0J-150000D01*
G01*
G37*
%TD*%
%TO.C,U5*%
G36*
G01*
X96924000Y-117437000D02*
X96624000Y-117437000D01*
G75*
G02*
X96474000Y-117287000I0J150000D01*
G01*
X96474000Y-115637000D01*
G75*
G02*
X96624000Y-115487000I150000J0D01*
G01*
X96924000Y-115487000D01*
G75*
G02*
X97074000Y-115637000I0J-150000D01*
G01*
X97074000Y-117287000D01*
G75*
G02*
X96924000Y-117437000I-150000J0D01*
G01*
G37*
G36*
G01*
X98194000Y-117437000D02*
X97894000Y-117437000D01*
G75*
G02*
X97744000Y-117287000I0J150000D01*
G01*
X97744000Y-115637000D01*
G75*
G02*
X97894000Y-115487000I150000J0D01*
G01*
X98194000Y-115487000D01*
G75*
G02*
X98344000Y-115637000I0J-150000D01*
G01*
X98344000Y-117287000D01*
G75*
G02*
X98194000Y-117437000I-150000J0D01*
G01*
G37*
G36*
G01*
X99464000Y-117437000D02*
X99164000Y-117437000D01*
G75*
G02*
X99014000Y-117287000I0J150000D01*
G01*
X99014000Y-115637000D01*
G75*
G02*
X99164000Y-115487000I150000J0D01*
G01*
X99464000Y-115487000D01*
G75*
G02*
X99614000Y-115637000I0J-150000D01*
G01*
X99614000Y-117287000D01*
G75*
G02*
X99464000Y-117437000I-150000J0D01*
G01*
G37*
G36*
G01*
X100734000Y-117437000D02*
X100434000Y-117437000D01*
G75*
G02*
X100284000Y-117287000I0J150000D01*
G01*
X100284000Y-115637000D01*
G75*
G02*
X100434000Y-115487000I150000J0D01*
G01*
X100734000Y-115487000D01*
G75*
G02*
X100884000Y-115637000I0J-150000D01*
G01*
X100884000Y-117287000D01*
G75*
G02*
X100734000Y-117437000I-150000J0D01*
G01*
G37*
G36*
G01*
X102004000Y-117437000D02*
X101704000Y-117437000D01*
G75*
G02*
X101554000Y-117287000I0J150000D01*
G01*
X101554000Y-115637000D01*
G75*
G02*
X101704000Y-115487000I150000J0D01*
G01*
X102004000Y-115487000D01*
G75*
G02*
X102154000Y-115637000I0J-150000D01*
G01*
X102154000Y-117287000D01*
G75*
G02*
X102004000Y-117437000I-150000J0D01*
G01*
G37*
G36*
G01*
X103274000Y-117437000D02*
X102974000Y-117437000D01*
G75*
G02*
X102824000Y-117287000I0J150000D01*
G01*
X102824000Y-115637000D01*
G75*
G02*
X102974000Y-115487000I150000J0D01*
G01*
X103274000Y-115487000D01*
G75*
G02*
X103424000Y-115637000I0J-150000D01*
G01*
X103424000Y-117287000D01*
G75*
G02*
X103274000Y-117437000I-150000J0D01*
G01*
G37*
G36*
G01*
X104544000Y-117437000D02*
X104244000Y-117437000D01*
G75*
G02*
X104094000Y-117287000I0J150000D01*
G01*
X104094000Y-115637000D01*
G75*
G02*
X104244000Y-115487000I150000J0D01*
G01*
X104544000Y-115487000D01*
G75*
G02*
X104694000Y-115637000I0J-150000D01*
G01*
X104694000Y-117287000D01*
G75*
G02*
X104544000Y-117437000I-150000J0D01*
G01*
G37*
G36*
G01*
X104544000Y-122387000D02*
X104244000Y-122387000D01*
G75*
G02*
X104094000Y-122237000I0J150000D01*
G01*
X104094000Y-120587000D01*
G75*
G02*
X104244000Y-120437000I150000J0D01*
G01*
X104544000Y-120437000D01*
G75*
G02*
X104694000Y-120587000I0J-150000D01*
G01*
X104694000Y-122237000D01*
G75*
G02*
X104544000Y-122387000I-150000J0D01*
G01*
G37*
G36*
G01*
X103274000Y-122387000D02*
X102974000Y-122387000D01*
G75*
G02*
X102824000Y-122237000I0J150000D01*
G01*
X102824000Y-120587000D01*
G75*
G02*
X102974000Y-120437000I150000J0D01*
G01*
X103274000Y-120437000D01*
G75*
G02*
X103424000Y-120587000I0J-150000D01*
G01*
X103424000Y-122237000D01*
G75*
G02*
X103274000Y-122387000I-150000J0D01*
G01*
G37*
G36*
G01*
X102004000Y-122387000D02*
X101704000Y-122387000D01*
G75*
G02*
X101554000Y-122237000I0J150000D01*
G01*
X101554000Y-120587000D01*
G75*
G02*
X101704000Y-120437000I150000J0D01*
G01*
X102004000Y-120437000D01*
G75*
G02*
X102154000Y-120587000I0J-150000D01*
G01*
X102154000Y-122237000D01*
G75*
G02*
X102004000Y-122387000I-150000J0D01*
G01*
G37*
G36*
G01*
X100734000Y-122387000D02*
X100434000Y-122387000D01*
G75*
G02*
X100284000Y-122237000I0J150000D01*
G01*
X100284000Y-120587000D01*
G75*
G02*
X100434000Y-120437000I150000J0D01*
G01*
X100734000Y-120437000D01*
G75*
G02*
X100884000Y-120587000I0J-150000D01*
G01*
X100884000Y-122237000D01*
G75*
G02*
X100734000Y-122387000I-150000J0D01*
G01*
G37*
G36*
G01*
X99464000Y-122387000D02*
X99164000Y-122387000D01*
G75*
G02*
X99014000Y-122237000I0J150000D01*
G01*
X99014000Y-120587000D01*
G75*
G02*
X99164000Y-120437000I150000J0D01*
G01*
X99464000Y-120437000D01*
G75*
G02*
X99614000Y-120587000I0J-150000D01*
G01*
X99614000Y-122237000D01*
G75*
G02*
X99464000Y-122387000I-150000J0D01*
G01*
G37*
G36*
G01*
X98194000Y-122387000D02*
X97894000Y-122387000D01*
G75*
G02*
X97744000Y-122237000I0J150000D01*
G01*
X97744000Y-120587000D01*
G75*
G02*
X97894000Y-120437000I150000J0D01*
G01*
X98194000Y-120437000D01*
G75*
G02*
X98344000Y-120587000I0J-150000D01*
G01*
X98344000Y-122237000D01*
G75*
G02*
X98194000Y-122387000I-150000J0D01*
G01*
G37*
G36*
G01*
X96924000Y-122387000D02*
X96624000Y-122387000D01*
G75*
G02*
X96474000Y-122237000I0J150000D01*
G01*
X96474000Y-120587000D01*
G75*
G02*
X96624000Y-120437000I150000J0D01*
G01*
X96924000Y-120437000D01*
G75*
G02*
X97074000Y-120587000I0J-150000D01*
G01*
X97074000Y-122237000D01*
G75*
G02*
X96924000Y-122387000I-150000J0D01*
G01*
G37*
%TD*%
%TO.C,R21*%
G36*
G01*
X118442000Y-128593001D02*
X118442000Y-127692999D01*
G75*
G02*
X118691999Y-127443000I249999J0D01*
G01*
X119342001Y-127443000D01*
G75*
G02*
X119592000Y-127692999I0J-249999D01*
G01*
X119592000Y-128593001D01*
G75*
G02*
X119342001Y-128843000I-249999J0D01*
G01*
X118691999Y-128843000D01*
G75*
G02*
X118442000Y-128593001I0J249999D01*
G01*
G37*
G36*
G01*
X116392000Y-128593001D02*
X116392000Y-127692999D01*
G75*
G02*
X116641999Y-127443000I249999J0D01*
G01*
X117292001Y-127443000D01*
G75*
G02*
X117542000Y-127692999I0J-249999D01*
G01*
X117542000Y-128593001D01*
G75*
G02*
X117292001Y-128843000I-249999J0D01*
G01*
X116641999Y-128843000D01*
G75*
G02*
X116392000Y-128593001I0J249999D01*
G01*
G37*
%TD*%
%TO.C,R20*%
G36*
G01*
X112952000Y-129089999D02*
X112952000Y-129990001D01*
G75*
G02*
X112702001Y-130240000I-249999J0D01*
G01*
X112051999Y-130240000D01*
G75*
G02*
X111802000Y-129990001I0J249999D01*
G01*
X111802000Y-129089999D01*
G75*
G02*
X112051999Y-128840000I249999J0D01*
G01*
X112702001Y-128840000D01*
G75*
G02*
X112952000Y-129089999I0J-249999D01*
G01*
G37*
G36*
G01*
X115002000Y-129089999D02*
X115002000Y-129990001D01*
G75*
G02*
X114752001Y-130240000I-249999J0D01*
G01*
X114101999Y-130240000D01*
G75*
G02*
X113852000Y-129990001I0J249999D01*
G01*
X113852000Y-129089999D01*
G75*
G02*
X114101999Y-128840000I249999J0D01*
G01*
X114752001Y-128840000D01*
G75*
G02*
X115002000Y-129089999I0J-249999D01*
G01*
G37*
%TD*%
%TO.C,R19*%
G36*
G01*
X113870000Y-126434001D02*
X113870000Y-125533999D01*
G75*
G02*
X114119999Y-125284000I249999J0D01*
G01*
X114770001Y-125284000D01*
G75*
G02*
X115020000Y-125533999I0J-249999D01*
G01*
X115020000Y-126434001D01*
G75*
G02*
X114770001Y-126684000I-249999J0D01*
G01*
X114119999Y-126684000D01*
G75*
G02*
X113870000Y-126434001I0J249999D01*
G01*
G37*
G36*
G01*
X111820000Y-126434001D02*
X111820000Y-125533999D01*
G75*
G02*
X112069999Y-125284000I249999J0D01*
G01*
X112720001Y-125284000D01*
G75*
G02*
X112970000Y-125533999I0J-249999D01*
G01*
X112970000Y-126434001D01*
G75*
G02*
X112720001Y-126684000I-249999J0D01*
G01*
X112069999Y-126684000D01*
G75*
G02*
X111820000Y-126434001I0J249999D01*
G01*
G37*
%TD*%
%TO.C,R18*%
G36*
G01*
X113870000Y-124402001D02*
X113870000Y-123501999D01*
G75*
G02*
X114119999Y-123252000I249999J0D01*
G01*
X114770001Y-123252000D01*
G75*
G02*
X115020000Y-123501999I0J-249999D01*
G01*
X115020000Y-124402001D01*
G75*
G02*
X114770001Y-124652000I-249999J0D01*
G01*
X114119999Y-124652000D01*
G75*
G02*
X113870000Y-124402001I0J249999D01*
G01*
G37*
G36*
G01*
X111820000Y-124402001D02*
X111820000Y-123501999D01*
G75*
G02*
X112069999Y-123252000I249999J0D01*
G01*
X112720001Y-123252000D01*
G75*
G02*
X112970000Y-123501999I0J-249999D01*
G01*
X112970000Y-124402001D01*
G75*
G02*
X112720001Y-124652000I-249999J0D01*
G01*
X112069999Y-124652000D01*
G75*
G02*
X111820000Y-124402001I0J249999D01*
G01*
G37*
%TD*%
%TO.C,R17*%
G36*
G01*
X98231000Y-108781001D02*
X98231000Y-107880999D01*
G75*
G02*
X98480999Y-107631000I249999J0D01*
G01*
X99131001Y-107631000D01*
G75*
G02*
X99381000Y-107880999I0J-249999D01*
G01*
X99381000Y-108781001D01*
G75*
G02*
X99131001Y-109031000I-249999J0D01*
G01*
X98480999Y-109031000D01*
G75*
G02*
X98231000Y-108781001I0J249999D01*
G01*
G37*
G36*
G01*
X96181000Y-108781001D02*
X96181000Y-107880999D01*
G75*
G02*
X96430999Y-107631000I249999J0D01*
G01*
X97081001Y-107631000D01*
G75*
G02*
X97331000Y-107880999I0J-249999D01*
G01*
X97331000Y-108781001D01*
G75*
G02*
X97081001Y-109031000I-249999J0D01*
G01*
X96430999Y-109031000D01*
G75*
G02*
X96181000Y-108781001I0J249999D01*
G01*
G37*
%TD*%
%TO.C,R16*%
G36*
G01*
X122751000Y-124402001D02*
X122751000Y-123501999D01*
G75*
G02*
X123000999Y-123252000I249999J0D01*
G01*
X123651001Y-123252000D01*
G75*
G02*
X123901000Y-123501999I0J-249999D01*
G01*
X123901000Y-124402001D01*
G75*
G02*
X123651001Y-124652000I-249999J0D01*
G01*
X123000999Y-124652000D01*
G75*
G02*
X122751000Y-124402001I0J249999D01*
G01*
G37*
G36*
G01*
X120701000Y-124402001D02*
X120701000Y-123501999D01*
G75*
G02*
X120950999Y-123252000I249999J0D01*
G01*
X121601001Y-123252000D01*
G75*
G02*
X121851000Y-123501999I0J-249999D01*
G01*
X121851000Y-124402001D01*
G75*
G02*
X121601001Y-124652000I-249999J0D01*
G01*
X120950999Y-124652000D01*
G75*
G02*
X120701000Y-124402001I0J249999D01*
G01*
G37*
%TD*%
%TO.C,R15*%
G36*
G01*
X137390000Y-126764001D02*
X137390000Y-125863999D01*
G75*
G02*
X137639999Y-125614000I249999J0D01*
G01*
X138290001Y-125614000D01*
G75*
G02*
X138540000Y-125863999I0J-249999D01*
G01*
X138540000Y-126764001D01*
G75*
G02*
X138290001Y-127014000I-249999J0D01*
G01*
X137639999Y-127014000D01*
G75*
G02*
X137390000Y-126764001I0J249999D01*
G01*
G37*
G36*
G01*
X135340000Y-126764001D02*
X135340000Y-125863999D01*
G75*
G02*
X135589999Y-125614000I249999J0D01*
G01*
X136240001Y-125614000D01*
G75*
G02*
X136490000Y-125863999I0J-249999D01*
G01*
X136490000Y-126764001D01*
G75*
G02*
X136240001Y-127014000I-249999J0D01*
G01*
X135589999Y-127014000D01*
G75*
G02*
X135340000Y-126764001I0J249999D01*
G01*
G37*
%TD*%
%TO.C,R14*%
G36*
G01*
X137390000Y-128923001D02*
X137390000Y-128022999D01*
G75*
G02*
X137639999Y-127773000I249999J0D01*
G01*
X138290001Y-127773000D01*
G75*
G02*
X138540000Y-128022999I0J-249999D01*
G01*
X138540000Y-128923001D01*
G75*
G02*
X138290001Y-129173000I-249999J0D01*
G01*
X137639999Y-129173000D01*
G75*
G02*
X137390000Y-128923001I0J249999D01*
G01*
G37*
G36*
G01*
X135340000Y-128923001D02*
X135340000Y-128022999D01*
G75*
G02*
X135589999Y-127773000I249999J0D01*
G01*
X136240001Y-127773000D01*
G75*
G02*
X136490000Y-128022999I0J-249999D01*
G01*
X136490000Y-128923001D01*
G75*
G02*
X136240001Y-129173000I-249999J0D01*
G01*
X135589999Y-129173000D01*
G75*
G02*
X135340000Y-128923001I0J249999D01*
G01*
G37*
%TD*%
%TO.C,R13*%
G36*
G01*
X132752000Y-101847999D02*
X132752000Y-102748001D01*
G75*
G02*
X132502001Y-102998000I-249999J0D01*
G01*
X131851999Y-102998000D01*
G75*
G02*
X131602000Y-102748001I0J249999D01*
G01*
X131602000Y-101847999D01*
G75*
G02*
X131851999Y-101598000I249999J0D01*
G01*
X132502001Y-101598000D01*
G75*
G02*
X132752000Y-101847999I0J-249999D01*
G01*
G37*
G36*
G01*
X134802000Y-101847999D02*
X134802000Y-102748001D01*
G75*
G02*
X134552001Y-102998000I-249999J0D01*
G01*
X133901999Y-102998000D01*
G75*
G02*
X133652000Y-102748001I0J249999D01*
G01*
X133652000Y-101847999D01*
G75*
G02*
X133901999Y-101598000I249999J0D01*
G01*
X134552001Y-101598000D01*
G75*
G02*
X134802000Y-101847999I0J-249999D01*
G01*
G37*
%TD*%
%TO.C,R12*%
G36*
G01*
X110568000Y-103930001D02*
X110568000Y-103029999D01*
G75*
G02*
X110817999Y-102780000I249999J0D01*
G01*
X111468001Y-102780000D01*
G75*
G02*
X111718000Y-103029999I0J-249999D01*
G01*
X111718000Y-103930001D01*
G75*
G02*
X111468001Y-104180000I-249999J0D01*
G01*
X110817999Y-104180000D01*
G75*
G02*
X110568000Y-103930001I0J249999D01*
G01*
G37*
G36*
G01*
X108518000Y-103930001D02*
X108518000Y-103029999D01*
G75*
G02*
X108767999Y-102780000I249999J0D01*
G01*
X109418001Y-102780000D01*
G75*
G02*
X109668000Y-103029999I0J-249999D01*
G01*
X109668000Y-103930001D01*
G75*
G02*
X109418001Y-104180000I-249999J0D01*
G01*
X108767999Y-104180000D01*
G75*
G02*
X108518000Y-103930001I0J249999D01*
G01*
G37*
%TD*%
%TO.C,R11*%
G36*
G01*
X132760000Y-99689999D02*
X132760000Y-100590001D01*
G75*
G02*
X132510001Y-100840000I-249999J0D01*
G01*
X131859999Y-100840000D01*
G75*
G02*
X131610000Y-100590001I0J249999D01*
G01*
X131610000Y-99689999D01*
G75*
G02*
X131859999Y-99440000I249999J0D01*
G01*
X132510001Y-99440000D01*
G75*
G02*
X132760000Y-99689999I0J-249999D01*
G01*
G37*
G36*
G01*
X134810000Y-99689999D02*
X134810000Y-100590001D01*
G75*
G02*
X134560001Y-100840000I-249999J0D01*
G01*
X133909999Y-100840000D01*
G75*
G02*
X133660000Y-100590001I0J249999D01*
G01*
X133660000Y-99689999D01*
G75*
G02*
X133909999Y-99440000I249999J0D01*
G01*
X134560001Y-99440000D01*
G75*
G02*
X134810000Y-99689999I0J-249999D01*
G01*
G37*
%TD*%
%TO.C,R10*%
G36*
G01*
X117660000Y-103029999D02*
X117660000Y-103930001D01*
G75*
G02*
X117410001Y-104180000I-249999J0D01*
G01*
X116759999Y-104180000D01*
G75*
G02*
X116510000Y-103930001I0J249999D01*
G01*
X116510000Y-103029999D01*
G75*
G02*
X116759999Y-102780000I249999J0D01*
G01*
X117410001Y-102780000D01*
G75*
G02*
X117660000Y-103029999I0J-249999D01*
G01*
G37*
G36*
G01*
X119710000Y-103029999D02*
X119710000Y-103930001D01*
G75*
G02*
X119460001Y-104180000I-249999J0D01*
G01*
X118809999Y-104180000D01*
G75*
G02*
X118560000Y-103930001I0J249999D01*
G01*
X118560000Y-103029999D01*
G75*
G02*
X118809999Y-102780000I249999J0D01*
G01*
X119460001Y-102780000D01*
G75*
G02*
X119710000Y-103029999I0J-249999D01*
G01*
G37*
%TD*%
%TO.C,R9*%
G36*
G01*
X124139000Y-132022001D02*
X124139000Y-131121999D01*
G75*
G02*
X124388999Y-130872000I249999J0D01*
G01*
X125039001Y-130872000D01*
G75*
G02*
X125289000Y-131121999I0J-249999D01*
G01*
X125289000Y-132022001D01*
G75*
G02*
X125039001Y-132272000I-249999J0D01*
G01*
X124388999Y-132272000D01*
G75*
G02*
X124139000Y-132022001I0J249999D01*
G01*
G37*
G36*
G01*
X122089000Y-132022001D02*
X122089000Y-131121999D01*
G75*
G02*
X122338999Y-130872000I249999J0D01*
G01*
X122989001Y-130872000D01*
G75*
G02*
X123239000Y-131121999I0J-249999D01*
G01*
X123239000Y-132022001D01*
G75*
G02*
X122989001Y-132272000I-249999J0D01*
G01*
X122338999Y-132272000D01*
G75*
G02*
X122089000Y-132022001I0J249999D01*
G01*
G37*
%TD*%
%TO.C,R8*%
G36*
G01*
X137390000Y-123081001D02*
X137390000Y-122180999D01*
G75*
G02*
X137639999Y-121931000I249999J0D01*
G01*
X138290001Y-121931000D01*
G75*
G02*
X138540000Y-122180999I0J-249999D01*
G01*
X138540000Y-123081001D01*
G75*
G02*
X138290001Y-123331000I-249999J0D01*
G01*
X137639999Y-123331000D01*
G75*
G02*
X137390000Y-123081001I0J249999D01*
G01*
G37*
G36*
G01*
X135340000Y-123081001D02*
X135340000Y-122180999D01*
G75*
G02*
X135589999Y-121931000I249999J0D01*
G01*
X136240001Y-121931000D01*
G75*
G02*
X136490000Y-122180999I0J-249999D01*
G01*
X136490000Y-123081001D01*
G75*
G02*
X136240001Y-123331000I-249999J0D01*
G01*
X135589999Y-123331000D01*
G75*
G02*
X135340000Y-123081001I0J249999D01*
G01*
G37*
%TD*%
%TO.C,R7*%
G36*
G01*
X137390000Y-120922001D02*
X137390000Y-120021999D01*
G75*
G02*
X137639999Y-119772000I249999J0D01*
G01*
X138290001Y-119772000D01*
G75*
G02*
X138540000Y-120021999I0J-249999D01*
G01*
X138540000Y-120922001D01*
G75*
G02*
X138290001Y-121172000I-249999J0D01*
G01*
X137639999Y-121172000D01*
G75*
G02*
X137390000Y-120922001I0J249999D01*
G01*
G37*
G36*
G01*
X135340000Y-120922001D02*
X135340000Y-120021999D01*
G75*
G02*
X135589999Y-119772000I249999J0D01*
G01*
X136240001Y-119772000D01*
G75*
G02*
X136490000Y-120021999I0J-249999D01*
G01*
X136490000Y-120922001D01*
G75*
G02*
X136240001Y-121172000I-249999J0D01*
G01*
X135589999Y-121172000D01*
G75*
G02*
X135340000Y-120922001I0J249999D01*
G01*
G37*
%TD*%
%TO.C,R6*%
G36*
G01*
X137416000Y-116325001D02*
X137416000Y-115424999D01*
G75*
G02*
X137665999Y-115175000I249999J0D01*
G01*
X138316001Y-115175000D01*
G75*
G02*
X138566000Y-115424999I0J-249999D01*
G01*
X138566000Y-116325001D01*
G75*
G02*
X138316001Y-116575000I-249999J0D01*
G01*
X137665999Y-116575000D01*
G75*
G02*
X137416000Y-116325001I0J249999D01*
G01*
G37*
G36*
G01*
X135366000Y-116325001D02*
X135366000Y-115424999D01*
G75*
G02*
X135615999Y-115175000I249999J0D01*
G01*
X136266001Y-115175000D01*
G75*
G02*
X136516000Y-115424999I0J-249999D01*
G01*
X136516000Y-116325001D01*
G75*
G02*
X136266001Y-116575000I-249999J0D01*
G01*
X135615999Y-116575000D01*
G75*
G02*
X135366000Y-116325001I0J249999D01*
G01*
G37*
%TD*%
%TO.C,R5*%
G36*
G01*
X137416000Y-114166001D02*
X137416000Y-113265999D01*
G75*
G02*
X137665999Y-113016000I249999J0D01*
G01*
X138316001Y-113016000D01*
G75*
G02*
X138566000Y-113265999I0J-249999D01*
G01*
X138566000Y-114166001D01*
G75*
G02*
X138316001Y-114416000I-249999J0D01*
G01*
X137665999Y-114416000D01*
G75*
G02*
X137416000Y-114166001I0J249999D01*
G01*
G37*
G36*
G01*
X135366000Y-114166001D02*
X135366000Y-113265999D01*
G75*
G02*
X135615999Y-113016000I249999J0D01*
G01*
X136266001Y-113016000D01*
G75*
G02*
X136516000Y-113265999I0J-249999D01*
G01*
X136516000Y-114166001D01*
G75*
G02*
X136266001Y-114416000I-249999J0D01*
G01*
X135615999Y-114416000D01*
G75*
G02*
X135366000Y-114166001I0J249999D01*
G01*
G37*
%TD*%
%TO.C,R4*%
G36*
G01*
X137525000Y-109543001D02*
X137525000Y-108642999D01*
G75*
G02*
X137774999Y-108393000I249999J0D01*
G01*
X138425001Y-108393000D01*
G75*
G02*
X138675000Y-108642999I0J-249999D01*
G01*
X138675000Y-109543001D01*
G75*
G02*
X138425001Y-109793000I-249999J0D01*
G01*
X137774999Y-109793000D01*
G75*
G02*
X137525000Y-109543001I0J249999D01*
G01*
G37*
G36*
G01*
X135475000Y-109543001D02*
X135475000Y-108642999D01*
G75*
G02*
X135724999Y-108393000I249999J0D01*
G01*
X136375001Y-108393000D01*
G75*
G02*
X136625000Y-108642999I0J-249999D01*
G01*
X136625000Y-109543001D01*
G75*
G02*
X136375001Y-109793000I-249999J0D01*
G01*
X135724999Y-109793000D01*
G75*
G02*
X135475000Y-109543001I0J249999D01*
G01*
G37*
%TD*%
%TO.C,R3*%
G36*
G01*
X137543000Y-107384001D02*
X137543000Y-106483999D01*
G75*
G02*
X137792999Y-106234000I249999J0D01*
G01*
X138443001Y-106234000D01*
G75*
G02*
X138693000Y-106483999I0J-249999D01*
G01*
X138693000Y-107384001D01*
G75*
G02*
X138443001Y-107634000I-249999J0D01*
G01*
X137792999Y-107634000D01*
G75*
G02*
X137543000Y-107384001I0J249999D01*
G01*
G37*
G36*
G01*
X135493000Y-107384001D02*
X135493000Y-106483999D01*
G75*
G02*
X135742999Y-106234000I249999J0D01*
G01*
X136393001Y-106234000D01*
G75*
G02*
X136643000Y-106483999I0J-249999D01*
G01*
X136643000Y-107384001D01*
G75*
G02*
X136393001Y-107634000I-249999J0D01*
G01*
X135742999Y-107634000D01*
G75*
G02*
X135493000Y-107384001I0J249999D01*
G01*
G37*
%TD*%
%TO.C,R2*%
G36*
G01*
X137534000Y-102761001D02*
X137534000Y-101860999D01*
G75*
G02*
X137783999Y-101611000I249999J0D01*
G01*
X138434001Y-101611000D01*
G75*
G02*
X138684000Y-101860999I0J-249999D01*
G01*
X138684000Y-102761001D01*
G75*
G02*
X138434001Y-103011000I-249999J0D01*
G01*
X137783999Y-103011000D01*
G75*
G02*
X137534000Y-102761001I0J249999D01*
G01*
G37*
G36*
G01*
X135484000Y-102761001D02*
X135484000Y-101860999D01*
G75*
G02*
X135733999Y-101611000I249999J0D01*
G01*
X136384001Y-101611000D01*
G75*
G02*
X136634000Y-101860999I0J-249999D01*
G01*
X136634000Y-102761001D01*
G75*
G02*
X136384001Y-103011000I-249999J0D01*
G01*
X135733999Y-103011000D01*
G75*
G02*
X135484000Y-102761001I0J249999D01*
G01*
G37*
%TD*%
%TO.C,R1*%
G36*
G01*
X137525000Y-100602001D02*
X137525000Y-99701999D01*
G75*
G02*
X137774999Y-99452000I249999J0D01*
G01*
X138425001Y-99452000D01*
G75*
G02*
X138675000Y-99701999I0J-249999D01*
G01*
X138675000Y-100602001D01*
G75*
G02*
X138425001Y-100852000I-249999J0D01*
G01*
X137774999Y-100852000D01*
G75*
G02*
X137525000Y-100602001I0J249999D01*
G01*
G37*
G36*
G01*
X135475000Y-100602001D02*
X135475000Y-99701999D01*
G75*
G02*
X135724999Y-99452000I249999J0D01*
G01*
X136375001Y-99452000D01*
G75*
G02*
X136625000Y-99701999I0J-249999D01*
G01*
X136625000Y-100602001D01*
G75*
G02*
X136375001Y-100852000I-249999J0D01*
G01*
X135724999Y-100852000D01*
G75*
G02*
X135475000Y-100602001I0J249999D01*
G01*
G37*
%TD*%
D13*
%TO.C,Q1*%
X118907000Y-124775000D03*
X116907000Y-125725000D03*
X116907000Y-123825000D03*
%TD*%
D14*
%TO.C,J1*%
X89027000Y-103124000D03*
X89027000Y-104394000D03*
X89027000Y-105664000D03*
X89027000Y-106934000D03*
X89027000Y-108204000D03*
X89027000Y-109474000D03*
X89027000Y-110744000D03*
X89027000Y-112014000D03*
X89027000Y-113284000D03*
X89027000Y-114554000D03*
X89027000Y-115824000D03*
X89027000Y-117094000D03*
X89027000Y-118364000D03*
X89027000Y-119634000D03*
X89027000Y-120904000D03*
%TD*%
D13*
%TO.C,D2*%
X123301000Y-128524000D03*
X121301000Y-129474000D03*
X121301000Y-127574000D03*
%TD*%
%TO.C,D1*%
G36*
G01*
X113714000Y-103029999D02*
X113714000Y-103930001D01*
G75*
G02*
X113464001Y-104180000I-249999J0D01*
G01*
X112813999Y-104180000D01*
G75*
G02*
X112564000Y-103930001I0J249999D01*
G01*
X112564000Y-103029999D01*
G75*
G02*
X112813999Y-102780000I249999J0D01*
G01*
X113464001Y-102780000D01*
G75*
G02*
X113714000Y-103029999I0J-249999D01*
G01*
G37*
G36*
G01*
X115764000Y-103029999D02*
X115764000Y-103930001D01*
G75*
G02*
X115514001Y-104180000I-249999J0D01*
G01*
X114863999Y-104180000D01*
G75*
G02*
X114614000Y-103930001I0J249999D01*
G01*
X114614000Y-103029999D01*
G75*
G02*
X114863999Y-102780000I249999J0D01*
G01*
X115514001Y-102780000D01*
G75*
G02*
X115764000Y-103029999I0J-249999D01*
G01*
G37*
%TD*%
%TO.C,C8*%
G36*
G01*
X109670001Y-115586000D02*
X108769999Y-115586000D01*
G75*
G02*
X108520000Y-115336001I0J249999D01*
G01*
X108520000Y-114685999D01*
G75*
G02*
X108769999Y-114436000I249999J0D01*
G01*
X109670001Y-114436000D01*
G75*
G02*
X109920000Y-114685999I0J-249999D01*
G01*
X109920000Y-115336001D01*
G75*
G02*
X109670001Y-115586000I-249999J0D01*
G01*
G37*
G36*
G01*
X109670001Y-117636000D02*
X108769999Y-117636000D01*
G75*
G02*
X108520000Y-117386001I0J249999D01*
G01*
X108520000Y-116735999D01*
G75*
G02*
X108769999Y-116486000I249999J0D01*
G01*
X109670001Y-116486000D01*
G75*
G02*
X109920000Y-116735999I0J-249999D01*
G01*
X109920000Y-117386001D01*
G75*
G02*
X109670001Y-117636000I-249999J0D01*
G01*
G37*
%TD*%
%TO.C,C7*%
G36*
G01*
X93236201Y-103233000D02*
X92336199Y-103233000D01*
G75*
G02*
X92086200Y-102983001I0J249999D01*
G01*
X92086200Y-102332999D01*
G75*
G02*
X92336199Y-102083000I249999J0D01*
G01*
X93236201Y-102083000D01*
G75*
G02*
X93486200Y-102332999I0J-249999D01*
G01*
X93486200Y-102983001D01*
G75*
G02*
X93236201Y-103233000I-249999J0D01*
G01*
G37*
G36*
G01*
X93236201Y-105283000D02*
X92336199Y-105283000D01*
G75*
G02*
X92086200Y-105033001I0J249999D01*
G01*
X92086200Y-104382999D01*
G75*
G02*
X92336199Y-104133000I249999J0D01*
G01*
X93236201Y-104133000D01*
G75*
G02*
X93486200Y-104382999I0J-249999D01*
G01*
X93486200Y-105033001D01*
G75*
G02*
X93236201Y-105283000I-249999J0D01*
G01*
G37*
%TD*%
%TO.C,C6*%
G36*
G01*
X119175000Y-131121999D02*
X119175000Y-132022001D01*
G75*
G02*
X118925001Y-132272000I-249999J0D01*
G01*
X118274999Y-132272000D01*
G75*
G02*
X118025000Y-132022001I0J249999D01*
G01*
X118025000Y-131121999D01*
G75*
G02*
X118274999Y-130872000I249999J0D01*
G01*
X118925001Y-130872000D01*
G75*
G02*
X119175000Y-131121999I0J-249999D01*
G01*
G37*
G36*
G01*
X121225000Y-131121999D02*
X121225000Y-132022001D01*
G75*
G02*
X120975001Y-132272000I-249999J0D01*
G01*
X120324999Y-132272000D01*
G75*
G02*
X120075000Y-132022001I0J249999D01*
G01*
X120075000Y-131121999D01*
G75*
G02*
X120324999Y-130872000I249999J0D01*
G01*
X120975001Y-130872000D01*
G75*
G02*
X121225000Y-131121999I0J-249999D01*
G01*
G37*
%TD*%
%TO.C,C5*%
G36*
G01*
X102549000Y-108781001D02*
X102549000Y-107880999D01*
G75*
G02*
X102798999Y-107631000I249999J0D01*
G01*
X103449001Y-107631000D01*
G75*
G02*
X103699000Y-107880999I0J-249999D01*
G01*
X103699000Y-108781001D01*
G75*
G02*
X103449001Y-109031000I-249999J0D01*
G01*
X102798999Y-109031000D01*
G75*
G02*
X102549000Y-108781001I0J249999D01*
G01*
G37*
G36*
G01*
X100499000Y-108781001D02*
X100499000Y-107880999D01*
G75*
G02*
X100748999Y-107631000I249999J0D01*
G01*
X101399001Y-107631000D01*
G75*
G02*
X101649000Y-107880999I0J-249999D01*
G01*
X101649000Y-108781001D01*
G75*
G02*
X101399001Y-109031000I-249999J0D01*
G01*
X100748999Y-109031000D01*
G75*
G02*
X100499000Y-108781001I0J249999D01*
G01*
G37*
%TD*%
%TO.C,C4*%
G36*
G01*
X133800001Y-121080000D02*
X132899999Y-121080000D01*
G75*
G02*
X132650000Y-120830001I0J249999D01*
G01*
X132650000Y-120179999D01*
G75*
G02*
X132899999Y-119930000I249999J0D01*
G01*
X133800001Y-119930000D01*
G75*
G02*
X134050000Y-120179999I0J-249999D01*
G01*
X134050000Y-120830001D01*
G75*
G02*
X133800001Y-121080000I-249999J0D01*
G01*
G37*
G36*
G01*
X133800001Y-123130000D02*
X132899999Y-123130000D01*
G75*
G02*
X132650000Y-122880001I0J249999D01*
G01*
X132650000Y-122229999D01*
G75*
G02*
X132899999Y-121980000I249999J0D01*
G01*
X133800001Y-121980000D01*
G75*
G02*
X134050000Y-122229999I0J-249999D01*
G01*
X134050000Y-122880001D01*
G75*
G02*
X133800001Y-123130000I-249999J0D01*
G01*
G37*
%TD*%
%TO.C,C3*%
G36*
G01*
X132899999Y-113344000D02*
X133800001Y-113344000D01*
G75*
G02*
X134050000Y-113593999I0J-249999D01*
G01*
X134050000Y-114244001D01*
G75*
G02*
X133800001Y-114494000I-249999J0D01*
G01*
X132899999Y-114494000D01*
G75*
G02*
X132650000Y-114244001I0J249999D01*
G01*
X132650000Y-113593999D01*
G75*
G02*
X132899999Y-113344000I249999J0D01*
G01*
G37*
G36*
G01*
X132899999Y-111294000D02*
X133800001Y-111294000D01*
G75*
G02*
X134050000Y-111543999I0J-249999D01*
G01*
X134050000Y-112194001D01*
G75*
G02*
X133800001Y-112444000I-249999J0D01*
G01*
X132899999Y-112444000D01*
G75*
G02*
X132650000Y-112194001I0J249999D01*
G01*
X132650000Y-111543999D01*
G75*
G02*
X132899999Y-111294000I249999J0D01*
G01*
G37*
%TD*%
%TO.C,C2*%
G36*
G01*
X125545001Y-114875000D02*
X124644999Y-114875000D01*
G75*
G02*
X124395000Y-114625001I0J249999D01*
G01*
X124395000Y-113974999D01*
G75*
G02*
X124644999Y-113725000I249999J0D01*
G01*
X125545001Y-113725000D01*
G75*
G02*
X125795000Y-113974999I0J-249999D01*
G01*
X125795000Y-114625001D01*
G75*
G02*
X125545001Y-114875000I-249999J0D01*
G01*
G37*
G36*
G01*
X125545001Y-116925000D02*
X124644999Y-116925000D01*
G75*
G02*
X124395000Y-116675001I0J249999D01*
G01*
X124395000Y-116024999D01*
G75*
G02*
X124644999Y-115775000I249999J0D01*
G01*
X125545001Y-115775000D01*
G75*
G02*
X125795000Y-116024999I0J-249999D01*
G01*
X125795000Y-116675001D01*
G75*
G02*
X125545001Y-116925000I-249999J0D01*
G01*
G37*
%TD*%
%TO.C,C1*%
G36*
G01*
X96411201Y-103233000D02*
X95511199Y-103233000D01*
G75*
G02*
X95261200Y-102983001I0J249999D01*
G01*
X95261200Y-102332999D01*
G75*
G02*
X95511199Y-102083000I249999J0D01*
G01*
X96411201Y-102083000D01*
G75*
G02*
X96661200Y-102332999I0J-249999D01*
G01*
X96661200Y-102983001D01*
G75*
G02*
X96411201Y-103233000I-249999J0D01*
G01*
G37*
G36*
G01*
X96411201Y-105283000D02*
X95511199Y-105283000D01*
G75*
G02*
X95261200Y-105033001I0J249999D01*
G01*
X95261200Y-104382999D01*
G75*
G02*
X95511199Y-104133000I249999J0D01*
G01*
X96411201Y-104133000D01*
G75*
G02*
X96661200Y-104382999I0J-249999D01*
G01*
X96661200Y-105033001D01*
G75*
G02*
X96411201Y-105283000I-249999J0D01*
G01*
G37*
%TD*%
M02*
