%TF.GenerationSoftware,KiCad,Pcbnew,(5.1.6)-1*%
%TF.CreationDate,2020-05-27T22:40:41+03:00*%
%TF.ProjectId,MD-100 Emulator,4d442d31-3030-4204-956d-756c61746f72,rev?*%
%TF.SameCoordinates,Original*%
%TF.FileFunction,Legend,Top*%
%TF.FilePolarity,Positive*%
%FSLAX46Y46*%
G04 Gerber Fmt 4.6, Leading zero omitted, Abs format (unit mm)*
G04 Created by KiCad (PCBNEW (5.1.6)-1) date 2020-05-27 22:40:41*
%MOMM*%
%LPD*%
G01*
G04 APERTURE LIST*
%ADD10C,0.300000*%
%ADD11C,0.150000*%
%ADD12C,0.120000*%
G04 APERTURE END LIST*
D10*
X95608928Y-92754711D02*
X96466071Y-92754711D01*
X96037500Y-94254711D02*
X96037500Y-92754711D01*
X96966071Y-94254711D02*
X96966071Y-92754711D01*
X97608928Y-94254711D02*
X97608928Y-93468997D01*
X97537500Y-93326140D01*
X97394642Y-93254711D01*
X97180357Y-93254711D01*
X97037500Y-93326140D01*
X96966071Y-93397568D01*
X98323214Y-94254711D02*
X98323214Y-93254711D01*
X98323214Y-92754711D02*
X98251785Y-92826140D01*
X98323214Y-92897568D01*
X98394642Y-92826140D01*
X98323214Y-92754711D01*
X98323214Y-92897568D01*
X98966071Y-94183282D02*
X99108928Y-94254711D01*
X99394642Y-94254711D01*
X99537500Y-94183282D01*
X99608928Y-94040425D01*
X99608928Y-93968997D01*
X99537500Y-93826140D01*
X99394642Y-93754711D01*
X99180357Y-93754711D01*
X99037500Y-93683282D01*
X98966071Y-93540425D01*
X98966071Y-93468997D01*
X99037500Y-93326140D01*
X99180357Y-93254711D01*
X99394642Y-93254711D01*
X99537500Y-93326140D01*
X101323214Y-94183282D02*
X101466071Y-94254711D01*
X101751785Y-94254711D01*
X101894642Y-94183282D01*
X101966071Y-94040425D01*
X101966071Y-93968997D01*
X101894642Y-93826140D01*
X101751785Y-93754711D01*
X101537500Y-93754711D01*
X101394642Y-93683282D01*
X101323214Y-93540425D01*
X101323214Y-93468997D01*
X101394642Y-93326140D01*
X101537500Y-93254711D01*
X101751785Y-93254711D01*
X101894642Y-93326140D01*
X102608928Y-94254711D02*
X102608928Y-93254711D01*
X102608928Y-92754711D02*
X102537500Y-92826140D01*
X102608928Y-92897568D01*
X102680357Y-92826140D01*
X102608928Y-92754711D01*
X102608928Y-92897568D01*
X103966071Y-94254711D02*
X103966071Y-92754711D01*
X103966071Y-94183282D02*
X103823214Y-94254711D01*
X103537500Y-94254711D01*
X103394642Y-94183282D01*
X103323214Y-94111854D01*
X103251785Y-93968997D01*
X103251785Y-93540425D01*
X103323214Y-93397568D01*
X103394642Y-93326140D01*
X103537500Y-93254711D01*
X103823214Y-93254711D01*
X103966071Y-93326140D01*
X105251785Y-94183282D02*
X105108928Y-94254711D01*
X104823214Y-94254711D01*
X104680357Y-94183282D01*
X104608928Y-94040425D01*
X104608928Y-93468997D01*
X104680357Y-93326140D01*
X104823214Y-93254711D01*
X105108928Y-93254711D01*
X105251785Y-93326140D01*
X105323214Y-93468997D01*
X105323214Y-93611854D01*
X104608928Y-93754711D01*
X106894642Y-93254711D02*
X107466071Y-93254711D01*
X107108928Y-92754711D02*
X107108928Y-94040425D01*
X107180357Y-94183282D01*
X107323214Y-94254711D01*
X107466071Y-94254711D01*
X108180357Y-94254711D02*
X108037500Y-94183282D01*
X107966071Y-94111854D01*
X107894642Y-93968997D01*
X107894642Y-93540425D01*
X107966071Y-93397568D01*
X108037500Y-93326140D01*
X108180357Y-93254711D01*
X108394642Y-93254711D01*
X108537500Y-93326140D01*
X108608928Y-93397568D01*
X108680357Y-93540425D01*
X108680357Y-93968997D01*
X108608928Y-94111854D01*
X108537500Y-94183282D01*
X108394642Y-94254711D01*
X108180357Y-94254711D01*
X109180357Y-93254711D02*
X109466071Y-94254711D01*
X109751785Y-93540425D01*
X110037500Y-94254711D01*
X110323214Y-93254711D01*
X111537500Y-94254711D02*
X111537500Y-93468997D01*
X111466071Y-93326140D01*
X111323214Y-93254711D01*
X111037500Y-93254711D01*
X110894642Y-93326140D01*
X111537500Y-94183282D02*
X111394642Y-94254711D01*
X111037500Y-94254711D01*
X110894642Y-94183282D01*
X110823214Y-94040425D01*
X110823214Y-93897568D01*
X110894642Y-93754711D01*
X111037500Y-93683282D01*
X111394642Y-93683282D01*
X111537500Y-93611854D01*
X112251785Y-94254711D02*
X112251785Y-93254711D01*
X112251785Y-93540425D02*
X112323214Y-93397568D01*
X112394642Y-93326140D01*
X112537500Y-93254711D01*
X112680357Y-93254711D01*
X113823214Y-94254711D02*
X113823214Y-92754711D01*
X113823214Y-94183282D02*
X113680357Y-94254711D01*
X113394642Y-94254711D01*
X113251785Y-94183282D01*
X113180357Y-94111854D01*
X113108928Y-93968997D01*
X113108928Y-93540425D01*
X113180357Y-93397568D01*
X113251785Y-93326140D01*
X113394642Y-93254711D01*
X113680357Y-93254711D01*
X113823214Y-93326140D01*
X114466071Y-94183282D02*
X114608928Y-94254711D01*
X114894642Y-94254711D01*
X115037500Y-94183282D01*
X115108928Y-94040425D01*
X115108928Y-93968997D01*
X115037500Y-93826140D01*
X114894642Y-93754711D01*
X114680357Y-93754711D01*
X114537500Y-93683282D01*
X114466071Y-93540425D01*
X114466071Y-93468997D01*
X114537500Y-93326140D01*
X114680357Y-93254711D01*
X114894642Y-93254711D01*
X115037500Y-93326140D01*
X117466071Y-94183282D02*
X117323214Y-94254711D01*
X117037500Y-94254711D01*
X116894642Y-94183282D01*
X116823214Y-94040425D01*
X116823214Y-93468997D01*
X116894642Y-93326140D01*
X117037500Y-93254711D01*
X117323214Y-93254711D01*
X117466071Y-93326140D01*
X117537500Y-93468997D01*
X117537500Y-93611854D01*
X116823214Y-93754711D01*
X118180357Y-93254711D02*
X118180357Y-94254711D01*
X118180357Y-93397568D02*
X118251785Y-93326140D01*
X118394642Y-93254711D01*
X118608928Y-93254711D01*
X118751785Y-93326140D01*
X118823214Y-93468997D01*
X118823214Y-94254711D01*
X120108928Y-94183282D02*
X119966071Y-94254711D01*
X119680357Y-94254711D01*
X119537500Y-94183282D01*
X119466071Y-94040425D01*
X119466071Y-93468997D01*
X119537500Y-93326140D01*
X119680357Y-93254711D01*
X119966071Y-93254711D01*
X120108928Y-93326140D01*
X120180357Y-93468997D01*
X120180357Y-93611854D01*
X119466071Y-93754711D01*
X120823214Y-94254711D02*
X120823214Y-93254711D01*
X120823214Y-93397568D02*
X120894642Y-93326140D01*
X121037500Y-93254711D01*
X121251785Y-93254711D01*
X121394642Y-93326140D01*
X121466071Y-93468997D01*
X121466071Y-94254711D01*
X121466071Y-93468997D02*
X121537500Y-93326140D01*
X121680357Y-93254711D01*
X121894642Y-93254711D01*
X122037500Y-93326140D01*
X122108928Y-93468997D01*
X122108928Y-94254711D01*
X122680357Y-93254711D02*
X123037500Y-94254711D01*
X123394642Y-93254711D02*
X123037500Y-94254711D01*
X122894642Y-94611854D01*
X122823214Y-94683282D01*
X122680357Y-94754711D01*
D11*
X100497047Y-101576214D02*
X100497047Y-102242880D01*
X100068476Y-101576214D02*
X100068476Y-102100023D01*
X100116095Y-102195261D01*
X100211333Y-102242880D01*
X100354190Y-102242880D01*
X100449428Y-102195261D01*
X100497047Y-102147642D01*
X101544666Y-102147642D02*
X101497047Y-102195261D01*
X101354190Y-102242880D01*
X101258952Y-102242880D01*
X101116095Y-102195261D01*
X101020857Y-102100023D01*
X100973238Y-102004785D01*
X100925619Y-101814309D01*
X100925619Y-101671452D01*
X100973238Y-101480976D01*
X101020857Y-101385738D01*
X101116095Y-101290500D01*
X101258952Y-101242880D01*
X101354190Y-101242880D01*
X101497047Y-101290500D01*
X101544666Y-101338119D01*
X102735142Y-102242880D02*
X102735142Y-101242880D01*
X103116095Y-101242880D01*
X103211333Y-101290500D01*
X103258952Y-101338119D01*
X103306571Y-101433357D01*
X103306571Y-101576214D01*
X103258952Y-101671452D01*
X103211333Y-101719071D01*
X103116095Y-101766690D01*
X102735142Y-101766690D01*
X103878000Y-102242880D02*
X103782761Y-102195261D01*
X103735142Y-102147642D01*
X103687523Y-102052404D01*
X103687523Y-101766690D01*
X103735142Y-101671452D01*
X103782761Y-101623833D01*
X103878000Y-101576214D01*
X104020857Y-101576214D01*
X104116095Y-101623833D01*
X104163714Y-101671452D01*
X104211333Y-101766690D01*
X104211333Y-102052404D01*
X104163714Y-102147642D01*
X104116095Y-102195261D01*
X104020857Y-102242880D01*
X103878000Y-102242880D01*
X104544666Y-101576214D02*
X104735142Y-102242880D01*
X104925619Y-101766690D01*
X105116095Y-102242880D01*
X105306571Y-101576214D01*
X106068476Y-102195261D02*
X105973238Y-102242880D01*
X105782761Y-102242880D01*
X105687523Y-102195261D01*
X105639904Y-102100023D01*
X105639904Y-101719071D01*
X105687523Y-101623833D01*
X105782761Y-101576214D01*
X105973238Y-101576214D01*
X106068476Y-101623833D01*
X106116095Y-101719071D01*
X106116095Y-101814309D01*
X105639904Y-101909547D01*
X106544666Y-102242880D02*
X106544666Y-101576214D01*
X106544666Y-101766690D02*
X106592285Y-101671452D01*
X106639904Y-101623833D01*
X106735142Y-101576214D01*
X106830380Y-101576214D01*
X112419023Y-105354428D02*
X113180928Y-105354428D01*
X112799976Y-105735380D02*
X112799976Y-104973476D01*
X113609500Y-105449666D02*
X114085690Y-105449666D01*
X113514261Y-105735380D02*
X113847595Y-104735380D01*
X114180928Y-105735380D01*
X115085690Y-105640142D02*
X115038071Y-105687761D01*
X114895214Y-105735380D01*
X114799976Y-105735380D01*
X114657119Y-105687761D01*
X114561880Y-105592523D01*
X114514261Y-105497285D01*
X114466642Y-105306809D01*
X114466642Y-105163952D01*
X114514261Y-104973476D01*
X114561880Y-104878238D01*
X114657119Y-104783000D01*
X114799976Y-104735380D01*
X114895214Y-104735380D01*
X115038071Y-104783000D01*
X115085690Y-104830619D01*
X115371404Y-104735380D02*
X115942833Y-104735380D01*
X115657119Y-105735380D02*
X115657119Y-104735380D01*
D12*
X111685605Y-109728000D02*
G75*
G03*
X111685605Y-109728000I-179605J0D01*
G01*
X95747105Y-121412000D02*
G75*
G03*
X95747105Y-121412000I-179605J0D01*
G01*
X103049605Y-134747000D02*
G75*
G03*
X103049605Y-134747000I-179605J0D01*
G01*
X147118605Y-105029000D02*
G75*
G03*
X147118605Y-105029000I-179605J0D01*
G01*
X147118605Y-111823500D02*
G75*
G03*
X147118605Y-111823500I-179605J0D01*
G01*
X147118605Y-118618000D02*
G75*
G03*
X147118605Y-118618000I-179605J0D01*
G01*
X147118605Y-125349000D02*
G75*
G03*
X147118605Y-125349000I-179605J0D01*
G01*
%TO.C,U4*%
X144464000Y-119690000D02*
X142514000Y-119690000D01*
X144464000Y-119690000D02*
X146414000Y-119690000D01*
X144464000Y-124810000D02*
X142514000Y-124810000D01*
X144464000Y-124810000D02*
X147914000Y-124810000D01*
%TO.C,U3*%
X144461000Y-112934000D02*
X142511000Y-112934000D01*
X144461000Y-112934000D02*
X146411000Y-112934000D01*
X144461000Y-118054000D02*
X142511000Y-118054000D01*
X144461000Y-118054000D02*
X147911000Y-118054000D01*
%TO.C,U2*%
X144461000Y-106152000D02*
X142511000Y-106152000D01*
X144461000Y-106152000D02*
X146411000Y-106152000D01*
X144461000Y-111272000D02*
X142511000Y-111272000D01*
X144461000Y-111272000D02*
X147911000Y-111272000D01*
%TO.C,U1*%
X144461000Y-99370000D02*
X142511000Y-99370000D01*
X144461000Y-99370000D02*
X146411000Y-99370000D01*
X144461000Y-104490000D02*
X142511000Y-104490000D01*
X144461000Y-104490000D02*
X147911000Y-104490000D01*
%TO.C,Y1*%
X126990000Y-106486000D02*
X126990000Y-122461000D01*
X132090000Y-106486000D02*
X126990000Y-106486000D01*
X132090000Y-122461000D02*
X132090000Y-106486000D01*
D11*
%TO.C,U7*%
X112071000Y-110411000D02*
X110796000Y-110411000D01*
X122421000Y-109836000D02*
X121746000Y-109836000D01*
X122421000Y-120186000D02*
X121746000Y-120186000D01*
X112071000Y-120186000D02*
X112746000Y-120186000D01*
X112071000Y-109836000D02*
X112746000Y-109836000D01*
X112071000Y-120186000D02*
X112071000Y-119511000D01*
X122421000Y-120186000D02*
X122421000Y-119511000D01*
X122421000Y-109836000D02*
X122421000Y-110511000D01*
X112071000Y-109836000D02*
X112071000Y-110411000D01*
D12*
%TO.C,U6*%
X100395000Y-134153000D02*
X103845000Y-134153000D01*
X100395000Y-134153000D02*
X98445000Y-134153000D01*
X100395000Y-125283000D02*
X102345000Y-125283000D01*
X100395000Y-125283000D02*
X98445000Y-125283000D01*
%TO.C,U5*%
X96149000Y-118937000D02*
X96149000Y-122387000D01*
X96149000Y-118937000D02*
X96149000Y-116987000D01*
X105019000Y-118937000D02*
X105019000Y-120887000D01*
X105019000Y-118937000D02*
X105019000Y-116987000D01*
%TO.C,R21*%
X117730748Y-128853000D02*
X118253252Y-128853000D01*
X117730748Y-127433000D02*
X118253252Y-127433000D01*
%TO.C,R20*%
X113663252Y-128830000D02*
X113140748Y-128830000D01*
X113663252Y-130250000D02*
X113140748Y-130250000D01*
%TO.C,R19*%
X113158748Y-126694000D02*
X113681252Y-126694000D01*
X113158748Y-125274000D02*
X113681252Y-125274000D01*
%TO.C,R18*%
X113158748Y-124662000D02*
X113681252Y-124662000D01*
X113158748Y-123242000D02*
X113681252Y-123242000D01*
%TO.C,R17*%
X97519748Y-109041000D02*
X98042252Y-109041000D01*
X97519748Y-107621000D02*
X98042252Y-107621000D01*
%TO.C,R16*%
X122039748Y-124662000D02*
X122562252Y-124662000D01*
X122039748Y-123242000D02*
X122562252Y-123242000D01*
%TO.C,R15*%
X136678748Y-127024000D02*
X137201252Y-127024000D01*
X136678748Y-125604000D02*
X137201252Y-125604000D01*
%TO.C,R14*%
X136678748Y-129183000D02*
X137201252Y-129183000D01*
X136678748Y-127763000D02*
X137201252Y-127763000D01*
%TO.C,R13*%
X133463252Y-101588000D02*
X132940748Y-101588000D01*
X133463252Y-103008000D02*
X132940748Y-103008000D01*
%TO.C,R12*%
X109856748Y-104190000D02*
X110379252Y-104190000D01*
X109856748Y-102770000D02*
X110379252Y-102770000D01*
%TO.C,R11*%
X133471252Y-99430000D02*
X132948748Y-99430000D01*
X133471252Y-100850000D02*
X132948748Y-100850000D01*
%TO.C,R10*%
X118371252Y-102770000D02*
X117848748Y-102770000D01*
X118371252Y-104190000D02*
X117848748Y-104190000D01*
%TO.C,R9*%
X123427748Y-132282000D02*
X123950252Y-132282000D01*
X123427748Y-130862000D02*
X123950252Y-130862000D01*
%TO.C,R8*%
X136678748Y-123341000D02*
X137201252Y-123341000D01*
X136678748Y-121921000D02*
X137201252Y-121921000D01*
%TO.C,R7*%
X136678748Y-121182000D02*
X137201252Y-121182000D01*
X136678748Y-119762000D02*
X137201252Y-119762000D01*
%TO.C,R6*%
X136704748Y-116585000D02*
X137227252Y-116585000D01*
X136704748Y-115165000D02*
X137227252Y-115165000D01*
%TO.C,R5*%
X136704748Y-114426000D02*
X137227252Y-114426000D01*
X136704748Y-113006000D02*
X137227252Y-113006000D01*
%TO.C,R4*%
X136813748Y-109803000D02*
X137336252Y-109803000D01*
X136813748Y-108383000D02*
X137336252Y-108383000D01*
%TO.C,R3*%
X136831748Y-107644000D02*
X137354252Y-107644000D01*
X136831748Y-106224000D02*
X137354252Y-106224000D01*
%TO.C,R2*%
X136822748Y-103021000D02*
X137345252Y-103021000D01*
X136822748Y-101601000D02*
X137345252Y-101601000D01*
%TO.C,R1*%
X136813748Y-100862000D02*
X137336252Y-100862000D01*
X136813748Y-99442000D02*
X137336252Y-99442000D01*
%TO.C,Q1*%
X118667000Y-126355000D02*
X117207000Y-126355000D01*
X118667000Y-123195000D02*
X116507000Y-123195000D01*
X118667000Y-123195000D02*
X118667000Y-124125000D01*
X118667000Y-126355000D02*
X118667000Y-125425000D01*
%TO.C,JP1*%
X102693000Y-102480000D02*
X104093000Y-102480000D01*
X104793000Y-103180000D02*
X104793000Y-103780000D01*
X104093000Y-104480000D02*
X102693000Y-104480000D01*
X101993000Y-103780000D02*
X101993000Y-103180000D01*
X101993000Y-103180000D02*
G75*
G02*
X102693000Y-102480000I700000J0D01*
G01*
X102693000Y-104480000D02*
G75*
G02*
X101993000Y-103780000I0J700000D01*
G01*
X104793000Y-103780000D02*
G75*
G02*
X104093000Y-104480000I-700000J0D01*
G01*
X104093000Y-102480000D02*
G75*
G02*
X104793000Y-103180000I0J-700000D01*
G01*
%TO.C,J3*%
X123952000Y-133350000D02*
X123952000Y-134620000D01*
X122682000Y-133350000D02*
X123952000Y-133350000D01*
X112142000Y-135662929D02*
X112142000Y-136060000D01*
X112902000Y-135662929D02*
X112902000Y-136060000D01*
X112142000Y-144720000D02*
X112142000Y-138720000D01*
X112902000Y-144720000D02*
X112142000Y-144720000D01*
X112902000Y-138720000D02*
X112902000Y-144720000D01*
X113792000Y-136060000D02*
X113792000Y-138720000D01*
X114682000Y-135662929D02*
X114682000Y-136060000D01*
X115442000Y-135662929D02*
X115442000Y-136060000D01*
X114682000Y-144720000D02*
X114682000Y-138720000D01*
X115442000Y-144720000D02*
X114682000Y-144720000D01*
X115442000Y-138720000D02*
X115442000Y-144720000D01*
X116332000Y-136060000D02*
X116332000Y-138720000D01*
X117222000Y-135662929D02*
X117222000Y-136060000D01*
X117982000Y-135662929D02*
X117982000Y-136060000D01*
X117222000Y-144720000D02*
X117222000Y-138720000D01*
X117982000Y-144720000D02*
X117222000Y-144720000D01*
X117982000Y-138720000D02*
X117982000Y-144720000D01*
X118872000Y-136060000D02*
X118872000Y-138720000D01*
X119762000Y-135662929D02*
X119762000Y-136060000D01*
X120522000Y-135662929D02*
X120522000Y-136060000D01*
X119762000Y-144720000D02*
X119762000Y-138720000D01*
X120522000Y-144720000D02*
X119762000Y-144720000D01*
X120522000Y-138720000D02*
X120522000Y-144720000D01*
X121412000Y-136060000D02*
X121412000Y-138720000D01*
X122302000Y-135730000D02*
X122302000Y-136060000D01*
X123062000Y-135730000D02*
X123062000Y-136060000D01*
X122402000Y-138720000D02*
X122402000Y-144720000D01*
X122522000Y-138720000D02*
X122522000Y-144720000D01*
X122642000Y-138720000D02*
X122642000Y-144720000D01*
X122762000Y-138720000D02*
X122762000Y-144720000D01*
X122882000Y-138720000D02*
X122882000Y-144720000D01*
X123002000Y-138720000D02*
X123002000Y-144720000D01*
X122302000Y-144720000D02*
X122302000Y-138720000D01*
X123062000Y-144720000D02*
X122302000Y-144720000D01*
X123062000Y-138720000D02*
X123062000Y-144720000D01*
X124012000Y-138720000D02*
X124012000Y-136060000D01*
X111192000Y-138720000D02*
X124012000Y-138720000D01*
X111192000Y-136060000D02*
X111192000Y-138720000D01*
X124012000Y-136060000D02*
X111192000Y-136060000D01*
%TO.C,J2*%
X129032000Y-98044000D02*
X129032000Y-96774000D01*
X130302000Y-98044000D02*
X129032000Y-98044000D01*
X138302000Y-95731071D02*
X138302000Y-95334000D01*
X137542000Y-95731071D02*
X137542000Y-95334000D01*
X138302000Y-86674000D02*
X138302000Y-92674000D01*
X137542000Y-86674000D02*
X138302000Y-86674000D01*
X137542000Y-92674000D02*
X137542000Y-86674000D01*
X136652000Y-95334000D02*
X136652000Y-92674000D01*
X135762000Y-95731071D02*
X135762000Y-95334000D01*
X135002000Y-95731071D02*
X135002000Y-95334000D01*
X135762000Y-86674000D02*
X135762000Y-92674000D01*
X135002000Y-86674000D02*
X135762000Y-86674000D01*
X135002000Y-92674000D02*
X135002000Y-86674000D01*
X134112000Y-95334000D02*
X134112000Y-92674000D01*
X133222000Y-95731071D02*
X133222000Y-95334000D01*
X132462000Y-95731071D02*
X132462000Y-95334000D01*
X133222000Y-86674000D02*
X133222000Y-92674000D01*
X132462000Y-86674000D02*
X133222000Y-86674000D01*
X132462000Y-92674000D02*
X132462000Y-86674000D01*
X131572000Y-95334000D02*
X131572000Y-92674000D01*
X130682000Y-95664000D02*
X130682000Y-95334000D01*
X129922000Y-95664000D02*
X129922000Y-95334000D01*
X130582000Y-92674000D02*
X130582000Y-86674000D01*
X130462000Y-92674000D02*
X130462000Y-86674000D01*
X130342000Y-92674000D02*
X130342000Y-86674000D01*
X130222000Y-92674000D02*
X130222000Y-86674000D01*
X130102000Y-92674000D02*
X130102000Y-86674000D01*
X129982000Y-92674000D02*
X129982000Y-86674000D01*
X130682000Y-86674000D02*
X130682000Y-92674000D01*
X129922000Y-86674000D02*
X130682000Y-86674000D01*
X129922000Y-92674000D02*
X129922000Y-86674000D01*
X128972000Y-92674000D02*
X128972000Y-95334000D01*
X139252000Y-92674000D02*
X128972000Y-92674000D01*
X139252000Y-95334000D02*
X139252000Y-92674000D01*
X128972000Y-95334000D02*
X139252000Y-95334000D01*
D11*
%TO.C,J1*%
X90857605Y-121666000D02*
G75*
G03*
X90857605Y-121666000I-179605J0D01*
G01*
X87630000Y-102743000D02*
X90297000Y-102743000D01*
X87630000Y-121285000D02*
X87630000Y-102743000D01*
X90297000Y-121285000D02*
X87630000Y-121285000D01*
D12*
%TO.C,D2*%
X123061000Y-130104000D02*
X121601000Y-130104000D01*
X123061000Y-126944000D02*
X120901000Y-126944000D01*
X123061000Y-126944000D02*
X123061000Y-127874000D01*
X123061000Y-130104000D02*
X123061000Y-129174000D01*
%TO.C,D1*%
X116024000Y-102520000D02*
X113164000Y-102520000D01*
X116024000Y-104440000D02*
X116024000Y-102520000D01*
X113164000Y-104440000D02*
X116024000Y-104440000D01*
%TO.C,C8*%
X109930000Y-116297252D02*
X109930000Y-115774748D01*
X108510000Y-116297252D02*
X108510000Y-115774748D01*
%TO.C,C7*%
X93496200Y-103944252D02*
X93496200Y-103421748D01*
X92076200Y-103944252D02*
X92076200Y-103421748D01*
%TO.C,C6*%
X119886252Y-130862000D02*
X119363748Y-130862000D01*
X119886252Y-132282000D02*
X119363748Y-132282000D01*
%TO.C,C5*%
X101837748Y-109041000D02*
X102360252Y-109041000D01*
X101837748Y-107621000D02*
X102360252Y-107621000D01*
%TO.C,C4*%
X134060000Y-121791252D02*
X134060000Y-121268748D01*
X132640000Y-121791252D02*
X132640000Y-121268748D01*
%TO.C,C3*%
X132640000Y-112632748D02*
X132640000Y-113155252D01*
X134060000Y-112632748D02*
X134060000Y-113155252D01*
%TO.C,C2*%
X125805000Y-115586252D02*
X125805000Y-115063748D01*
X124385000Y-115586252D02*
X124385000Y-115063748D01*
%TO.C,C1*%
X96671200Y-103944252D02*
X96671200Y-103421748D01*
X95251200Y-103944252D02*
X95251200Y-103421748D01*
%TO.C,U4*%
D11*
X143702095Y-125102380D02*
X143702095Y-125911904D01*
X143749714Y-126007142D01*
X143797333Y-126054761D01*
X143892571Y-126102380D01*
X144083047Y-126102380D01*
X144178285Y-126054761D01*
X144225904Y-126007142D01*
X144273523Y-125911904D01*
X144273523Y-125102380D01*
X145178285Y-125435714D02*
X145178285Y-126102380D01*
X144940190Y-125054761D02*
X144702095Y-125769047D01*
X145321142Y-125769047D01*
%TO.C,U3*%
X143699095Y-118346380D02*
X143699095Y-119155904D01*
X143746714Y-119251142D01*
X143794333Y-119298761D01*
X143889571Y-119346380D01*
X144080047Y-119346380D01*
X144175285Y-119298761D01*
X144222904Y-119251142D01*
X144270523Y-119155904D01*
X144270523Y-118346380D01*
X144651476Y-118346380D02*
X145270523Y-118346380D01*
X144937190Y-118727333D01*
X145080047Y-118727333D01*
X145175285Y-118774952D01*
X145222904Y-118822571D01*
X145270523Y-118917809D01*
X145270523Y-119155904D01*
X145222904Y-119251142D01*
X145175285Y-119298761D01*
X145080047Y-119346380D01*
X144794333Y-119346380D01*
X144699095Y-119298761D01*
X144651476Y-119251142D01*
%TO.C,U2*%
X143699095Y-111564380D02*
X143699095Y-112373904D01*
X143746714Y-112469142D01*
X143794333Y-112516761D01*
X143889571Y-112564380D01*
X144080047Y-112564380D01*
X144175285Y-112516761D01*
X144222904Y-112469142D01*
X144270523Y-112373904D01*
X144270523Y-111564380D01*
X144699095Y-111659619D02*
X144746714Y-111612000D01*
X144841952Y-111564380D01*
X145080047Y-111564380D01*
X145175285Y-111612000D01*
X145222904Y-111659619D01*
X145270523Y-111754857D01*
X145270523Y-111850095D01*
X145222904Y-111992952D01*
X144651476Y-112564380D01*
X145270523Y-112564380D01*
%TO.C,U1*%
X143699095Y-104782380D02*
X143699095Y-105591904D01*
X143746714Y-105687142D01*
X143794333Y-105734761D01*
X143889571Y-105782380D01*
X144080047Y-105782380D01*
X144175285Y-105734761D01*
X144222904Y-105687142D01*
X144270523Y-105591904D01*
X144270523Y-104782380D01*
X145270523Y-105782380D02*
X144699095Y-105782380D01*
X144984809Y-105782380D02*
X144984809Y-104782380D01*
X144889571Y-104925238D01*
X144794333Y-105020476D01*
X144699095Y-105068095D01*
%TO.C,Y1*%
X133066190Y-117037190D02*
X133542380Y-117037190D01*
X132542380Y-117370523D02*
X133066190Y-117037190D01*
X132542380Y-116703857D01*
X133542380Y-115846714D02*
X133542380Y-116418142D01*
X133542380Y-116132428D02*
X132542380Y-116132428D01*
X132685238Y-116227666D01*
X132780476Y-116322904D01*
X132828095Y-116418142D01*
%TO.C,U7*%
X116484095Y-107013380D02*
X116484095Y-107822904D01*
X116531714Y-107918142D01*
X116579333Y-107965761D01*
X116674571Y-108013380D01*
X116865047Y-108013380D01*
X116960285Y-107965761D01*
X117007904Y-107918142D01*
X117055523Y-107822904D01*
X117055523Y-107013380D01*
X117436476Y-107013380D02*
X118103142Y-107013380D01*
X117674571Y-108013380D01*
%TO.C,U6*%
X99633095Y-134450380D02*
X99633095Y-135259904D01*
X99680714Y-135355142D01*
X99728333Y-135402761D01*
X99823571Y-135450380D01*
X100014047Y-135450380D01*
X100109285Y-135402761D01*
X100156904Y-135355142D01*
X100204523Y-135259904D01*
X100204523Y-134450380D01*
X101109285Y-134450380D02*
X100918809Y-134450380D01*
X100823571Y-134498000D01*
X100775952Y-134545619D01*
X100680714Y-134688476D01*
X100633095Y-134878952D01*
X100633095Y-135259904D01*
X100680714Y-135355142D01*
X100728333Y-135402761D01*
X100823571Y-135450380D01*
X101014047Y-135450380D01*
X101109285Y-135402761D01*
X101156904Y-135355142D01*
X101204523Y-135259904D01*
X101204523Y-135021809D01*
X101156904Y-134926571D01*
X101109285Y-134878952D01*
X101014047Y-134831333D01*
X100823571Y-134831333D01*
X100728333Y-134878952D01*
X100680714Y-134926571D01*
X100633095Y-135021809D01*
%TO.C,U5*%
X94756380Y-119698904D02*
X95565904Y-119698904D01*
X95661142Y-119651285D01*
X95708761Y-119603666D01*
X95756380Y-119508428D01*
X95756380Y-119317952D01*
X95708761Y-119222714D01*
X95661142Y-119175095D01*
X95565904Y-119127476D01*
X94756380Y-119127476D01*
X94756380Y-118175095D02*
X94756380Y-118651285D01*
X95232571Y-118698904D01*
X95184952Y-118651285D01*
X95137333Y-118556047D01*
X95137333Y-118317952D01*
X95184952Y-118222714D01*
X95232571Y-118175095D01*
X95327809Y-118127476D01*
X95565904Y-118127476D01*
X95661142Y-118175095D01*
X95708761Y-118222714D01*
X95756380Y-118317952D01*
X95756380Y-118556047D01*
X95708761Y-118651285D01*
X95661142Y-118698904D01*
%TO.C,R21*%
X117213142Y-130246380D02*
X116879809Y-129770190D01*
X116641714Y-130246380D02*
X116641714Y-129246380D01*
X117022666Y-129246380D01*
X117117904Y-129294000D01*
X117165523Y-129341619D01*
X117213142Y-129436857D01*
X117213142Y-129579714D01*
X117165523Y-129674952D01*
X117117904Y-129722571D01*
X117022666Y-129770190D01*
X116641714Y-129770190D01*
X117594095Y-129341619D02*
X117641714Y-129294000D01*
X117736952Y-129246380D01*
X117975047Y-129246380D01*
X118070285Y-129294000D01*
X118117904Y-129341619D01*
X118165523Y-129436857D01*
X118165523Y-129532095D01*
X118117904Y-129674952D01*
X117546476Y-130246380D01*
X118165523Y-130246380D01*
X119117904Y-130246380D02*
X118546476Y-130246380D01*
X118832190Y-130246380D02*
X118832190Y-129246380D01*
X118736952Y-129389238D01*
X118641714Y-129484476D01*
X118546476Y-129532095D01*
%TO.C,R20*%
X112759142Y-131642380D02*
X112425809Y-131166190D01*
X112187714Y-131642380D02*
X112187714Y-130642380D01*
X112568666Y-130642380D01*
X112663904Y-130690000D01*
X112711523Y-130737619D01*
X112759142Y-130832857D01*
X112759142Y-130975714D01*
X112711523Y-131070952D01*
X112663904Y-131118571D01*
X112568666Y-131166190D01*
X112187714Y-131166190D01*
X113140095Y-130737619D02*
X113187714Y-130690000D01*
X113282952Y-130642380D01*
X113521047Y-130642380D01*
X113616285Y-130690000D01*
X113663904Y-130737619D01*
X113711523Y-130832857D01*
X113711523Y-130928095D01*
X113663904Y-131070952D01*
X113092476Y-131642380D01*
X113711523Y-131642380D01*
X114330571Y-130642380D02*
X114425809Y-130642380D01*
X114521047Y-130690000D01*
X114568666Y-130737619D01*
X114616285Y-130832857D01*
X114663904Y-131023333D01*
X114663904Y-131261428D01*
X114616285Y-131451904D01*
X114568666Y-131547142D01*
X114521047Y-131594761D01*
X114425809Y-131642380D01*
X114330571Y-131642380D01*
X114235333Y-131594761D01*
X114187714Y-131547142D01*
X114140095Y-131451904D01*
X114092476Y-131261428D01*
X114092476Y-131023333D01*
X114140095Y-130832857D01*
X114187714Y-130737619D01*
X114235333Y-130690000D01*
X114330571Y-130642380D01*
%TO.C,R19*%
X112904142Y-128087380D02*
X112570809Y-127611190D01*
X112332714Y-128087380D02*
X112332714Y-127087380D01*
X112713666Y-127087380D01*
X112808904Y-127135000D01*
X112856523Y-127182619D01*
X112904142Y-127277857D01*
X112904142Y-127420714D01*
X112856523Y-127515952D01*
X112808904Y-127563571D01*
X112713666Y-127611190D01*
X112332714Y-127611190D01*
X113856523Y-128087380D02*
X113285095Y-128087380D01*
X113570809Y-128087380D02*
X113570809Y-127087380D01*
X113475571Y-127230238D01*
X113380333Y-127325476D01*
X113285095Y-127373095D01*
X114332714Y-128087380D02*
X114523190Y-128087380D01*
X114618428Y-128039761D01*
X114666047Y-127992142D01*
X114761285Y-127849285D01*
X114808904Y-127658809D01*
X114808904Y-127277857D01*
X114761285Y-127182619D01*
X114713666Y-127135000D01*
X114618428Y-127087380D01*
X114427952Y-127087380D01*
X114332714Y-127135000D01*
X114285095Y-127182619D01*
X114237476Y-127277857D01*
X114237476Y-127515952D01*
X114285095Y-127611190D01*
X114332714Y-127658809D01*
X114427952Y-127706428D01*
X114618428Y-127706428D01*
X114713666Y-127658809D01*
X114761285Y-127611190D01*
X114808904Y-127515952D01*
%TO.C,R18*%
X112905714Y-122789904D02*
X112639047Y-122408952D01*
X112448571Y-122789904D02*
X112448571Y-121989904D01*
X112753333Y-121989904D01*
X112829523Y-122028000D01*
X112867619Y-122066095D01*
X112905714Y-122142285D01*
X112905714Y-122256571D01*
X112867619Y-122332761D01*
X112829523Y-122370857D01*
X112753333Y-122408952D01*
X112448571Y-122408952D01*
X113667619Y-122789904D02*
X113210476Y-122789904D01*
X113439047Y-122789904D02*
X113439047Y-121989904D01*
X113362857Y-122104190D01*
X113286666Y-122180380D01*
X113210476Y-122218476D01*
X114124761Y-122332761D02*
X114048571Y-122294666D01*
X114010476Y-122256571D01*
X113972380Y-122180380D01*
X113972380Y-122142285D01*
X114010476Y-122066095D01*
X114048571Y-122028000D01*
X114124761Y-121989904D01*
X114277142Y-121989904D01*
X114353333Y-122028000D01*
X114391428Y-122066095D01*
X114429523Y-122142285D01*
X114429523Y-122180380D01*
X114391428Y-122256571D01*
X114353333Y-122294666D01*
X114277142Y-122332761D01*
X114124761Y-122332761D01*
X114048571Y-122370857D01*
X114010476Y-122408952D01*
X113972380Y-122485142D01*
X113972380Y-122637523D01*
X114010476Y-122713714D01*
X114048571Y-122751809D01*
X114124761Y-122789904D01*
X114277142Y-122789904D01*
X114353333Y-122751809D01*
X114391428Y-122713714D01*
X114429523Y-122637523D01*
X114429523Y-122485142D01*
X114391428Y-122408952D01*
X114353333Y-122370857D01*
X114277142Y-122332761D01*
%TO.C,R17*%
X97147142Y-110434380D02*
X96813809Y-109958190D01*
X96575714Y-110434380D02*
X96575714Y-109434380D01*
X96956666Y-109434380D01*
X97051904Y-109482000D01*
X97099523Y-109529619D01*
X97147142Y-109624857D01*
X97147142Y-109767714D01*
X97099523Y-109862952D01*
X97051904Y-109910571D01*
X96956666Y-109958190D01*
X96575714Y-109958190D01*
X98099523Y-110434380D02*
X97528095Y-110434380D01*
X97813809Y-110434380D02*
X97813809Y-109434380D01*
X97718571Y-109577238D01*
X97623333Y-109672476D01*
X97528095Y-109720095D01*
X98432857Y-109434380D02*
X99099523Y-109434380D01*
X98670952Y-110434380D01*
%TO.C,R16*%
X121786714Y-122789904D02*
X121520047Y-122408952D01*
X121329571Y-122789904D02*
X121329571Y-121989904D01*
X121634333Y-121989904D01*
X121710523Y-122028000D01*
X121748619Y-122066095D01*
X121786714Y-122142285D01*
X121786714Y-122256571D01*
X121748619Y-122332761D01*
X121710523Y-122370857D01*
X121634333Y-122408952D01*
X121329571Y-122408952D01*
X122548619Y-122789904D02*
X122091476Y-122789904D01*
X122320047Y-122789904D02*
X122320047Y-121989904D01*
X122243857Y-122104190D01*
X122167666Y-122180380D01*
X122091476Y-122218476D01*
X123234333Y-121989904D02*
X123081952Y-121989904D01*
X123005761Y-122028000D01*
X122967666Y-122066095D01*
X122891476Y-122180380D01*
X122853380Y-122332761D01*
X122853380Y-122637523D01*
X122891476Y-122713714D01*
X122929571Y-122751809D01*
X123005761Y-122789904D01*
X123158142Y-122789904D01*
X123234333Y-122751809D01*
X123272428Y-122713714D01*
X123310523Y-122637523D01*
X123310523Y-122447047D01*
X123272428Y-122370857D01*
X123234333Y-122332761D01*
X123158142Y-122294666D01*
X123005761Y-122294666D01*
X122929571Y-122332761D01*
X122891476Y-122370857D01*
X122853380Y-122447047D01*
%TO.C,R15*%
X139565142Y-126944380D02*
X139231809Y-126468190D01*
X138993714Y-126944380D02*
X138993714Y-125944380D01*
X139374666Y-125944380D01*
X139469904Y-125992000D01*
X139517523Y-126039619D01*
X139565142Y-126134857D01*
X139565142Y-126277714D01*
X139517523Y-126372952D01*
X139469904Y-126420571D01*
X139374666Y-126468190D01*
X138993714Y-126468190D01*
X140517523Y-126944380D02*
X139946095Y-126944380D01*
X140231809Y-126944380D02*
X140231809Y-125944380D01*
X140136571Y-126087238D01*
X140041333Y-126182476D01*
X139946095Y-126230095D01*
X141422285Y-125944380D02*
X140946095Y-125944380D01*
X140898476Y-126420571D01*
X140946095Y-126372952D01*
X141041333Y-126325333D01*
X141279428Y-126325333D01*
X141374666Y-126372952D01*
X141422285Y-126420571D01*
X141469904Y-126515809D01*
X141469904Y-126753904D01*
X141422285Y-126849142D01*
X141374666Y-126896761D01*
X141279428Y-126944380D01*
X141041333Y-126944380D01*
X140946095Y-126896761D01*
X140898476Y-126849142D01*
%TO.C,R14*%
X139565142Y-128976380D02*
X139231809Y-128500190D01*
X138993714Y-128976380D02*
X138993714Y-127976380D01*
X139374666Y-127976380D01*
X139469904Y-128024000D01*
X139517523Y-128071619D01*
X139565142Y-128166857D01*
X139565142Y-128309714D01*
X139517523Y-128404952D01*
X139469904Y-128452571D01*
X139374666Y-128500190D01*
X138993714Y-128500190D01*
X140517523Y-128976380D02*
X139946095Y-128976380D01*
X140231809Y-128976380D02*
X140231809Y-127976380D01*
X140136571Y-128119238D01*
X140041333Y-128214476D01*
X139946095Y-128262095D01*
X141374666Y-128309714D02*
X141374666Y-128976380D01*
X141136571Y-127928761D02*
X140898476Y-128643047D01*
X141517523Y-128643047D01*
%TO.C,R13*%
X129278642Y-102750380D02*
X128945309Y-102274190D01*
X128707214Y-102750380D02*
X128707214Y-101750380D01*
X129088166Y-101750380D01*
X129183404Y-101798000D01*
X129231023Y-101845619D01*
X129278642Y-101940857D01*
X129278642Y-102083714D01*
X129231023Y-102178952D01*
X129183404Y-102226571D01*
X129088166Y-102274190D01*
X128707214Y-102274190D01*
X130231023Y-102750380D02*
X129659595Y-102750380D01*
X129945309Y-102750380D02*
X129945309Y-101750380D01*
X129850071Y-101893238D01*
X129754833Y-101988476D01*
X129659595Y-102036095D01*
X130564357Y-101750380D02*
X131183404Y-101750380D01*
X130850071Y-102131333D01*
X130992928Y-102131333D01*
X131088166Y-102178952D01*
X131135785Y-102226571D01*
X131183404Y-102321809D01*
X131183404Y-102559904D01*
X131135785Y-102655142D01*
X131088166Y-102702761D01*
X130992928Y-102750380D01*
X130707214Y-102750380D01*
X130611976Y-102702761D01*
X130564357Y-102655142D01*
%TO.C,R12*%
X109466142Y-105608380D02*
X109132809Y-105132190D01*
X108894714Y-105608380D02*
X108894714Y-104608380D01*
X109275666Y-104608380D01*
X109370904Y-104656000D01*
X109418523Y-104703619D01*
X109466142Y-104798857D01*
X109466142Y-104941714D01*
X109418523Y-105036952D01*
X109370904Y-105084571D01*
X109275666Y-105132190D01*
X108894714Y-105132190D01*
X110418523Y-105608380D02*
X109847095Y-105608380D01*
X110132809Y-105608380D02*
X110132809Y-104608380D01*
X110037571Y-104751238D01*
X109942333Y-104846476D01*
X109847095Y-104894095D01*
X110799476Y-104703619D02*
X110847095Y-104656000D01*
X110942333Y-104608380D01*
X111180428Y-104608380D01*
X111275666Y-104656000D01*
X111323285Y-104703619D01*
X111370904Y-104798857D01*
X111370904Y-104894095D01*
X111323285Y-105036952D01*
X110751857Y-105608380D01*
X111370904Y-105608380D01*
%TO.C,R11*%
X129278142Y-100655380D02*
X128944809Y-100179190D01*
X128706714Y-100655380D02*
X128706714Y-99655380D01*
X129087666Y-99655380D01*
X129182904Y-99703000D01*
X129230523Y-99750619D01*
X129278142Y-99845857D01*
X129278142Y-99988714D01*
X129230523Y-100083952D01*
X129182904Y-100131571D01*
X129087666Y-100179190D01*
X128706714Y-100179190D01*
X130230523Y-100655380D02*
X129659095Y-100655380D01*
X129944809Y-100655380D02*
X129944809Y-99655380D01*
X129849571Y-99798238D01*
X129754333Y-99893476D01*
X129659095Y-99941095D01*
X131182904Y-100655380D02*
X130611476Y-100655380D01*
X130897190Y-100655380D02*
X130897190Y-99655380D01*
X130801952Y-99798238D01*
X130706714Y-99893476D01*
X130611476Y-99941095D01*
%TO.C,R10*%
X117467142Y-105582380D02*
X117133809Y-105106190D01*
X116895714Y-105582380D02*
X116895714Y-104582380D01*
X117276666Y-104582380D01*
X117371904Y-104630000D01*
X117419523Y-104677619D01*
X117467142Y-104772857D01*
X117467142Y-104915714D01*
X117419523Y-105010952D01*
X117371904Y-105058571D01*
X117276666Y-105106190D01*
X116895714Y-105106190D01*
X118419523Y-105582380D02*
X117848095Y-105582380D01*
X118133809Y-105582380D02*
X118133809Y-104582380D01*
X118038571Y-104725238D01*
X117943333Y-104820476D01*
X117848095Y-104868095D01*
X119038571Y-104582380D02*
X119133809Y-104582380D01*
X119229047Y-104630000D01*
X119276666Y-104677619D01*
X119324285Y-104772857D01*
X119371904Y-104963333D01*
X119371904Y-105201428D01*
X119324285Y-105391904D01*
X119276666Y-105487142D01*
X119229047Y-105534761D01*
X119133809Y-105582380D01*
X119038571Y-105582380D01*
X118943333Y-105534761D01*
X118895714Y-105487142D01*
X118848095Y-105391904D01*
X118800476Y-105201428D01*
X118800476Y-104963333D01*
X118848095Y-104772857D01*
X118895714Y-104677619D01*
X118943333Y-104630000D01*
X119038571Y-104582380D01*
%TO.C,R8*%
X139533333Y-123134380D02*
X139200000Y-122658190D01*
X138961904Y-123134380D02*
X138961904Y-122134380D01*
X139342857Y-122134380D01*
X139438095Y-122182000D01*
X139485714Y-122229619D01*
X139533333Y-122324857D01*
X139533333Y-122467714D01*
X139485714Y-122562952D01*
X139438095Y-122610571D01*
X139342857Y-122658190D01*
X138961904Y-122658190D01*
X140104761Y-122562952D02*
X140009523Y-122515333D01*
X139961904Y-122467714D01*
X139914285Y-122372476D01*
X139914285Y-122324857D01*
X139961904Y-122229619D01*
X140009523Y-122182000D01*
X140104761Y-122134380D01*
X140295238Y-122134380D01*
X140390476Y-122182000D01*
X140438095Y-122229619D01*
X140485714Y-122324857D01*
X140485714Y-122372476D01*
X140438095Y-122467714D01*
X140390476Y-122515333D01*
X140295238Y-122562952D01*
X140104761Y-122562952D01*
X140009523Y-122610571D01*
X139961904Y-122658190D01*
X139914285Y-122753428D01*
X139914285Y-122943904D01*
X139961904Y-123039142D01*
X140009523Y-123086761D01*
X140104761Y-123134380D01*
X140295238Y-123134380D01*
X140390476Y-123086761D01*
X140438095Y-123039142D01*
X140485714Y-122943904D01*
X140485714Y-122753428D01*
X140438095Y-122658190D01*
X140390476Y-122610571D01*
X140295238Y-122562952D01*
%TO.C,R7*%
X139533333Y-121102380D02*
X139200000Y-120626190D01*
X138961904Y-121102380D02*
X138961904Y-120102380D01*
X139342857Y-120102380D01*
X139438095Y-120150000D01*
X139485714Y-120197619D01*
X139533333Y-120292857D01*
X139533333Y-120435714D01*
X139485714Y-120530952D01*
X139438095Y-120578571D01*
X139342857Y-120626190D01*
X138961904Y-120626190D01*
X139866666Y-120102380D02*
X140533333Y-120102380D01*
X140104761Y-121102380D01*
%TO.C,R6*%
X139533333Y-116276380D02*
X139200000Y-115800190D01*
X138961904Y-116276380D02*
X138961904Y-115276380D01*
X139342857Y-115276380D01*
X139438095Y-115324000D01*
X139485714Y-115371619D01*
X139533333Y-115466857D01*
X139533333Y-115609714D01*
X139485714Y-115704952D01*
X139438095Y-115752571D01*
X139342857Y-115800190D01*
X138961904Y-115800190D01*
X140390476Y-115276380D02*
X140200000Y-115276380D01*
X140104761Y-115324000D01*
X140057142Y-115371619D01*
X139961904Y-115514476D01*
X139914285Y-115704952D01*
X139914285Y-116085904D01*
X139961904Y-116181142D01*
X140009523Y-116228761D01*
X140104761Y-116276380D01*
X140295238Y-116276380D01*
X140390476Y-116228761D01*
X140438095Y-116181142D01*
X140485714Y-116085904D01*
X140485714Y-115847809D01*
X140438095Y-115752571D01*
X140390476Y-115704952D01*
X140295238Y-115657333D01*
X140104761Y-115657333D01*
X140009523Y-115704952D01*
X139961904Y-115752571D01*
X139914285Y-115847809D01*
%TO.C,R5*%
X139533333Y-114244380D02*
X139200000Y-113768190D01*
X138961904Y-114244380D02*
X138961904Y-113244380D01*
X139342857Y-113244380D01*
X139438095Y-113292000D01*
X139485714Y-113339619D01*
X139533333Y-113434857D01*
X139533333Y-113577714D01*
X139485714Y-113672952D01*
X139438095Y-113720571D01*
X139342857Y-113768190D01*
X138961904Y-113768190D01*
X140438095Y-113244380D02*
X139961904Y-113244380D01*
X139914285Y-113720571D01*
X139961904Y-113672952D01*
X140057142Y-113625333D01*
X140295238Y-113625333D01*
X140390476Y-113672952D01*
X140438095Y-113720571D01*
X140485714Y-113815809D01*
X140485714Y-114053904D01*
X140438095Y-114149142D01*
X140390476Y-114196761D01*
X140295238Y-114244380D01*
X140057142Y-114244380D01*
X139961904Y-114196761D01*
X139914285Y-114149142D01*
%TO.C,R4*%
X139660333Y-109545380D02*
X139327000Y-109069190D01*
X139088904Y-109545380D02*
X139088904Y-108545380D01*
X139469857Y-108545380D01*
X139565095Y-108593000D01*
X139612714Y-108640619D01*
X139660333Y-108735857D01*
X139660333Y-108878714D01*
X139612714Y-108973952D01*
X139565095Y-109021571D01*
X139469857Y-109069190D01*
X139088904Y-109069190D01*
X140517476Y-108878714D02*
X140517476Y-109545380D01*
X140279380Y-108497761D02*
X140041285Y-109212047D01*
X140660333Y-109212047D01*
%TO.C,R3*%
X139660333Y-107386380D02*
X139327000Y-106910190D01*
X139088904Y-107386380D02*
X139088904Y-106386380D01*
X139469857Y-106386380D01*
X139565095Y-106434000D01*
X139612714Y-106481619D01*
X139660333Y-106576857D01*
X139660333Y-106719714D01*
X139612714Y-106814952D01*
X139565095Y-106862571D01*
X139469857Y-106910190D01*
X139088904Y-106910190D01*
X139993666Y-106386380D02*
X140612714Y-106386380D01*
X140279380Y-106767333D01*
X140422238Y-106767333D01*
X140517476Y-106814952D01*
X140565095Y-106862571D01*
X140612714Y-106957809D01*
X140612714Y-107195904D01*
X140565095Y-107291142D01*
X140517476Y-107338761D01*
X140422238Y-107386380D01*
X140136523Y-107386380D01*
X140041285Y-107338761D01*
X139993666Y-107291142D01*
%TO.C,R2*%
X139660333Y-102750880D02*
X139327000Y-102274690D01*
X139088904Y-102750880D02*
X139088904Y-101750880D01*
X139469857Y-101750880D01*
X139565095Y-101798500D01*
X139612714Y-101846119D01*
X139660333Y-101941357D01*
X139660333Y-102084214D01*
X139612714Y-102179452D01*
X139565095Y-102227071D01*
X139469857Y-102274690D01*
X139088904Y-102274690D01*
X140041285Y-101846119D02*
X140088904Y-101798500D01*
X140184142Y-101750880D01*
X140422238Y-101750880D01*
X140517476Y-101798500D01*
X140565095Y-101846119D01*
X140612714Y-101941357D01*
X140612714Y-102036595D01*
X140565095Y-102179452D01*
X139993666Y-102750880D01*
X140612714Y-102750880D01*
%TO.C,R1*%
X139660333Y-100718880D02*
X139327000Y-100242690D01*
X139088904Y-100718880D02*
X139088904Y-99718880D01*
X139469857Y-99718880D01*
X139565095Y-99766500D01*
X139612714Y-99814119D01*
X139660333Y-99909357D01*
X139660333Y-100052214D01*
X139612714Y-100147452D01*
X139565095Y-100195071D01*
X139469857Y-100242690D01*
X139088904Y-100242690D01*
X140612714Y-100718880D02*
X140041285Y-100718880D01*
X140327000Y-100718880D02*
X140327000Y-99718880D01*
X140231761Y-99861738D01*
X140136523Y-99956976D01*
X140041285Y-100004595D01*
%TO.C,Q1*%
X117779809Y-122866095D02*
X117703619Y-122828000D01*
X117627428Y-122751809D01*
X117513142Y-122637523D01*
X117436952Y-122599428D01*
X117360761Y-122599428D01*
X117398857Y-122789904D02*
X117322666Y-122751809D01*
X117246476Y-122675619D01*
X117208380Y-122523238D01*
X117208380Y-122256571D01*
X117246476Y-122104190D01*
X117322666Y-122028000D01*
X117398857Y-121989904D01*
X117551238Y-121989904D01*
X117627428Y-122028000D01*
X117703619Y-122104190D01*
X117741714Y-122256571D01*
X117741714Y-122523238D01*
X117703619Y-122675619D01*
X117627428Y-122751809D01*
X117551238Y-122789904D01*
X117398857Y-122789904D01*
X118503619Y-122789904D02*
X118046476Y-122789904D01*
X118275047Y-122789904D02*
X118275047Y-121989904D01*
X118198857Y-122104190D01*
X118122666Y-122180380D01*
X118046476Y-122218476D01*
%TO.C,J2*%
X127214380Y-97488333D02*
X127928666Y-97488333D01*
X128071523Y-97535952D01*
X128166761Y-97631190D01*
X128214380Y-97774047D01*
X128214380Y-97869285D01*
X127309619Y-97059761D02*
X127262000Y-97012142D01*
X127214380Y-96916904D01*
X127214380Y-96678809D01*
X127262000Y-96583571D01*
X127309619Y-96535952D01*
X127404857Y-96488333D01*
X127500095Y-96488333D01*
X127642952Y-96535952D01*
X128214380Y-97107380D01*
X128214380Y-96488333D01*
%TO.C,D2*%
X121562904Y-126476380D02*
X121562904Y-125476380D01*
X121801000Y-125476380D01*
X121943857Y-125524000D01*
X122039095Y-125619238D01*
X122086714Y-125714476D01*
X122134333Y-125904952D01*
X122134333Y-126047809D01*
X122086714Y-126238285D01*
X122039095Y-126333523D01*
X121943857Y-126428761D01*
X121801000Y-126476380D01*
X121562904Y-126476380D01*
X122515285Y-125571619D02*
X122562904Y-125524000D01*
X122658142Y-125476380D01*
X122896238Y-125476380D01*
X122991476Y-125524000D01*
X123039095Y-125571619D01*
X123086714Y-125666857D01*
X123086714Y-125762095D01*
X123039095Y-125904952D01*
X122467666Y-126476380D01*
X123086714Y-126476380D01*
%TO.C,C8*%
X107927142Y-116202666D02*
X107974761Y-116250285D01*
X108022380Y-116393142D01*
X108022380Y-116488380D01*
X107974761Y-116631238D01*
X107879523Y-116726476D01*
X107784285Y-116774095D01*
X107593809Y-116821714D01*
X107450952Y-116821714D01*
X107260476Y-116774095D01*
X107165238Y-116726476D01*
X107070000Y-116631238D01*
X107022380Y-116488380D01*
X107022380Y-116393142D01*
X107070000Y-116250285D01*
X107117619Y-116202666D01*
X107450952Y-115631238D02*
X107403333Y-115726476D01*
X107355714Y-115774095D01*
X107260476Y-115821714D01*
X107212857Y-115821714D01*
X107117619Y-115774095D01*
X107070000Y-115726476D01*
X107022380Y-115631238D01*
X107022380Y-115440761D01*
X107070000Y-115345523D01*
X107117619Y-115297904D01*
X107212857Y-115250285D01*
X107260476Y-115250285D01*
X107355714Y-115297904D01*
X107403333Y-115345523D01*
X107450952Y-115440761D01*
X107450952Y-115631238D01*
X107498571Y-115726476D01*
X107546190Y-115774095D01*
X107641428Y-115821714D01*
X107831904Y-115821714D01*
X107927142Y-115774095D01*
X107974761Y-115726476D01*
X108022380Y-115631238D01*
X108022380Y-115440761D01*
X107974761Y-115345523D01*
X107927142Y-115297904D01*
X107831904Y-115250285D01*
X107641428Y-115250285D01*
X107546190Y-115297904D01*
X107498571Y-115345523D01*
X107450952Y-115440761D01*
%TO.C,C7*%
X93194142Y-101004666D02*
X93241761Y-101052285D01*
X93289380Y-101195142D01*
X93289380Y-101290380D01*
X93241761Y-101433238D01*
X93146523Y-101528476D01*
X93051285Y-101576095D01*
X92860809Y-101623714D01*
X92717952Y-101623714D01*
X92527476Y-101576095D01*
X92432238Y-101528476D01*
X92337000Y-101433238D01*
X92289380Y-101290380D01*
X92289380Y-101195142D01*
X92337000Y-101052285D01*
X92384619Y-101004666D01*
X92289380Y-100671333D02*
X92289380Y-100004666D01*
X93289380Y-100433238D01*
%TO.C,C6*%
X116673333Y-131929142D02*
X116625714Y-131976761D01*
X116482857Y-132024380D01*
X116387619Y-132024380D01*
X116244761Y-131976761D01*
X116149523Y-131881523D01*
X116101904Y-131786285D01*
X116054285Y-131595809D01*
X116054285Y-131452952D01*
X116101904Y-131262476D01*
X116149523Y-131167238D01*
X116244761Y-131072000D01*
X116387619Y-131024380D01*
X116482857Y-131024380D01*
X116625714Y-131072000D01*
X116673333Y-131119619D01*
X117530476Y-131024380D02*
X117340000Y-131024380D01*
X117244761Y-131072000D01*
X117197142Y-131119619D01*
X117101904Y-131262476D01*
X117054285Y-131452952D01*
X117054285Y-131833904D01*
X117101904Y-131929142D01*
X117149523Y-131976761D01*
X117244761Y-132024380D01*
X117435238Y-132024380D01*
X117530476Y-131976761D01*
X117578095Y-131929142D01*
X117625714Y-131833904D01*
X117625714Y-131595809D01*
X117578095Y-131500571D01*
X117530476Y-131452952D01*
X117435238Y-131405333D01*
X117244761Y-131405333D01*
X117149523Y-131452952D01*
X117101904Y-131500571D01*
X117054285Y-131595809D01*
%TO.C,C5*%
X101932333Y-110339142D02*
X101884714Y-110386761D01*
X101741857Y-110434380D01*
X101646619Y-110434380D01*
X101503761Y-110386761D01*
X101408523Y-110291523D01*
X101360904Y-110196285D01*
X101313285Y-110005809D01*
X101313285Y-109862952D01*
X101360904Y-109672476D01*
X101408523Y-109577238D01*
X101503761Y-109482000D01*
X101646619Y-109434380D01*
X101741857Y-109434380D01*
X101884714Y-109482000D01*
X101932333Y-109529619D01*
X102837095Y-109434380D02*
X102360904Y-109434380D01*
X102313285Y-109910571D01*
X102360904Y-109862952D01*
X102456142Y-109815333D01*
X102694238Y-109815333D01*
X102789476Y-109862952D01*
X102837095Y-109910571D01*
X102884714Y-110005809D01*
X102884714Y-110243904D01*
X102837095Y-110339142D01*
X102789476Y-110386761D01*
X102694238Y-110434380D01*
X102456142Y-110434380D01*
X102360904Y-110386761D01*
X102313285Y-110339142D01*
%TO.C,C4*%
X133707142Y-124626666D02*
X133754761Y-124674285D01*
X133802380Y-124817142D01*
X133802380Y-124912380D01*
X133754761Y-125055238D01*
X133659523Y-125150476D01*
X133564285Y-125198095D01*
X133373809Y-125245714D01*
X133230952Y-125245714D01*
X133040476Y-125198095D01*
X132945238Y-125150476D01*
X132850000Y-125055238D01*
X132802380Y-124912380D01*
X132802380Y-124817142D01*
X132850000Y-124674285D01*
X132897619Y-124626666D01*
X133135714Y-123769523D02*
X133802380Y-123769523D01*
X132754761Y-124007619D02*
X133469047Y-124245714D01*
X133469047Y-123626666D01*
%TO.C,C3*%
X133707142Y-110148666D02*
X133754761Y-110196285D01*
X133802380Y-110339142D01*
X133802380Y-110434380D01*
X133754761Y-110577238D01*
X133659523Y-110672476D01*
X133564285Y-110720095D01*
X133373809Y-110767714D01*
X133230952Y-110767714D01*
X133040476Y-110720095D01*
X132945238Y-110672476D01*
X132850000Y-110577238D01*
X132802380Y-110434380D01*
X132802380Y-110339142D01*
X132850000Y-110196285D01*
X132897619Y-110148666D01*
X132802380Y-109815333D02*
X132802380Y-109196285D01*
X133183333Y-109529619D01*
X133183333Y-109386761D01*
X133230952Y-109291523D01*
X133278571Y-109243904D01*
X133373809Y-109196285D01*
X133611904Y-109196285D01*
X133707142Y-109243904D01*
X133754761Y-109291523D01*
X133802380Y-109386761D01*
X133802380Y-109672476D01*
X133754761Y-109767714D01*
X133707142Y-109815333D01*
%TO.C,C2*%
X125579142Y-118276666D02*
X125626761Y-118324285D01*
X125674380Y-118467142D01*
X125674380Y-118562380D01*
X125626761Y-118705238D01*
X125531523Y-118800476D01*
X125436285Y-118848095D01*
X125245809Y-118895714D01*
X125102952Y-118895714D01*
X124912476Y-118848095D01*
X124817238Y-118800476D01*
X124722000Y-118705238D01*
X124674380Y-118562380D01*
X124674380Y-118467142D01*
X124722000Y-118324285D01*
X124769619Y-118276666D01*
X124769619Y-117895714D02*
X124722000Y-117848095D01*
X124674380Y-117752857D01*
X124674380Y-117514761D01*
X124722000Y-117419523D01*
X124769619Y-117371904D01*
X124864857Y-117324285D01*
X124960095Y-117324285D01*
X125102952Y-117371904D01*
X125674380Y-117943333D01*
X125674380Y-117324285D01*
%TO.C,C1*%
X96369142Y-101004666D02*
X96416761Y-101052285D01*
X96464380Y-101195142D01*
X96464380Y-101290380D01*
X96416761Y-101433238D01*
X96321523Y-101528476D01*
X96226285Y-101576095D01*
X96035809Y-101623714D01*
X95892952Y-101623714D01*
X95702476Y-101576095D01*
X95607238Y-101528476D01*
X95512000Y-101433238D01*
X95464380Y-101290380D01*
X95464380Y-101195142D01*
X95512000Y-101052285D01*
X95559619Y-101004666D01*
X96464380Y-100052285D02*
X96464380Y-100623714D01*
X96464380Y-100338000D02*
X95464380Y-100338000D01*
X95607238Y-100433238D01*
X95702476Y-100528476D01*
X95750095Y-100623714D01*
%TD*%
M02*
