%TF.GenerationSoftware,KiCad,Pcbnew,(5.1.6)-1*%
%TF.CreationDate,2020-05-27T22:40:41+03:00*%
%TF.ProjectId,MD-100 Emulator,4d442d31-3030-4204-956d-756c61746f72,rev?*%
%TF.SameCoordinates,Original*%
%TF.FileFunction,Soldermask,Top*%
%TF.FilePolarity,Negative*%
%FSLAX46Y46*%
G04 Gerber Fmt 4.6, Leading zero omitted, Abs format (unit mm)*
G04 Created by KiCad (PCBNEW (5.1.6)-1) date 2020-05-27 22:40:41*
%MOMM*%
%LPD*%
G01*
G04 APERTURE LIST*
%ADD10R,2.100000X7.975000*%
%ADD11R,0.650000X1.600000*%
%ADD12R,1.600000X0.650000*%
%ADD13R,1.000000X0.900000*%
%ADD14C,0.100000*%
%ADD15O,1.800000X1.800000*%
%ADD16R,1.800000X1.800000*%
%ADD17R,2.640000X0.700000*%
%ADD18C,0.900000*%
%ADD19C,6.500000*%
G04 APERTURE END LIST*
%TO.C,U4*%
G36*
G01*
X143014000Y-123980000D02*
X143014000Y-124330000D01*
G75*
G02*
X142839000Y-124505000I-175000J0D01*
G01*
X141139000Y-124505000D01*
G75*
G02*
X140964000Y-124330000I0J175000D01*
G01*
X140964000Y-123980000D01*
G75*
G02*
X141139000Y-123805000I175000J0D01*
G01*
X142839000Y-123805000D01*
G75*
G02*
X143014000Y-123980000I0J-175000D01*
G01*
G37*
G36*
G01*
X143014000Y-122710000D02*
X143014000Y-123060000D01*
G75*
G02*
X142839000Y-123235000I-175000J0D01*
G01*
X141139000Y-123235000D01*
G75*
G02*
X140964000Y-123060000I0J175000D01*
G01*
X140964000Y-122710000D01*
G75*
G02*
X141139000Y-122535000I175000J0D01*
G01*
X142839000Y-122535000D01*
G75*
G02*
X143014000Y-122710000I0J-175000D01*
G01*
G37*
G36*
G01*
X143014000Y-121440000D02*
X143014000Y-121790000D01*
G75*
G02*
X142839000Y-121965000I-175000J0D01*
G01*
X141139000Y-121965000D01*
G75*
G02*
X140964000Y-121790000I0J175000D01*
G01*
X140964000Y-121440000D01*
G75*
G02*
X141139000Y-121265000I175000J0D01*
G01*
X142839000Y-121265000D01*
G75*
G02*
X143014000Y-121440000I0J-175000D01*
G01*
G37*
G36*
G01*
X143014000Y-120170000D02*
X143014000Y-120520000D01*
G75*
G02*
X142839000Y-120695000I-175000J0D01*
G01*
X141139000Y-120695000D01*
G75*
G02*
X140964000Y-120520000I0J175000D01*
G01*
X140964000Y-120170000D01*
G75*
G02*
X141139000Y-119995000I175000J0D01*
G01*
X142839000Y-119995000D01*
G75*
G02*
X143014000Y-120170000I0J-175000D01*
G01*
G37*
G36*
G01*
X147964000Y-120170000D02*
X147964000Y-120520000D01*
G75*
G02*
X147789000Y-120695000I-175000J0D01*
G01*
X146089000Y-120695000D01*
G75*
G02*
X145914000Y-120520000I0J175000D01*
G01*
X145914000Y-120170000D01*
G75*
G02*
X146089000Y-119995000I175000J0D01*
G01*
X147789000Y-119995000D01*
G75*
G02*
X147964000Y-120170000I0J-175000D01*
G01*
G37*
G36*
G01*
X147964000Y-121440000D02*
X147964000Y-121790000D01*
G75*
G02*
X147789000Y-121965000I-175000J0D01*
G01*
X146089000Y-121965000D01*
G75*
G02*
X145914000Y-121790000I0J175000D01*
G01*
X145914000Y-121440000D01*
G75*
G02*
X146089000Y-121265000I175000J0D01*
G01*
X147789000Y-121265000D01*
G75*
G02*
X147964000Y-121440000I0J-175000D01*
G01*
G37*
G36*
G01*
X147964000Y-122710000D02*
X147964000Y-123060000D01*
G75*
G02*
X147789000Y-123235000I-175000J0D01*
G01*
X146089000Y-123235000D01*
G75*
G02*
X145914000Y-123060000I0J175000D01*
G01*
X145914000Y-122710000D01*
G75*
G02*
X146089000Y-122535000I175000J0D01*
G01*
X147789000Y-122535000D01*
G75*
G02*
X147964000Y-122710000I0J-175000D01*
G01*
G37*
G36*
G01*
X147964000Y-123980000D02*
X147964000Y-124330000D01*
G75*
G02*
X147789000Y-124505000I-175000J0D01*
G01*
X146089000Y-124505000D01*
G75*
G02*
X145914000Y-124330000I0J175000D01*
G01*
X145914000Y-123980000D01*
G75*
G02*
X146089000Y-123805000I175000J0D01*
G01*
X147789000Y-123805000D01*
G75*
G02*
X147964000Y-123980000I0J-175000D01*
G01*
G37*
%TD*%
%TO.C,U3*%
G36*
G01*
X143011000Y-117224000D02*
X143011000Y-117574000D01*
G75*
G02*
X142836000Y-117749000I-175000J0D01*
G01*
X141136000Y-117749000D01*
G75*
G02*
X140961000Y-117574000I0J175000D01*
G01*
X140961000Y-117224000D01*
G75*
G02*
X141136000Y-117049000I175000J0D01*
G01*
X142836000Y-117049000D01*
G75*
G02*
X143011000Y-117224000I0J-175000D01*
G01*
G37*
G36*
G01*
X143011000Y-115954000D02*
X143011000Y-116304000D01*
G75*
G02*
X142836000Y-116479000I-175000J0D01*
G01*
X141136000Y-116479000D01*
G75*
G02*
X140961000Y-116304000I0J175000D01*
G01*
X140961000Y-115954000D01*
G75*
G02*
X141136000Y-115779000I175000J0D01*
G01*
X142836000Y-115779000D01*
G75*
G02*
X143011000Y-115954000I0J-175000D01*
G01*
G37*
G36*
G01*
X143011000Y-114684000D02*
X143011000Y-115034000D01*
G75*
G02*
X142836000Y-115209000I-175000J0D01*
G01*
X141136000Y-115209000D01*
G75*
G02*
X140961000Y-115034000I0J175000D01*
G01*
X140961000Y-114684000D01*
G75*
G02*
X141136000Y-114509000I175000J0D01*
G01*
X142836000Y-114509000D01*
G75*
G02*
X143011000Y-114684000I0J-175000D01*
G01*
G37*
G36*
G01*
X143011000Y-113414000D02*
X143011000Y-113764000D01*
G75*
G02*
X142836000Y-113939000I-175000J0D01*
G01*
X141136000Y-113939000D01*
G75*
G02*
X140961000Y-113764000I0J175000D01*
G01*
X140961000Y-113414000D01*
G75*
G02*
X141136000Y-113239000I175000J0D01*
G01*
X142836000Y-113239000D01*
G75*
G02*
X143011000Y-113414000I0J-175000D01*
G01*
G37*
G36*
G01*
X147961000Y-113414000D02*
X147961000Y-113764000D01*
G75*
G02*
X147786000Y-113939000I-175000J0D01*
G01*
X146086000Y-113939000D01*
G75*
G02*
X145911000Y-113764000I0J175000D01*
G01*
X145911000Y-113414000D01*
G75*
G02*
X146086000Y-113239000I175000J0D01*
G01*
X147786000Y-113239000D01*
G75*
G02*
X147961000Y-113414000I0J-175000D01*
G01*
G37*
G36*
G01*
X147961000Y-114684000D02*
X147961000Y-115034000D01*
G75*
G02*
X147786000Y-115209000I-175000J0D01*
G01*
X146086000Y-115209000D01*
G75*
G02*
X145911000Y-115034000I0J175000D01*
G01*
X145911000Y-114684000D01*
G75*
G02*
X146086000Y-114509000I175000J0D01*
G01*
X147786000Y-114509000D01*
G75*
G02*
X147961000Y-114684000I0J-175000D01*
G01*
G37*
G36*
G01*
X147961000Y-115954000D02*
X147961000Y-116304000D01*
G75*
G02*
X147786000Y-116479000I-175000J0D01*
G01*
X146086000Y-116479000D01*
G75*
G02*
X145911000Y-116304000I0J175000D01*
G01*
X145911000Y-115954000D01*
G75*
G02*
X146086000Y-115779000I175000J0D01*
G01*
X147786000Y-115779000D01*
G75*
G02*
X147961000Y-115954000I0J-175000D01*
G01*
G37*
G36*
G01*
X147961000Y-117224000D02*
X147961000Y-117574000D01*
G75*
G02*
X147786000Y-117749000I-175000J0D01*
G01*
X146086000Y-117749000D01*
G75*
G02*
X145911000Y-117574000I0J175000D01*
G01*
X145911000Y-117224000D01*
G75*
G02*
X146086000Y-117049000I175000J0D01*
G01*
X147786000Y-117049000D01*
G75*
G02*
X147961000Y-117224000I0J-175000D01*
G01*
G37*
%TD*%
%TO.C,U2*%
G36*
G01*
X143011000Y-110442000D02*
X143011000Y-110792000D01*
G75*
G02*
X142836000Y-110967000I-175000J0D01*
G01*
X141136000Y-110967000D01*
G75*
G02*
X140961000Y-110792000I0J175000D01*
G01*
X140961000Y-110442000D01*
G75*
G02*
X141136000Y-110267000I175000J0D01*
G01*
X142836000Y-110267000D01*
G75*
G02*
X143011000Y-110442000I0J-175000D01*
G01*
G37*
G36*
G01*
X143011000Y-109172000D02*
X143011000Y-109522000D01*
G75*
G02*
X142836000Y-109697000I-175000J0D01*
G01*
X141136000Y-109697000D01*
G75*
G02*
X140961000Y-109522000I0J175000D01*
G01*
X140961000Y-109172000D01*
G75*
G02*
X141136000Y-108997000I175000J0D01*
G01*
X142836000Y-108997000D01*
G75*
G02*
X143011000Y-109172000I0J-175000D01*
G01*
G37*
G36*
G01*
X143011000Y-107902000D02*
X143011000Y-108252000D01*
G75*
G02*
X142836000Y-108427000I-175000J0D01*
G01*
X141136000Y-108427000D01*
G75*
G02*
X140961000Y-108252000I0J175000D01*
G01*
X140961000Y-107902000D01*
G75*
G02*
X141136000Y-107727000I175000J0D01*
G01*
X142836000Y-107727000D01*
G75*
G02*
X143011000Y-107902000I0J-175000D01*
G01*
G37*
G36*
G01*
X143011000Y-106632000D02*
X143011000Y-106982000D01*
G75*
G02*
X142836000Y-107157000I-175000J0D01*
G01*
X141136000Y-107157000D01*
G75*
G02*
X140961000Y-106982000I0J175000D01*
G01*
X140961000Y-106632000D01*
G75*
G02*
X141136000Y-106457000I175000J0D01*
G01*
X142836000Y-106457000D01*
G75*
G02*
X143011000Y-106632000I0J-175000D01*
G01*
G37*
G36*
G01*
X147961000Y-106632000D02*
X147961000Y-106982000D01*
G75*
G02*
X147786000Y-107157000I-175000J0D01*
G01*
X146086000Y-107157000D01*
G75*
G02*
X145911000Y-106982000I0J175000D01*
G01*
X145911000Y-106632000D01*
G75*
G02*
X146086000Y-106457000I175000J0D01*
G01*
X147786000Y-106457000D01*
G75*
G02*
X147961000Y-106632000I0J-175000D01*
G01*
G37*
G36*
G01*
X147961000Y-107902000D02*
X147961000Y-108252000D01*
G75*
G02*
X147786000Y-108427000I-175000J0D01*
G01*
X146086000Y-108427000D01*
G75*
G02*
X145911000Y-108252000I0J175000D01*
G01*
X145911000Y-107902000D01*
G75*
G02*
X146086000Y-107727000I175000J0D01*
G01*
X147786000Y-107727000D01*
G75*
G02*
X147961000Y-107902000I0J-175000D01*
G01*
G37*
G36*
G01*
X147961000Y-109172000D02*
X147961000Y-109522000D01*
G75*
G02*
X147786000Y-109697000I-175000J0D01*
G01*
X146086000Y-109697000D01*
G75*
G02*
X145911000Y-109522000I0J175000D01*
G01*
X145911000Y-109172000D01*
G75*
G02*
X146086000Y-108997000I175000J0D01*
G01*
X147786000Y-108997000D01*
G75*
G02*
X147961000Y-109172000I0J-175000D01*
G01*
G37*
G36*
G01*
X147961000Y-110442000D02*
X147961000Y-110792000D01*
G75*
G02*
X147786000Y-110967000I-175000J0D01*
G01*
X146086000Y-110967000D01*
G75*
G02*
X145911000Y-110792000I0J175000D01*
G01*
X145911000Y-110442000D01*
G75*
G02*
X146086000Y-110267000I175000J0D01*
G01*
X147786000Y-110267000D01*
G75*
G02*
X147961000Y-110442000I0J-175000D01*
G01*
G37*
%TD*%
%TO.C,U1*%
G36*
G01*
X143011000Y-103660000D02*
X143011000Y-104010000D01*
G75*
G02*
X142836000Y-104185000I-175000J0D01*
G01*
X141136000Y-104185000D01*
G75*
G02*
X140961000Y-104010000I0J175000D01*
G01*
X140961000Y-103660000D01*
G75*
G02*
X141136000Y-103485000I175000J0D01*
G01*
X142836000Y-103485000D01*
G75*
G02*
X143011000Y-103660000I0J-175000D01*
G01*
G37*
G36*
G01*
X143011000Y-102390000D02*
X143011000Y-102740000D01*
G75*
G02*
X142836000Y-102915000I-175000J0D01*
G01*
X141136000Y-102915000D01*
G75*
G02*
X140961000Y-102740000I0J175000D01*
G01*
X140961000Y-102390000D01*
G75*
G02*
X141136000Y-102215000I175000J0D01*
G01*
X142836000Y-102215000D01*
G75*
G02*
X143011000Y-102390000I0J-175000D01*
G01*
G37*
G36*
G01*
X143011000Y-101120000D02*
X143011000Y-101470000D01*
G75*
G02*
X142836000Y-101645000I-175000J0D01*
G01*
X141136000Y-101645000D01*
G75*
G02*
X140961000Y-101470000I0J175000D01*
G01*
X140961000Y-101120000D01*
G75*
G02*
X141136000Y-100945000I175000J0D01*
G01*
X142836000Y-100945000D01*
G75*
G02*
X143011000Y-101120000I0J-175000D01*
G01*
G37*
G36*
G01*
X143011000Y-99850000D02*
X143011000Y-100200000D01*
G75*
G02*
X142836000Y-100375000I-175000J0D01*
G01*
X141136000Y-100375000D01*
G75*
G02*
X140961000Y-100200000I0J175000D01*
G01*
X140961000Y-99850000D01*
G75*
G02*
X141136000Y-99675000I175000J0D01*
G01*
X142836000Y-99675000D01*
G75*
G02*
X143011000Y-99850000I0J-175000D01*
G01*
G37*
G36*
G01*
X147961000Y-99850000D02*
X147961000Y-100200000D01*
G75*
G02*
X147786000Y-100375000I-175000J0D01*
G01*
X146086000Y-100375000D01*
G75*
G02*
X145911000Y-100200000I0J175000D01*
G01*
X145911000Y-99850000D01*
G75*
G02*
X146086000Y-99675000I175000J0D01*
G01*
X147786000Y-99675000D01*
G75*
G02*
X147961000Y-99850000I0J-175000D01*
G01*
G37*
G36*
G01*
X147961000Y-101120000D02*
X147961000Y-101470000D01*
G75*
G02*
X147786000Y-101645000I-175000J0D01*
G01*
X146086000Y-101645000D01*
G75*
G02*
X145911000Y-101470000I0J175000D01*
G01*
X145911000Y-101120000D01*
G75*
G02*
X146086000Y-100945000I175000J0D01*
G01*
X147786000Y-100945000D01*
G75*
G02*
X147961000Y-101120000I0J-175000D01*
G01*
G37*
G36*
G01*
X147961000Y-102390000D02*
X147961000Y-102740000D01*
G75*
G02*
X147786000Y-102915000I-175000J0D01*
G01*
X146086000Y-102915000D01*
G75*
G02*
X145911000Y-102740000I0J175000D01*
G01*
X145911000Y-102390000D01*
G75*
G02*
X146086000Y-102215000I175000J0D01*
G01*
X147786000Y-102215000D01*
G75*
G02*
X147961000Y-102390000I0J-175000D01*
G01*
G37*
G36*
G01*
X147961000Y-103660000D02*
X147961000Y-104010000D01*
G75*
G02*
X147786000Y-104185000I-175000J0D01*
G01*
X146086000Y-104185000D01*
G75*
G02*
X145911000Y-104010000I0J175000D01*
G01*
X145911000Y-103660000D01*
G75*
G02*
X146086000Y-103485000I175000J0D01*
G01*
X147786000Y-103485000D01*
G75*
G02*
X147961000Y-103660000I0J-175000D01*
G01*
G37*
%TD*%
D10*
%TO.C,Y1*%
X129540000Y-122498500D03*
X129540000Y-110623500D03*
%TD*%
D11*
%TO.C,U7*%
X113246000Y-109311000D03*
X114046000Y-109311000D03*
X114846000Y-109311000D03*
X115646000Y-109311000D03*
X116446000Y-109311000D03*
X117246000Y-109311000D03*
X118046000Y-109311000D03*
X118846000Y-109311000D03*
X119646000Y-109311000D03*
X120446000Y-109311000D03*
X121246000Y-109311000D03*
D12*
X122946000Y-111011000D03*
X122946000Y-111811000D03*
X122946000Y-112611000D03*
X122946000Y-113411000D03*
X122946000Y-114211000D03*
X122946000Y-115011000D03*
X122946000Y-115811000D03*
X122946000Y-116611000D03*
X122946000Y-117411000D03*
X122946000Y-118211000D03*
X122946000Y-119011000D03*
D11*
X121246000Y-120711000D03*
X120446000Y-120711000D03*
X119646000Y-120711000D03*
X118846000Y-120711000D03*
X118046000Y-120711000D03*
X117246000Y-120711000D03*
X116446000Y-120711000D03*
X115646000Y-120711000D03*
X114846000Y-120711000D03*
X114046000Y-120711000D03*
X113246000Y-120711000D03*
D12*
X111546000Y-119011000D03*
X111546000Y-118211000D03*
X111546000Y-117411000D03*
X111546000Y-116611000D03*
X111546000Y-115811000D03*
X111546000Y-115011000D03*
X111546000Y-114211000D03*
X111546000Y-113411000D03*
X111546000Y-112611000D03*
X111546000Y-111811000D03*
X111546000Y-111011000D03*
%TD*%
%TO.C,U6*%
G36*
G01*
X98945000Y-133353000D02*
X98945000Y-133703000D01*
G75*
G02*
X98770000Y-133878000I-175000J0D01*
G01*
X97070000Y-133878000D01*
G75*
G02*
X96895000Y-133703000I0J175000D01*
G01*
X96895000Y-133353000D01*
G75*
G02*
X97070000Y-133178000I175000J0D01*
G01*
X98770000Y-133178000D01*
G75*
G02*
X98945000Y-133353000I0J-175000D01*
G01*
G37*
G36*
G01*
X98945000Y-132083000D02*
X98945000Y-132433000D01*
G75*
G02*
X98770000Y-132608000I-175000J0D01*
G01*
X97070000Y-132608000D01*
G75*
G02*
X96895000Y-132433000I0J175000D01*
G01*
X96895000Y-132083000D01*
G75*
G02*
X97070000Y-131908000I175000J0D01*
G01*
X98770000Y-131908000D01*
G75*
G02*
X98945000Y-132083000I0J-175000D01*
G01*
G37*
G36*
G01*
X98945000Y-130813000D02*
X98945000Y-131163000D01*
G75*
G02*
X98770000Y-131338000I-175000J0D01*
G01*
X97070000Y-131338000D01*
G75*
G02*
X96895000Y-131163000I0J175000D01*
G01*
X96895000Y-130813000D01*
G75*
G02*
X97070000Y-130638000I175000J0D01*
G01*
X98770000Y-130638000D01*
G75*
G02*
X98945000Y-130813000I0J-175000D01*
G01*
G37*
G36*
G01*
X98945000Y-129543000D02*
X98945000Y-129893000D01*
G75*
G02*
X98770000Y-130068000I-175000J0D01*
G01*
X97070000Y-130068000D01*
G75*
G02*
X96895000Y-129893000I0J175000D01*
G01*
X96895000Y-129543000D01*
G75*
G02*
X97070000Y-129368000I175000J0D01*
G01*
X98770000Y-129368000D01*
G75*
G02*
X98945000Y-129543000I0J-175000D01*
G01*
G37*
G36*
G01*
X98945000Y-128273000D02*
X98945000Y-128623000D01*
G75*
G02*
X98770000Y-128798000I-175000J0D01*
G01*
X97070000Y-128798000D01*
G75*
G02*
X96895000Y-128623000I0J175000D01*
G01*
X96895000Y-128273000D01*
G75*
G02*
X97070000Y-128098000I175000J0D01*
G01*
X98770000Y-128098000D01*
G75*
G02*
X98945000Y-128273000I0J-175000D01*
G01*
G37*
G36*
G01*
X98945000Y-127003000D02*
X98945000Y-127353000D01*
G75*
G02*
X98770000Y-127528000I-175000J0D01*
G01*
X97070000Y-127528000D01*
G75*
G02*
X96895000Y-127353000I0J175000D01*
G01*
X96895000Y-127003000D01*
G75*
G02*
X97070000Y-126828000I175000J0D01*
G01*
X98770000Y-126828000D01*
G75*
G02*
X98945000Y-127003000I0J-175000D01*
G01*
G37*
G36*
G01*
X98945000Y-125733000D02*
X98945000Y-126083000D01*
G75*
G02*
X98770000Y-126258000I-175000J0D01*
G01*
X97070000Y-126258000D01*
G75*
G02*
X96895000Y-126083000I0J175000D01*
G01*
X96895000Y-125733000D01*
G75*
G02*
X97070000Y-125558000I175000J0D01*
G01*
X98770000Y-125558000D01*
G75*
G02*
X98945000Y-125733000I0J-175000D01*
G01*
G37*
G36*
G01*
X103895000Y-125733000D02*
X103895000Y-126083000D01*
G75*
G02*
X103720000Y-126258000I-175000J0D01*
G01*
X102020000Y-126258000D01*
G75*
G02*
X101845000Y-126083000I0J175000D01*
G01*
X101845000Y-125733000D01*
G75*
G02*
X102020000Y-125558000I175000J0D01*
G01*
X103720000Y-125558000D01*
G75*
G02*
X103895000Y-125733000I0J-175000D01*
G01*
G37*
G36*
G01*
X103895000Y-127003000D02*
X103895000Y-127353000D01*
G75*
G02*
X103720000Y-127528000I-175000J0D01*
G01*
X102020000Y-127528000D01*
G75*
G02*
X101845000Y-127353000I0J175000D01*
G01*
X101845000Y-127003000D01*
G75*
G02*
X102020000Y-126828000I175000J0D01*
G01*
X103720000Y-126828000D01*
G75*
G02*
X103895000Y-127003000I0J-175000D01*
G01*
G37*
G36*
G01*
X103895000Y-128273000D02*
X103895000Y-128623000D01*
G75*
G02*
X103720000Y-128798000I-175000J0D01*
G01*
X102020000Y-128798000D01*
G75*
G02*
X101845000Y-128623000I0J175000D01*
G01*
X101845000Y-128273000D01*
G75*
G02*
X102020000Y-128098000I175000J0D01*
G01*
X103720000Y-128098000D01*
G75*
G02*
X103895000Y-128273000I0J-175000D01*
G01*
G37*
G36*
G01*
X103895000Y-129543000D02*
X103895000Y-129893000D01*
G75*
G02*
X103720000Y-130068000I-175000J0D01*
G01*
X102020000Y-130068000D01*
G75*
G02*
X101845000Y-129893000I0J175000D01*
G01*
X101845000Y-129543000D01*
G75*
G02*
X102020000Y-129368000I175000J0D01*
G01*
X103720000Y-129368000D01*
G75*
G02*
X103895000Y-129543000I0J-175000D01*
G01*
G37*
G36*
G01*
X103895000Y-130813000D02*
X103895000Y-131163000D01*
G75*
G02*
X103720000Y-131338000I-175000J0D01*
G01*
X102020000Y-131338000D01*
G75*
G02*
X101845000Y-131163000I0J175000D01*
G01*
X101845000Y-130813000D01*
G75*
G02*
X102020000Y-130638000I175000J0D01*
G01*
X103720000Y-130638000D01*
G75*
G02*
X103895000Y-130813000I0J-175000D01*
G01*
G37*
G36*
G01*
X103895000Y-132083000D02*
X103895000Y-132433000D01*
G75*
G02*
X103720000Y-132608000I-175000J0D01*
G01*
X102020000Y-132608000D01*
G75*
G02*
X101845000Y-132433000I0J175000D01*
G01*
X101845000Y-132083000D01*
G75*
G02*
X102020000Y-131908000I175000J0D01*
G01*
X103720000Y-131908000D01*
G75*
G02*
X103895000Y-132083000I0J-175000D01*
G01*
G37*
G36*
G01*
X103895000Y-133353000D02*
X103895000Y-133703000D01*
G75*
G02*
X103720000Y-133878000I-175000J0D01*
G01*
X102020000Y-133878000D01*
G75*
G02*
X101845000Y-133703000I0J175000D01*
G01*
X101845000Y-133353000D01*
G75*
G02*
X102020000Y-133178000I175000J0D01*
G01*
X103720000Y-133178000D01*
G75*
G02*
X103895000Y-133353000I0J-175000D01*
G01*
G37*
%TD*%
%TO.C,U5*%
G36*
G01*
X96949000Y-117487000D02*
X96599000Y-117487000D01*
G75*
G02*
X96424000Y-117312000I0J175000D01*
G01*
X96424000Y-115612000D01*
G75*
G02*
X96599000Y-115437000I175000J0D01*
G01*
X96949000Y-115437000D01*
G75*
G02*
X97124000Y-115612000I0J-175000D01*
G01*
X97124000Y-117312000D01*
G75*
G02*
X96949000Y-117487000I-175000J0D01*
G01*
G37*
G36*
G01*
X98219000Y-117487000D02*
X97869000Y-117487000D01*
G75*
G02*
X97694000Y-117312000I0J175000D01*
G01*
X97694000Y-115612000D01*
G75*
G02*
X97869000Y-115437000I175000J0D01*
G01*
X98219000Y-115437000D01*
G75*
G02*
X98394000Y-115612000I0J-175000D01*
G01*
X98394000Y-117312000D01*
G75*
G02*
X98219000Y-117487000I-175000J0D01*
G01*
G37*
G36*
G01*
X99489000Y-117487000D02*
X99139000Y-117487000D01*
G75*
G02*
X98964000Y-117312000I0J175000D01*
G01*
X98964000Y-115612000D01*
G75*
G02*
X99139000Y-115437000I175000J0D01*
G01*
X99489000Y-115437000D01*
G75*
G02*
X99664000Y-115612000I0J-175000D01*
G01*
X99664000Y-117312000D01*
G75*
G02*
X99489000Y-117487000I-175000J0D01*
G01*
G37*
G36*
G01*
X100759000Y-117487000D02*
X100409000Y-117487000D01*
G75*
G02*
X100234000Y-117312000I0J175000D01*
G01*
X100234000Y-115612000D01*
G75*
G02*
X100409000Y-115437000I175000J0D01*
G01*
X100759000Y-115437000D01*
G75*
G02*
X100934000Y-115612000I0J-175000D01*
G01*
X100934000Y-117312000D01*
G75*
G02*
X100759000Y-117487000I-175000J0D01*
G01*
G37*
G36*
G01*
X102029000Y-117487000D02*
X101679000Y-117487000D01*
G75*
G02*
X101504000Y-117312000I0J175000D01*
G01*
X101504000Y-115612000D01*
G75*
G02*
X101679000Y-115437000I175000J0D01*
G01*
X102029000Y-115437000D01*
G75*
G02*
X102204000Y-115612000I0J-175000D01*
G01*
X102204000Y-117312000D01*
G75*
G02*
X102029000Y-117487000I-175000J0D01*
G01*
G37*
G36*
G01*
X103299000Y-117487000D02*
X102949000Y-117487000D01*
G75*
G02*
X102774000Y-117312000I0J175000D01*
G01*
X102774000Y-115612000D01*
G75*
G02*
X102949000Y-115437000I175000J0D01*
G01*
X103299000Y-115437000D01*
G75*
G02*
X103474000Y-115612000I0J-175000D01*
G01*
X103474000Y-117312000D01*
G75*
G02*
X103299000Y-117487000I-175000J0D01*
G01*
G37*
G36*
G01*
X104569000Y-117487000D02*
X104219000Y-117487000D01*
G75*
G02*
X104044000Y-117312000I0J175000D01*
G01*
X104044000Y-115612000D01*
G75*
G02*
X104219000Y-115437000I175000J0D01*
G01*
X104569000Y-115437000D01*
G75*
G02*
X104744000Y-115612000I0J-175000D01*
G01*
X104744000Y-117312000D01*
G75*
G02*
X104569000Y-117487000I-175000J0D01*
G01*
G37*
G36*
G01*
X104569000Y-122437000D02*
X104219000Y-122437000D01*
G75*
G02*
X104044000Y-122262000I0J175000D01*
G01*
X104044000Y-120562000D01*
G75*
G02*
X104219000Y-120387000I175000J0D01*
G01*
X104569000Y-120387000D01*
G75*
G02*
X104744000Y-120562000I0J-175000D01*
G01*
X104744000Y-122262000D01*
G75*
G02*
X104569000Y-122437000I-175000J0D01*
G01*
G37*
G36*
G01*
X103299000Y-122437000D02*
X102949000Y-122437000D01*
G75*
G02*
X102774000Y-122262000I0J175000D01*
G01*
X102774000Y-120562000D01*
G75*
G02*
X102949000Y-120387000I175000J0D01*
G01*
X103299000Y-120387000D01*
G75*
G02*
X103474000Y-120562000I0J-175000D01*
G01*
X103474000Y-122262000D01*
G75*
G02*
X103299000Y-122437000I-175000J0D01*
G01*
G37*
G36*
G01*
X102029000Y-122437000D02*
X101679000Y-122437000D01*
G75*
G02*
X101504000Y-122262000I0J175000D01*
G01*
X101504000Y-120562000D01*
G75*
G02*
X101679000Y-120387000I175000J0D01*
G01*
X102029000Y-120387000D01*
G75*
G02*
X102204000Y-120562000I0J-175000D01*
G01*
X102204000Y-122262000D01*
G75*
G02*
X102029000Y-122437000I-175000J0D01*
G01*
G37*
G36*
G01*
X100759000Y-122437000D02*
X100409000Y-122437000D01*
G75*
G02*
X100234000Y-122262000I0J175000D01*
G01*
X100234000Y-120562000D01*
G75*
G02*
X100409000Y-120387000I175000J0D01*
G01*
X100759000Y-120387000D01*
G75*
G02*
X100934000Y-120562000I0J-175000D01*
G01*
X100934000Y-122262000D01*
G75*
G02*
X100759000Y-122437000I-175000J0D01*
G01*
G37*
G36*
G01*
X99489000Y-122437000D02*
X99139000Y-122437000D01*
G75*
G02*
X98964000Y-122262000I0J175000D01*
G01*
X98964000Y-120562000D01*
G75*
G02*
X99139000Y-120387000I175000J0D01*
G01*
X99489000Y-120387000D01*
G75*
G02*
X99664000Y-120562000I0J-175000D01*
G01*
X99664000Y-122262000D01*
G75*
G02*
X99489000Y-122437000I-175000J0D01*
G01*
G37*
G36*
G01*
X98219000Y-122437000D02*
X97869000Y-122437000D01*
G75*
G02*
X97694000Y-122262000I0J175000D01*
G01*
X97694000Y-120562000D01*
G75*
G02*
X97869000Y-120387000I175000J0D01*
G01*
X98219000Y-120387000D01*
G75*
G02*
X98394000Y-120562000I0J-175000D01*
G01*
X98394000Y-122262000D01*
G75*
G02*
X98219000Y-122437000I-175000J0D01*
G01*
G37*
G36*
G01*
X96949000Y-122437000D02*
X96599000Y-122437000D01*
G75*
G02*
X96424000Y-122262000I0J175000D01*
G01*
X96424000Y-120562000D01*
G75*
G02*
X96599000Y-120387000I175000J0D01*
G01*
X96949000Y-120387000D01*
G75*
G02*
X97124000Y-120562000I0J-175000D01*
G01*
X97124000Y-122262000D01*
G75*
G02*
X96949000Y-122437000I-175000J0D01*
G01*
G37*
%TD*%
%TO.C,R21*%
G36*
G01*
X118392000Y-128621262D02*
X118392000Y-127664738D01*
G75*
G02*
X118663738Y-127393000I271738J0D01*
G01*
X119370262Y-127393000D01*
G75*
G02*
X119642000Y-127664738I0J-271738D01*
G01*
X119642000Y-128621262D01*
G75*
G02*
X119370262Y-128893000I-271738J0D01*
G01*
X118663738Y-128893000D01*
G75*
G02*
X118392000Y-128621262I0J271738D01*
G01*
G37*
G36*
G01*
X116342000Y-128621262D02*
X116342000Y-127664738D01*
G75*
G02*
X116613738Y-127393000I271738J0D01*
G01*
X117320262Y-127393000D01*
G75*
G02*
X117592000Y-127664738I0J-271738D01*
G01*
X117592000Y-128621262D01*
G75*
G02*
X117320262Y-128893000I-271738J0D01*
G01*
X116613738Y-128893000D01*
G75*
G02*
X116342000Y-128621262I0J271738D01*
G01*
G37*
%TD*%
%TO.C,R20*%
G36*
G01*
X113002000Y-129061738D02*
X113002000Y-130018262D01*
G75*
G02*
X112730262Y-130290000I-271738J0D01*
G01*
X112023738Y-130290000D01*
G75*
G02*
X111752000Y-130018262I0J271738D01*
G01*
X111752000Y-129061738D01*
G75*
G02*
X112023738Y-128790000I271738J0D01*
G01*
X112730262Y-128790000D01*
G75*
G02*
X113002000Y-129061738I0J-271738D01*
G01*
G37*
G36*
G01*
X115052000Y-129061738D02*
X115052000Y-130018262D01*
G75*
G02*
X114780262Y-130290000I-271738J0D01*
G01*
X114073738Y-130290000D01*
G75*
G02*
X113802000Y-130018262I0J271738D01*
G01*
X113802000Y-129061738D01*
G75*
G02*
X114073738Y-128790000I271738J0D01*
G01*
X114780262Y-128790000D01*
G75*
G02*
X115052000Y-129061738I0J-271738D01*
G01*
G37*
%TD*%
%TO.C,R19*%
G36*
G01*
X113820000Y-126462262D02*
X113820000Y-125505738D01*
G75*
G02*
X114091738Y-125234000I271738J0D01*
G01*
X114798262Y-125234000D01*
G75*
G02*
X115070000Y-125505738I0J-271738D01*
G01*
X115070000Y-126462262D01*
G75*
G02*
X114798262Y-126734000I-271738J0D01*
G01*
X114091738Y-126734000D01*
G75*
G02*
X113820000Y-126462262I0J271738D01*
G01*
G37*
G36*
G01*
X111770000Y-126462262D02*
X111770000Y-125505738D01*
G75*
G02*
X112041738Y-125234000I271738J0D01*
G01*
X112748262Y-125234000D01*
G75*
G02*
X113020000Y-125505738I0J-271738D01*
G01*
X113020000Y-126462262D01*
G75*
G02*
X112748262Y-126734000I-271738J0D01*
G01*
X112041738Y-126734000D01*
G75*
G02*
X111770000Y-126462262I0J271738D01*
G01*
G37*
%TD*%
%TO.C,R18*%
G36*
G01*
X113820000Y-124430262D02*
X113820000Y-123473738D01*
G75*
G02*
X114091738Y-123202000I271738J0D01*
G01*
X114798262Y-123202000D01*
G75*
G02*
X115070000Y-123473738I0J-271738D01*
G01*
X115070000Y-124430262D01*
G75*
G02*
X114798262Y-124702000I-271738J0D01*
G01*
X114091738Y-124702000D01*
G75*
G02*
X113820000Y-124430262I0J271738D01*
G01*
G37*
G36*
G01*
X111770000Y-124430262D02*
X111770000Y-123473738D01*
G75*
G02*
X112041738Y-123202000I271738J0D01*
G01*
X112748262Y-123202000D01*
G75*
G02*
X113020000Y-123473738I0J-271738D01*
G01*
X113020000Y-124430262D01*
G75*
G02*
X112748262Y-124702000I-271738J0D01*
G01*
X112041738Y-124702000D01*
G75*
G02*
X111770000Y-124430262I0J271738D01*
G01*
G37*
%TD*%
%TO.C,R17*%
G36*
G01*
X98181000Y-108809262D02*
X98181000Y-107852738D01*
G75*
G02*
X98452738Y-107581000I271738J0D01*
G01*
X99159262Y-107581000D01*
G75*
G02*
X99431000Y-107852738I0J-271738D01*
G01*
X99431000Y-108809262D01*
G75*
G02*
X99159262Y-109081000I-271738J0D01*
G01*
X98452738Y-109081000D01*
G75*
G02*
X98181000Y-108809262I0J271738D01*
G01*
G37*
G36*
G01*
X96131000Y-108809262D02*
X96131000Y-107852738D01*
G75*
G02*
X96402738Y-107581000I271738J0D01*
G01*
X97109262Y-107581000D01*
G75*
G02*
X97381000Y-107852738I0J-271738D01*
G01*
X97381000Y-108809262D01*
G75*
G02*
X97109262Y-109081000I-271738J0D01*
G01*
X96402738Y-109081000D01*
G75*
G02*
X96131000Y-108809262I0J271738D01*
G01*
G37*
%TD*%
%TO.C,R16*%
G36*
G01*
X122701000Y-124430262D02*
X122701000Y-123473738D01*
G75*
G02*
X122972738Y-123202000I271738J0D01*
G01*
X123679262Y-123202000D01*
G75*
G02*
X123951000Y-123473738I0J-271738D01*
G01*
X123951000Y-124430262D01*
G75*
G02*
X123679262Y-124702000I-271738J0D01*
G01*
X122972738Y-124702000D01*
G75*
G02*
X122701000Y-124430262I0J271738D01*
G01*
G37*
G36*
G01*
X120651000Y-124430262D02*
X120651000Y-123473738D01*
G75*
G02*
X120922738Y-123202000I271738J0D01*
G01*
X121629262Y-123202000D01*
G75*
G02*
X121901000Y-123473738I0J-271738D01*
G01*
X121901000Y-124430262D01*
G75*
G02*
X121629262Y-124702000I-271738J0D01*
G01*
X120922738Y-124702000D01*
G75*
G02*
X120651000Y-124430262I0J271738D01*
G01*
G37*
%TD*%
%TO.C,R15*%
G36*
G01*
X137340000Y-126792262D02*
X137340000Y-125835738D01*
G75*
G02*
X137611738Y-125564000I271738J0D01*
G01*
X138318262Y-125564000D01*
G75*
G02*
X138590000Y-125835738I0J-271738D01*
G01*
X138590000Y-126792262D01*
G75*
G02*
X138318262Y-127064000I-271738J0D01*
G01*
X137611738Y-127064000D01*
G75*
G02*
X137340000Y-126792262I0J271738D01*
G01*
G37*
G36*
G01*
X135290000Y-126792262D02*
X135290000Y-125835738D01*
G75*
G02*
X135561738Y-125564000I271738J0D01*
G01*
X136268262Y-125564000D01*
G75*
G02*
X136540000Y-125835738I0J-271738D01*
G01*
X136540000Y-126792262D01*
G75*
G02*
X136268262Y-127064000I-271738J0D01*
G01*
X135561738Y-127064000D01*
G75*
G02*
X135290000Y-126792262I0J271738D01*
G01*
G37*
%TD*%
%TO.C,R14*%
G36*
G01*
X137340000Y-128951262D02*
X137340000Y-127994738D01*
G75*
G02*
X137611738Y-127723000I271738J0D01*
G01*
X138318262Y-127723000D01*
G75*
G02*
X138590000Y-127994738I0J-271738D01*
G01*
X138590000Y-128951262D01*
G75*
G02*
X138318262Y-129223000I-271738J0D01*
G01*
X137611738Y-129223000D01*
G75*
G02*
X137340000Y-128951262I0J271738D01*
G01*
G37*
G36*
G01*
X135290000Y-128951262D02*
X135290000Y-127994738D01*
G75*
G02*
X135561738Y-127723000I271738J0D01*
G01*
X136268262Y-127723000D01*
G75*
G02*
X136540000Y-127994738I0J-271738D01*
G01*
X136540000Y-128951262D01*
G75*
G02*
X136268262Y-129223000I-271738J0D01*
G01*
X135561738Y-129223000D01*
G75*
G02*
X135290000Y-128951262I0J271738D01*
G01*
G37*
%TD*%
%TO.C,R13*%
G36*
G01*
X132802000Y-101819738D02*
X132802000Y-102776262D01*
G75*
G02*
X132530262Y-103048000I-271738J0D01*
G01*
X131823738Y-103048000D01*
G75*
G02*
X131552000Y-102776262I0J271738D01*
G01*
X131552000Y-101819738D01*
G75*
G02*
X131823738Y-101548000I271738J0D01*
G01*
X132530262Y-101548000D01*
G75*
G02*
X132802000Y-101819738I0J-271738D01*
G01*
G37*
G36*
G01*
X134852000Y-101819738D02*
X134852000Y-102776262D01*
G75*
G02*
X134580262Y-103048000I-271738J0D01*
G01*
X133873738Y-103048000D01*
G75*
G02*
X133602000Y-102776262I0J271738D01*
G01*
X133602000Y-101819738D01*
G75*
G02*
X133873738Y-101548000I271738J0D01*
G01*
X134580262Y-101548000D01*
G75*
G02*
X134852000Y-101819738I0J-271738D01*
G01*
G37*
%TD*%
%TO.C,R12*%
G36*
G01*
X110518000Y-103958262D02*
X110518000Y-103001738D01*
G75*
G02*
X110789738Y-102730000I271738J0D01*
G01*
X111496262Y-102730000D01*
G75*
G02*
X111768000Y-103001738I0J-271738D01*
G01*
X111768000Y-103958262D01*
G75*
G02*
X111496262Y-104230000I-271738J0D01*
G01*
X110789738Y-104230000D01*
G75*
G02*
X110518000Y-103958262I0J271738D01*
G01*
G37*
G36*
G01*
X108468000Y-103958262D02*
X108468000Y-103001738D01*
G75*
G02*
X108739738Y-102730000I271738J0D01*
G01*
X109446262Y-102730000D01*
G75*
G02*
X109718000Y-103001738I0J-271738D01*
G01*
X109718000Y-103958262D01*
G75*
G02*
X109446262Y-104230000I-271738J0D01*
G01*
X108739738Y-104230000D01*
G75*
G02*
X108468000Y-103958262I0J271738D01*
G01*
G37*
%TD*%
%TO.C,R11*%
G36*
G01*
X132810000Y-99661738D02*
X132810000Y-100618262D01*
G75*
G02*
X132538262Y-100890000I-271738J0D01*
G01*
X131831738Y-100890000D01*
G75*
G02*
X131560000Y-100618262I0J271738D01*
G01*
X131560000Y-99661738D01*
G75*
G02*
X131831738Y-99390000I271738J0D01*
G01*
X132538262Y-99390000D01*
G75*
G02*
X132810000Y-99661738I0J-271738D01*
G01*
G37*
G36*
G01*
X134860000Y-99661738D02*
X134860000Y-100618262D01*
G75*
G02*
X134588262Y-100890000I-271738J0D01*
G01*
X133881738Y-100890000D01*
G75*
G02*
X133610000Y-100618262I0J271738D01*
G01*
X133610000Y-99661738D01*
G75*
G02*
X133881738Y-99390000I271738J0D01*
G01*
X134588262Y-99390000D01*
G75*
G02*
X134860000Y-99661738I0J-271738D01*
G01*
G37*
%TD*%
%TO.C,R10*%
G36*
G01*
X117710000Y-103001738D02*
X117710000Y-103958262D01*
G75*
G02*
X117438262Y-104230000I-271738J0D01*
G01*
X116731738Y-104230000D01*
G75*
G02*
X116460000Y-103958262I0J271738D01*
G01*
X116460000Y-103001738D01*
G75*
G02*
X116731738Y-102730000I271738J0D01*
G01*
X117438262Y-102730000D01*
G75*
G02*
X117710000Y-103001738I0J-271738D01*
G01*
G37*
G36*
G01*
X119760000Y-103001738D02*
X119760000Y-103958262D01*
G75*
G02*
X119488262Y-104230000I-271738J0D01*
G01*
X118781738Y-104230000D01*
G75*
G02*
X118510000Y-103958262I0J271738D01*
G01*
X118510000Y-103001738D01*
G75*
G02*
X118781738Y-102730000I271738J0D01*
G01*
X119488262Y-102730000D01*
G75*
G02*
X119760000Y-103001738I0J-271738D01*
G01*
G37*
%TD*%
%TO.C,R9*%
G36*
G01*
X124089000Y-132050262D02*
X124089000Y-131093738D01*
G75*
G02*
X124360738Y-130822000I271738J0D01*
G01*
X125067262Y-130822000D01*
G75*
G02*
X125339000Y-131093738I0J-271738D01*
G01*
X125339000Y-132050262D01*
G75*
G02*
X125067262Y-132322000I-271738J0D01*
G01*
X124360738Y-132322000D01*
G75*
G02*
X124089000Y-132050262I0J271738D01*
G01*
G37*
G36*
G01*
X122039000Y-132050262D02*
X122039000Y-131093738D01*
G75*
G02*
X122310738Y-130822000I271738J0D01*
G01*
X123017262Y-130822000D01*
G75*
G02*
X123289000Y-131093738I0J-271738D01*
G01*
X123289000Y-132050262D01*
G75*
G02*
X123017262Y-132322000I-271738J0D01*
G01*
X122310738Y-132322000D01*
G75*
G02*
X122039000Y-132050262I0J271738D01*
G01*
G37*
%TD*%
%TO.C,R8*%
G36*
G01*
X137340000Y-123109262D02*
X137340000Y-122152738D01*
G75*
G02*
X137611738Y-121881000I271738J0D01*
G01*
X138318262Y-121881000D01*
G75*
G02*
X138590000Y-122152738I0J-271738D01*
G01*
X138590000Y-123109262D01*
G75*
G02*
X138318262Y-123381000I-271738J0D01*
G01*
X137611738Y-123381000D01*
G75*
G02*
X137340000Y-123109262I0J271738D01*
G01*
G37*
G36*
G01*
X135290000Y-123109262D02*
X135290000Y-122152738D01*
G75*
G02*
X135561738Y-121881000I271738J0D01*
G01*
X136268262Y-121881000D01*
G75*
G02*
X136540000Y-122152738I0J-271738D01*
G01*
X136540000Y-123109262D01*
G75*
G02*
X136268262Y-123381000I-271738J0D01*
G01*
X135561738Y-123381000D01*
G75*
G02*
X135290000Y-123109262I0J271738D01*
G01*
G37*
%TD*%
%TO.C,R7*%
G36*
G01*
X137340000Y-120950262D02*
X137340000Y-119993738D01*
G75*
G02*
X137611738Y-119722000I271738J0D01*
G01*
X138318262Y-119722000D01*
G75*
G02*
X138590000Y-119993738I0J-271738D01*
G01*
X138590000Y-120950262D01*
G75*
G02*
X138318262Y-121222000I-271738J0D01*
G01*
X137611738Y-121222000D01*
G75*
G02*
X137340000Y-120950262I0J271738D01*
G01*
G37*
G36*
G01*
X135290000Y-120950262D02*
X135290000Y-119993738D01*
G75*
G02*
X135561738Y-119722000I271738J0D01*
G01*
X136268262Y-119722000D01*
G75*
G02*
X136540000Y-119993738I0J-271738D01*
G01*
X136540000Y-120950262D01*
G75*
G02*
X136268262Y-121222000I-271738J0D01*
G01*
X135561738Y-121222000D01*
G75*
G02*
X135290000Y-120950262I0J271738D01*
G01*
G37*
%TD*%
%TO.C,R6*%
G36*
G01*
X137366000Y-116353262D02*
X137366000Y-115396738D01*
G75*
G02*
X137637738Y-115125000I271738J0D01*
G01*
X138344262Y-115125000D01*
G75*
G02*
X138616000Y-115396738I0J-271738D01*
G01*
X138616000Y-116353262D01*
G75*
G02*
X138344262Y-116625000I-271738J0D01*
G01*
X137637738Y-116625000D01*
G75*
G02*
X137366000Y-116353262I0J271738D01*
G01*
G37*
G36*
G01*
X135316000Y-116353262D02*
X135316000Y-115396738D01*
G75*
G02*
X135587738Y-115125000I271738J0D01*
G01*
X136294262Y-115125000D01*
G75*
G02*
X136566000Y-115396738I0J-271738D01*
G01*
X136566000Y-116353262D01*
G75*
G02*
X136294262Y-116625000I-271738J0D01*
G01*
X135587738Y-116625000D01*
G75*
G02*
X135316000Y-116353262I0J271738D01*
G01*
G37*
%TD*%
%TO.C,R5*%
G36*
G01*
X137366000Y-114194262D02*
X137366000Y-113237738D01*
G75*
G02*
X137637738Y-112966000I271738J0D01*
G01*
X138344262Y-112966000D01*
G75*
G02*
X138616000Y-113237738I0J-271738D01*
G01*
X138616000Y-114194262D01*
G75*
G02*
X138344262Y-114466000I-271738J0D01*
G01*
X137637738Y-114466000D01*
G75*
G02*
X137366000Y-114194262I0J271738D01*
G01*
G37*
G36*
G01*
X135316000Y-114194262D02*
X135316000Y-113237738D01*
G75*
G02*
X135587738Y-112966000I271738J0D01*
G01*
X136294262Y-112966000D01*
G75*
G02*
X136566000Y-113237738I0J-271738D01*
G01*
X136566000Y-114194262D01*
G75*
G02*
X136294262Y-114466000I-271738J0D01*
G01*
X135587738Y-114466000D01*
G75*
G02*
X135316000Y-114194262I0J271738D01*
G01*
G37*
%TD*%
%TO.C,R4*%
G36*
G01*
X137475000Y-109571262D02*
X137475000Y-108614738D01*
G75*
G02*
X137746738Y-108343000I271738J0D01*
G01*
X138453262Y-108343000D01*
G75*
G02*
X138725000Y-108614738I0J-271738D01*
G01*
X138725000Y-109571262D01*
G75*
G02*
X138453262Y-109843000I-271738J0D01*
G01*
X137746738Y-109843000D01*
G75*
G02*
X137475000Y-109571262I0J271738D01*
G01*
G37*
G36*
G01*
X135425000Y-109571262D02*
X135425000Y-108614738D01*
G75*
G02*
X135696738Y-108343000I271738J0D01*
G01*
X136403262Y-108343000D01*
G75*
G02*
X136675000Y-108614738I0J-271738D01*
G01*
X136675000Y-109571262D01*
G75*
G02*
X136403262Y-109843000I-271738J0D01*
G01*
X135696738Y-109843000D01*
G75*
G02*
X135425000Y-109571262I0J271738D01*
G01*
G37*
%TD*%
%TO.C,R3*%
G36*
G01*
X137493000Y-107412262D02*
X137493000Y-106455738D01*
G75*
G02*
X137764738Y-106184000I271738J0D01*
G01*
X138471262Y-106184000D01*
G75*
G02*
X138743000Y-106455738I0J-271738D01*
G01*
X138743000Y-107412262D01*
G75*
G02*
X138471262Y-107684000I-271738J0D01*
G01*
X137764738Y-107684000D01*
G75*
G02*
X137493000Y-107412262I0J271738D01*
G01*
G37*
G36*
G01*
X135443000Y-107412262D02*
X135443000Y-106455738D01*
G75*
G02*
X135714738Y-106184000I271738J0D01*
G01*
X136421262Y-106184000D01*
G75*
G02*
X136693000Y-106455738I0J-271738D01*
G01*
X136693000Y-107412262D01*
G75*
G02*
X136421262Y-107684000I-271738J0D01*
G01*
X135714738Y-107684000D01*
G75*
G02*
X135443000Y-107412262I0J271738D01*
G01*
G37*
%TD*%
%TO.C,R2*%
G36*
G01*
X137484000Y-102789262D02*
X137484000Y-101832738D01*
G75*
G02*
X137755738Y-101561000I271738J0D01*
G01*
X138462262Y-101561000D01*
G75*
G02*
X138734000Y-101832738I0J-271738D01*
G01*
X138734000Y-102789262D01*
G75*
G02*
X138462262Y-103061000I-271738J0D01*
G01*
X137755738Y-103061000D01*
G75*
G02*
X137484000Y-102789262I0J271738D01*
G01*
G37*
G36*
G01*
X135434000Y-102789262D02*
X135434000Y-101832738D01*
G75*
G02*
X135705738Y-101561000I271738J0D01*
G01*
X136412262Y-101561000D01*
G75*
G02*
X136684000Y-101832738I0J-271738D01*
G01*
X136684000Y-102789262D01*
G75*
G02*
X136412262Y-103061000I-271738J0D01*
G01*
X135705738Y-103061000D01*
G75*
G02*
X135434000Y-102789262I0J271738D01*
G01*
G37*
%TD*%
%TO.C,R1*%
G36*
G01*
X137475000Y-100630262D02*
X137475000Y-99673738D01*
G75*
G02*
X137746738Y-99402000I271738J0D01*
G01*
X138453262Y-99402000D01*
G75*
G02*
X138725000Y-99673738I0J-271738D01*
G01*
X138725000Y-100630262D01*
G75*
G02*
X138453262Y-100902000I-271738J0D01*
G01*
X137746738Y-100902000D01*
G75*
G02*
X137475000Y-100630262I0J271738D01*
G01*
G37*
G36*
G01*
X135425000Y-100630262D02*
X135425000Y-99673738D01*
G75*
G02*
X135696738Y-99402000I271738J0D01*
G01*
X136403262Y-99402000D01*
G75*
G02*
X136675000Y-99673738I0J-271738D01*
G01*
X136675000Y-100630262D01*
G75*
G02*
X136403262Y-100902000I-271738J0D01*
G01*
X135696738Y-100902000D01*
G75*
G02*
X135425000Y-100630262I0J271738D01*
G01*
G37*
%TD*%
D13*
%TO.C,Q1*%
X118907000Y-124775000D03*
X116907000Y-125725000D03*
X116907000Y-123825000D03*
%TD*%
D14*
%TO.C,JP1*%
G36*
X104049111Y-102680602D02*
G01*
X104067534Y-102680602D01*
X104072435Y-102680843D01*
X104121266Y-102685653D01*
X104126119Y-102686373D01*
X104174244Y-102695945D01*
X104179005Y-102697137D01*
X104225960Y-102711381D01*
X104230579Y-102713034D01*
X104275912Y-102731811D01*
X104280349Y-102733909D01*
X104323622Y-102757040D01*
X104327829Y-102759562D01*
X104368628Y-102786822D01*
X104372570Y-102789746D01*
X104410499Y-102820874D01*
X104414134Y-102824169D01*
X104448831Y-102858866D01*
X104452126Y-102862501D01*
X104483254Y-102900430D01*
X104486178Y-102904372D01*
X104513438Y-102945171D01*
X104515960Y-102949378D01*
X104539091Y-102992651D01*
X104541189Y-102997088D01*
X104559966Y-103042421D01*
X104561619Y-103047040D01*
X104575863Y-103093995D01*
X104577055Y-103098756D01*
X104586627Y-103146881D01*
X104587347Y-103151734D01*
X104592157Y-103200565D01*
X104592398Y-103205466D01*
X104592398Y-103223889D01*
X104593000Y-103230000D01*
X104593000Y-103730000D01*
X104592398Y-103736111D01*
X104592398Y-103754534D01*
X104592157Y-103759435D01*
X104587347Y-103808266D01*
X104586627Y-103813119D01*
X104577055Y-103861244D01*
X104575863Y-103866005D01*
X104561619Y-103912960D01*
X104559966Y-103917579D01*
X104541189Y-103962912D01*
X104539091Y-103967349D01*
X104515960Y-104010622D01*
X104513438Y-104014829D01*
X104486178Y-104055628D01*
X104483254Y-104059570D01*
X104452126Y-104097499D01*
X104448831Y-104101134D01*
X104414134Y-104135831D01*
X104410499Y-104139126D01*
X104372570Y-104170254D01*
X104368628Y-104173178D01*
X104327829Y-104200438D01*
X104323622Y-104202960D01*
X104280349Y-104226091D01*
X104275912Y-104228189D01*
X104230579Y-104246966D01*
X104225960Y-104248619D01*
X104179005Y-104262863D01*
X104174244Y-104264055D01*
X104126119Y-104273627D01*
X104121266Y-104274347D01*
X104072435Y-104279157D01*
X104067534Y-104279398D01*
X104049111Y-104279398D01*
X104043000Y-104280000D01*
X103543000Y-104280000D01*
X103533245Y-104279039D01*
X103523866Y-104276194D01*
X103515221Y-104271573D01*
X103507645Y-104265355D01*
X103501427Y-104257779D01*
X103496806Y-104249134D01*
X103493961Y-104239755D01*
X103493000Y-104230000D01*
X103493000Y-102730000D01*
X103493961Y-102720245D01*
X103496806Y-102710866D01*
X103501427Y-102702221D01*
X103507645Y-102694645D01*
X103515221Y-102688427D01*
X103523866Y-102683806D01*
X103533245Y-102680961D01*
X103543000Y-102680000D01*
X104043000Y-102680000D01*
X104049111Y-102680602D01*
G37*
G36*
X103252755Y-102680961D02*
G01*
X103262134Y-102683806D01*
X103270779Y-102688427D01*
X103278355Y-102694645D01*
X103284573Y-102702221D01*
X103289194Y-102710866D01*
X103292039Y-102720245D01*
X103293000Y-102730000D01*
X103293000Y-104230000D01*
X103292039Y-104239755D01*
X103289194Y-104249134D01*
X103284573Y-104257779D01*
X103278355Y-104265355D01*
X103270779Y-104271573D01*
X103262134Y-104276194D01*
X103252755Y-104279039D01*
X103243000Y-104280000D01*
X102743000Y-104280000D01*
X102736889Y-104279398D01*
X102718466Y-104279398D01*
X102713565Y-104279157D01*
X102664734Y-104274347D01*
X102659881Y-104273627D01*
X102611756Y-104264055D01*
X102606995Y-104262863D01*
X102560040Y-104248619D01*
X102555421Y-104246966D01*
X102510088Y-104228189D01*
X102505651Y-104226091D01*
X102462378Y-104202960D01*
X102458171Y-104200438D01*
X102417372Y-104173178D01*
X102413430Y-104170254D01*
X102375501Y-104139126D01*
X102371866Y-104135831D01*
X102337169Y-104101134D01*
X102333874Y-104097499D01*
X102302746Y-104059570D01*
X102299822Y-104055628D01*
X102272562Y-104014829D01*
X102270040Y-104010622D01*
X102246909Y-103967349D01*
X102244811Y-103962912D01*
X102226034Y-103917579D01*
X102224381Y-103912960D01*
X102210137Y-103866005D01*
X102208945Y-103861244D01*
X102199373Y-103813119D01*
X102198653Y-103808266D01*
X102193843Y-103759435D01*
X102193602Y-103754534D01*
X102193602Y-103736111D01*
X102193000Y-103730000D01*
X102193000Y-103230000D01*
X102193602Y-103223889D01*
X102193602Y-103205466D01*
X102193843Y-103200565D01*
X102198653Y-103151734D01*
X102199373Y-103146881D01*
X102208945Y-103098756D01*
X102210137Y-103093995D01*
X102224381Y-103047040D01*
X102226034Y-103042421D01*
X102244811Y-102997088D01*
X102246909Y-102992651D01*
X102270040Y-102949378D01*
X102272562Y-102945171D01*
X102299822Y-102904372D01*
X102302746Y-102900430D01*
X102333874Y-102862501D01*
X102337169Y-102858866D01*
X102371866Y-102824169D01*
X102375501Y-102820874D01*
X102413430Y-102789746D01*
X102417372Y-102786822D01*
X102458171Y-102759562D01*
X102462378Y-102757040D01*
X102505651Y-102733909D01*
X102510088Y-102731811D01*
X102555421Y-102713034D01*
X102560040Y-102711381D01*
X102606995Y-102697137D01*
X102611756Y-102695945D01*
X102659881Y-102686373D01*
X102664734Y-102685653D01*
X102713565Y-102680843D01*
X102718466Y-102680602D01*
X102736889Y-102680602D01*
X102743000Y-102680000D01*
X103243000Y-102680000D01*
X103252755Y-102680961D01*
G37*
%TD*%
D15*
%TO.C,J3*%
X112522000Y-134620000D03*
X115062000Y-134620000D03*
X117602000Y-134620000D03*
X120142000Y-134620000D03*
D16*
X122682000Y-134620000D03*
%TD*%
D15*
%TO.C,J2*%
X137922000Y-96774000D03*
X135382000Y-96774000D03*
X132842000Y-96774000D03*
D16*
X130302000Y-96774000D03*
%TD*%
D17*
%TO.C,J1*%
X89027000Y-103124000D03*
X89027000Y-104394000D03*
X89027000Y-105664000D03*
X89027000Y-106934000D03*
X89027000Y-108204000D03*
X89027000Y-109474000D03*
X89027000Y-110744000D03*
X89027000Y-112014000D03*
X89027000Y-113284000D03*
X89027000Y-114554000D03*
X89027000Y-115824000D03*
X89027000Y-117094000D03*
X89027000Y-118364000D03*
X89027000Y-119634000D03*
X89027000Y-120904000D03*
%TD*%
D18*
%TO.C,H4*%
X146604056Y-93552944D03*
X144907000Y-92850000D03*
X143209944Y-93552944D03*
X142507000Y-95250000D03*
X143209944Y-96947056D03*
X144907000Y-97650000D03*
X146604056Y-96947056D03*
X147307000Y-95250000D03*
D19*
X144907000Y-95250000D03*
%TD*%
D18*
%TO.C,H3*%
X92756056Y-93552944D03*
X91059000Y-92850000D03*
X89361944Y-93552944D03*
X88659000Y-95250000D03*
X89361944Y-96947056D03*
X91059000Y-97650000D03*
X92756056Y-96947056D03*
X93459000Y-95250000D03*
D19*
X91059000Y-95250000D03*
%TD*%
D18*
%TO.C,H2*%
X92756056Y-132922944D03*
X91059000Y-132220000D03*
X89361944Y-132922944D03*
X88659000Y-134620000D03*
X89361944Y-136317056D03*
X91059000Y-137020000D03*
X92756056Y-136317056D03*
X93459000Y-134620000D03*
D19*
X91059000Y-134620000D03*
%TD*%
D18*
%TO.C,H1*%
X146604056Y-132922944D03*
X144907000Y-132220000D03*
X143209944Y-132922944D03*
X142507000Y-134620000D03*
X143209944Y-136317056D03*
X144907000Y-137020000D03*
X146604056Y-136317056D03*
X147307000Y-134620000D03*
D19*
X144907000Y-134620000D03*
%TD*%
D13*
%TO.C,D2*%
X123301000Y-128524000D03*
X121301000Y-129474000D03*
X121301000Y-127574000D03*
%TD*%
%TO.C,D1*%
G36*
G01*
X113764000Y-103001738D02*
X113764000Y-103958262D01*
G75*
G02*
X113492262Y-104230000I-271738J0D01*
G01*
X112785738Y-104230000D01*
G75*
G02*
X112514000Y-103958262I0J271738D01*
G01*
X112514000Y-103001738D01*
G75*
G02*
X112785738Y-102730000I271738J0D01*
G01*
X113492262Y-102730000D01*
G75*
G02*
X113764000Y-103001738I0J-271738D01*
G01*
G37*
G36*
G01*
X115814000Y-103001738D02*
X115814000Y-103958262D01*
G75*
G02*
X115542262Y-104230000I-271738J0D01*
G01*
X114835738Y-104230000D01*
G75*
G02*
X114564000Y-103958262I0J271738D01*
G01*
X114564000Y-103001738D01*
G75*
G02*
X114835738Y-102730000I271738J0D01*
G01*
X115542262Y-102730000D01*
G75*
G02*
X115814000Y-103001738I0J-271738D01*
G01*
G37*
%TD*%
%TO.C,C8*%
G36*
G01*
X109698262Y-115636000D02*
X108741738Y-115636000D01*
G75*
G02*
X108470000Y-115364262I0J271738D01*
G01*
X108470000Y-114657738D01*
G75*
G02*
X108741738Y-114386000I271738J0D01*
G01*
X109698262Y-114386000D01*
G75*
G02*
X109970000Y-114657738I0J-271738D01*
G01*
X109970000Y-115364262D01*
G75*
G02*
X109698262Y-115636000I-271738J0D01*
G01*
G37*
G36*
G01*
X109698262Y-117686000D02*
X108741738Y-117686000D01*
G75*
G02*
X108470000Y-117414262I0J271738D01*
G01*
X108470000Y-116707738D01*
G75*
G02*
X108741738Y-116436000I271738J0D01*
G01*
X109698262Y-116436000D01*
G75*
G02*
X109970000Y-116707738I0J-271738D01*
G01*
X109970000Y-117414262D01*
G75*
G02*
X109698262Y-117686000I-271738J0D01*
G01*
G37*
%TD*%
%TO.C,C7*%
G36*
G01*
X93264462Y-103283000D02*
X92307938Y-103283000D01*
G75*
G02*
X92036200Y-103011262I0J271738D01*
G01*
X92036200Y-102304738D01*
G75*
G02*
X92307938Y-102033000I271738J0D01*
G01*
X93264462Y-102033000D01*
G75*
G02*
X93536200Y-102304738I0J-271738D01*
G01*
X93536200Y-103011262D01*
G75*
G02*
X93264462Y-103283000I-271738J0D01*
G01*
G37*
G36*
G01*
X93264462Y-105333000D02*
X92307938Y-105333000D01*
G75*
G02*
X92036200Y-105061262I0J271738D01*
G01*
X92036200Y-104354738D01*
G75*
G02*
X92307938Y-104083000I271738J0D01*
G01*
X93264462Y-104083000D01*
G75*
G02*
X93536200Y-104354738I0J-271738D01*
G01*
X93536200Y-105061262D01*
G75*
G02*
X93264462Y-105333000I-271738J0D01*
G01*
G37*
%TD*%
%TO.C,C6*%
G36*
G01*
X119225000Y-131093738D02*
X119225000Y-132050262D01*
G75*
G02*
X118953262Y-132322000I-271738J0D01*
G01*
X118246738Y-132322000D01*
G75*
G02*
X117975000Y-132050262I0J271738D01*
G01*
X117975000Y-131093738D01*
G75*
G02*
X118246738Y-130822000I271738J0D01*
G01*
X118953262Y-130822000D01*
G75*
G02*
X119225000Y-131093738I0J-271738D01*
G01*
G37*
G36*
G01*
X121275000Y-131093738D02*
X121275000Y-132050262D01*
G75*
G02*
X121003262Y-132322000I-271738J0D01*
G01*
X120296738Y-132322000D01*
G75*
G02*
X120025000Y-132050262I0J271738D01*
G01*
X120025000Y-131093738D01*
G75*
G02*
X120296738Y-130822000I271738J0D01*
G01*
X121003262Y-130822000D01*
G75*
G02*
X121275000Y-131093738I0J-271738D01*
G01*
G37*
%TD*%
%TO.C,C5*%
G36*
G01*
X102499000Y-108809262D02*
X102499000Y-107852738D01*
G75*
G02*
X102770738Y-107581000I271738J0D01*
G01*
X103477262Y-107581000D01*
G75*
G02*
X103749000Y-107852738I0J-271738D01*
G01*
X103749000Y-108809262D01*
G75*
G02*
X103477262Y-109081000I-271738J0D01*
G01*
X102770738Y-109081000D01*
G75*
G02*
X102499000Y-108809262I0J271738D01*
G01*
G37*
G36*
G01*
X100449000Y-108809262D02*
X100449000Y-107852738D01*
G75*
G02*
X100720738Y-107581000I271738J0D01*
G01*
X101427262Y-107581000D01*
G75*
G02*
X101699000Y-107852738I0J-271738D01*
G01*
X101699000Y-108809262D01*
G75*
G02*
X101427262Y-109081000I-271738J0D01*
G01*
X100720738Y-109081000D01*
G75*
G02*
X100449000Y-108809262I0J271738D01*
G01*
G37*
%TD*%
%TO.C,C4*%
G36*
G01*
X133828262Y-121130000D02*
X132871738Y-121130000D01*
G75*
G02*
X132600000Y-120858262I0J271738D01*
G01*
X132600000Y-120151738D01*
G75*
G02*
X132871738Y-119880000I271738J0D01*
G01*
X133828262Y-119880000D01*
G75*
G02*
X134100000Y-120151738I0J-271738D01*
G01*
X134100000Y-120858262D01*
G75*
G02*
X133828262Y-121130000I-271738J0D01*
G01*
G37*
G36*
G01*
X133828262Y-123180000D02*
X132871738Y-123180000D01*
G75*
G02*
X132600000Y-122908262I0J271738D01*
G01*
X132600000Y-122201738D01*
G75*
G02*
X132871738Y-121930000I271738J0D01*
G01*
X133828262Y-121930000D01*
G75*
G02*
X134100000Y-122201738I0J-271738D01*
G01*
X134100000Y-122908262D01*
G75*
G02*
X133828262Y-123180000I-271738J0D01*
G01*
G37*
%TD*%
%TO.C,C3*%
G36*
G01*
X132871738Y-113294000D02*
X133828262Y-113294000D01*
G75*
G02*
X134100000Y-113565738I0J-271738D01*
G01*
X134100000Y-114272262D01*
G75*
G02*
X133828262Y-114544000I-271738J0D01*
G01*
X132871738Y-114544000D01*
G75*
G02*
X132600000Y-114272262I0J271738D01*
G01*
X132600000Y-113565738D01*
G75*
G02*
X132871738Y-113294000I271738J0D01*
G01*
G37*
G36*
G01*
X132871738Y-111244000D02*
X133828262Y-111244000D01*
G75*
G02*
X134100000Y-111515738I0J-271738D01*
G01*
X134100000Y-112222262D01*
G75*
G02*
X133828262Y-112494000I-271738J0D01*
G01*
X132871738Y-112494000D01*
G75*
G02*
X132600000Y-112222262I0J271738D01*
G01*
X132600000Y-111515738D01*
G75*
G02*
X132871738Y-111244000I271738J0D01*
G01*
G37*
%TD*%
%TO.C,C2*%
G36*
G01*
X125573262Y-114925000D02*
X124616738Y-114925000D01*
G75*
G02*
X124345000Y-114653262I0J271738D01*
G01*
X124345000Y-113946738D01*
G75*
G02*
X124616738Y-113675000I271738J0D01*
G01*
X125573262Y-113675000D01*
G75*
G02*
X125845000Y-113946738I0J-271738D01*
G01*
X125845000Y-114653262D01*
G75*
G02*
X125573262Y-114925000I-271738J0D01*
G01*
G37*
G36*
G01*
X125573262Y-116975000D02*
X124616738Y-116975000D01*
G75*
G02*
X124345000Y-116703262I0J271738D01*
G01*
X124345000Y-115996738D01*
G75*
G02*
X124616738Y-115725000I271738J0D01*
G01*
X125573262Y-115725000D01*
G75*
G02*
X125845000Y-115996738I0J-271738D01*
G01*
X125845000Y-116703262D01*
G75*
G02*
X125573262Y-116975000I-271738J0D01*
G01*
G37*
%TD*%
%TO.C,C1*%
G36*
G01*
X96439462Y-103283000D02*
X95482938Y-103283000D01*
G75*
G02*
X95211200Y-103011262I0J271738D01*
G01*
X95211200Y-102304738D01*
G75*
G02*
X95482938Y-102033000I271738J0D01*
G01*
X96439462Y-102033000D01*
G75*
G02*
X96711200Y-102304738I0J-271738D01*
G01*
X96711200Y-103011262D01*
G75*
G02*
X96439462Y-103283000I-271738J0D01*
G01*
G37*
G36*
G01*
X96439462Y-105333000D02*
X95482938Y-105333000D01*
G75*
G02*
X95211200Y-105061262I0J271738D01*
G01*
X95211200Y-104354738D01*
G75*
G02*
X95482938Y-104083000I271738J0D01*
G01*
X96439462Y-104083000D01*
G75*
G02*
X96711200Y-104354738I0J-271738D01*
G01*
X96711200Y-105061262D01*
G75*
G02*
X96439462Y-105333000I-271738J0D01*
G01*
G37*
%TD*%
M02*
