%TF.GenerationSoftware,KiCad,Pcbnew,(5.1.6)-1*%
%TF.CreationDate,2020-05-21T20:48:38+03:00*%
%TF.ProjectId,Sharp G850-Interface,53686172-7020-4473-9835-302d496e7465,rev?*%
%TF.SameCoordinates,Original*%
%TF.FileFunction,Legend,Top*%
%TF.FilePolarity,Positive*%
%FSLAX46Y46*%
G04 Gerber Fmt 4.6, Leading zero omitted, Abs format (unit mm)*
G04 Created by KiCad (PCBNEW (5.1.6)-1) date 2020-05-21 20:48:38*
%MOMM*%
%LPD*%
G01*
G04 APERTURE LIST*
%ADD10C,0.150000*%
%ADD11C,0.200000*%
%ADD12C,0.120000*%
G04 APERTURE END LIST*
D10*
X188399523Y-120594380D02*
X188399523Y-119594380D01*
X188742380Y-120594380D02*
X188742380Y-120070571D01*
X188704285Y-119975333D01*
X188628095Y-119927714D01*
X188513809Y-119927714D01*
X188437619Y-119975333D01*
X188399523Y-120022952D01*
X189009047Y-119927714D02*
X189313809Y-119927714D01*
X189123333Y-119594380D02*
X189123333Y-120451523D01*
X189161428Y-120546761D01*
X189237619Y-120594380D01*
X189313809Y-120594380D01*
X189466190Y-119927714D02*
X189770952Y-119927714D01*
X189580476Y-119594380D02*
X189580476Y-120451523D01*
X189618571Y-120546761D01*
X189694761Y-120594380D01*
X189770952Y-120594380D01*
X190037619Y-119927714D02*
X190037619Y-120927714D01*
X190037619Y-119975333D02*
X190113809Y-119927714D01*
X190266190Y-119927714D01*
X190342380Y-119975333D01*
X190380476Y-120022952D01*
X190418571Y-120118190D01*
X190418571Y-120403904D01*
X190380476Y-120499142D01*
X190342380Y-120546761D01*
X190266190Y-120594380D01*
X190113809Y-120594380D01*
X190037619Y-120546761D01*
X190723333Y-120546761D02*
X190799523Y-120594380D01*
X190951904Y-120594380D01*
X191028095Y-120546761D01*
X191066190Y-120451523D01*
X191066190Y-120403904D01*
X191028095Y-120308666D01*
X190951904Y-120261047D01*
X190837619Y-120261047D01*
X190761428Y-120213428D01*
X190723333Y-120118190D01*
X190723333Y-120070571D01*
X190761428Y-119975333D01*
X190837619Y-119927714D01*
X190951904Y-119927714D01*
X191028095Y-119975333D01*
X191409047Y-120499142D02*
X191447142Y-120546761D01*
X191409047Y-120594380D01*
X191370952Y-120546761D01*
X191409047Y-120499142D01*
X191409047Y-120594380D01*
X191409047Y-119975333D02*
X191447142Y-120022952D01*
X191409047Y-120070571D01*
X191370952Y-120022952D01*
X191409047Y-119975333D01*
X191409047Y-120070571D01*
X192361428Y-119546761D02*
X191675714Y-120832476D01*
X193199523Y-119546761D02*
X192513809Y-120832476D01*
X193390000Y-119927714D02*
X193542380Y-120594380D01*
X193694761Y-120118190D01*
X193847142Y-120594380D01*
X193999523Y-119927714D01*
X194228095Y-119927714D02*
X194380476Y-120594380D01*
X194532857Y-120118190D01*
X194685238Y-120594380D01*
X194837619Y-119927714D01*
X195066190Y-119927714D02*
X195218571Y-120594380D01*
X195370952Y-120118190D01*
X195523333Y-120594380D01*
X195675714Y-119927714D01*
X195980476Y-120499142D02*
X196018571Y-120546761D01*
X195980476Y-120594380D01*
X195942380Y-120546761D01*
X195980476Y-120499142D01*
X195980476Y-120594380D01*
X196247142Y-119927714D02*
X196551904Y-119927714D01*
X196361428Y-119594380D02*
X196361428Y-120451523D01*
X196399523Y-120546761D01*
X196475714Y-120594380D01*
X196551904Y-120594380D01*
X196742380Y-119927714D02*
X196894761Y-120594380D01*
X197047142Y-120118190D01*
X197199523Y-120594380D01*
X197351904Y-119927714D01*
X197656666Y-120594380D02*
X197656666Y-119927714D01*
X197656666Y-119594380D02*
X197618571Y-119642000D01*
X197656666Y-119689619D01*
X197694761Y-119642000D01*
X197656666Y-119594380D01*
X197656666Y-119689619D01*
X197923333Y-119927714D02*
X198228095Y-119927714D01*
X198037619Y-119594380D02*
X198037619Y-120451523D01*
X198075714Y-120546761D01*
X198151904Y-120594380D01*
X198228095Y-120594380D01*
X198837619Y-120546761D02*
X198761428Y-120594380D01*
X198609047Y-120594380D01*
X198532857Y-120546761D01*
X198494761Y-120499142D01*
X198456666Y-120403904D01*
X198456666Y-120118190D01*
X198494761Y-120022952D01*
X198532857Y-119975333D01*
X198609047Y-119927714D01*
X198761428Y-119927714D01*
X198837619Y-119975333D01*
X199180476Y-120594380D02*
X199180476Y-119594380D01*
X199523333Y-120594380D02*
X199523333Y-120070571D01*
X199485238Y-119975333D01*
X199409047Y-119927714D01*
X199294761Y-119927714D01*
X199218571Y-119975333D01*
X199180476Y-120022952D01*
X199904285Y-120499142D02*
X199942380Y-120546761D01*
X199904285Y-120594380D01*
X199866190Y-120546761D01*
X199904285Y-120499142D01*
X199904285Y-120594380D01*
X200170952Y-119927714D02*
X200475714Y-119927714D01*
X200285238Y-119594380D02*
X200285238Y-120451523D01*
X200323333Y-120546761D01*
X200399523Y-120594380D01*
X200475714Y-120594380D01*
X200666190Y-119927714D02*
X200856666Y-120594380D01*
X201047142Y-119927714D01*
X201923333Y-119546761D02*
X201237619Y-120832476D01*
X202532857Y-120594380D02*
X202532857Y-120070571D01*
X202494761Y-119975333D01*
X202418571Y-119927714D01*
X202266190Y-119927714D01*
X202190000Y-119975333D01*
X202532857Y-120546761D02*
X202456666Y-120594380D01*
X202266190Y-120594380D01*
X202190000Y-120546761D01*
X202151904Y-120451523D01*
X202151904Y-120356285D01*
X202190000Y-120261047D01*
X202266190Y-120213428D01*
X202456666Y-120213428D01*
X202532857Y-120165809D01*
X203028095Y-120594380D02*
X202951904Y-120546761D01*
X202913809Y-120451523D01*
X202913809Y-119594380D01*
X203637619Y-120546761D02*
X203561428Y-120594380D01*
X203409047Y-120594380D01*
X203332857Y-120546761D01*
X203294761Y-120451523D01*
X203294761Y-120070571D01*
X203332857Y-119975333D01*
X203409047Y-119927714D01*
X203561428Y-119927714D01*
X203637619Y-119975333D01*
X203675714Y-120070571D01*
X203675714Y-120165809D01*
X203294761Y-120261047D01*
X203942380Y-120594380D02*
X204361428Y-119927714D01*
X203942380Y-119927714D02*
X204361428Y-120594380D01*
X204590000Y-120594380D02*
X205009047Y-119927714D01*
X204590000Y-119927714D02*
X205009047Y-120594380D01*
X205123333Y-120689619D02*
X205732857Y-120689619D01*
X206266190Y-120594380D02*
X206266190Y-120070571D01*
X206228095Y-119975333D01*
X206151904Y-119927714D01*
X205999523Y-119927714D01*
X205923333Y-119975333D01*
X206266190Y-120546761D02*
X206190000Y-120594380D01*
X205999523Y-120594380D01*
X205923333Y-120546761D01*
X205885238Y-120451523D01*
X205885238Y-120356285D01*
X205923333Y-120261047D01*
X205999523Y-120213428D01*
X206190000Y-120213428D01*
X206266190Y-120165809D01*
X206647142Y-119927714D02*
X206647142Y-120594380D01*
X206647142Y-120022952D02*
X206685238Y-119975333D01*
X206761428Y-119927714D01*
X206875714Y-119927714D01*
X206951904Y-119975333D01*
X206990000Y-120070571D01*
X206990000Y-120594380D01*
X207713809Y-120594380D02*
X207713809Y-119594380D01*
X207713809Y-120546761D02*
X207637619Y-120594380D01*
X207485238Y-120594380D01*
X207409047Y-120546761D01*
X207370952Y-120499142D01*
X207332857Y-120403904D01*
X207332857Y-120118190D01*
X207370952Y-120022952D01*
X207409047Y-119975333D01*
X207485238Y-119927714D01*
X207637619Y-119927714D01*
X207713809Y-119975333D01*
X207904285Y-120689619D02*
X208513809Y-120689619D01*
X208666190Y-120546761D02*
X208742380Y-120594380D01*
X208894761Y-120594380D01*
X208970952Y-120546761D01*
X209009047Y-120451523D01*
X209009047Y-120403904D01*
X208970952Y-120308666D01*
X208894761Y-120261047D01*
X208780476Y-120261047D01*
X208704285Y-120213428D01*
X208666190Y-120118190D01*
X208666190Y-120070571D01*
X208704285Y-119975333D01*
X208780476Y-119927714D01*
X208894761Y-119927714D01*
X208970952Y-119975333D01*
X209656666Y-120546761D02*
X209580476Y-120594380D01*
X209428095Y-120594380D01*
X209351904Y-120546761D01*
X209313809Y-120451523D01*
X209313809Y-120070571D01*
X209351904Y-119975333D01*
X209428095Y-119927714D01*
X209580476Y-119927714D01*
X209656666Y-119975333D01*
X209694761Y-120070571D01*
X209694761Y-120165809D01*
X209313809Y-120261047D01*
X210037619Y-120594380D02*
X210037619Y-119594380D01*
X210037619Y-119975333D02*
X210113809Y-119927714D01*
X210266190Y-119927714D01*
X210342380Y-119975333D01*
X210380476Y-120022952D01*
X210418571Y-120118190D01*
X210418571Y-120403904D01*
X210380476Y-120499142D01*
X210342380Y-120546761D01*
X210266190Y-120594380D01*
X210113809Y-120594380D01*
X210037619Y-120546761D01*
D11*
X167499142Y-89823857D02*
X167499142Y-88623857D01*
X168070571Y-89023857D02*
X168070571Y-89823857D01*
X168070571Y-89138142D02*
X168127714Y-89081000D01*
X168242000Y-89023857D01*
X168413428Y-89023857D01*
X168527714Y-89081000D01*
X168584857Y-89195285D01*
X168584857Y-89823857D01*
X168984857Y-89023857D02*
X169442000Y-89023857D01*
X169156285Y-88623857D02*
X169156285Y-89652428D01*
X169213428Y-89766714D01*
X169327714Y-89823857D01*
X169442000Y-89823857D01*
X170299142Y-89766714D02*
X170184857Y-89823857D01*
X169956285Y-89823857D01*
X169842000Y-89766714D01*
X169784857Y-89652428D01*
X169784857Y-89195285D01*
X169842000Y-89081000D01*
X169956285Y-89023857D01*
X170184857Y-89023857D01*
X170299142Y-89081000D01*
X170356285Y-89195285D01*
X170356285Y-89309571D01*
X169784857Y-89423857D01*
X170870571Y-89823857D02*
X170870571Y-89023857D01*
X170870571Y-89252428D02*
X170927714Y-89138142D01*
X170984857Y-89081000D01*
X171099142Y-89023857D01*
X171213428Y-89023857D01*
X171442000Y-89023857D02*
X171899142Y-89023857D01*
X171613428Y-89823857D02*
X171613428Y-88795285D01*
X171670571Y-88681000D01*
X171784857Y-88623857D01*
X171899142Y-88623857D01*
X172813428Y-89823857D02*
X172813428Y-89195285D01*
X172756285Y-89081000D01*
X172642000Y-89023857D01*
X172413428Y-89023857D01*
X172299142Y-89081000D01*
X172813428Y-89766714D02*
X172699142Y-89823857D01*
X172413428Y-89823857D01*
X172299142Y-89766714D01*
X172242000Y-89652428D01*
X172242000Y-89538142D01*
X172299142Y-89423857D01*
X172413428Y-89366714D01*
X172699142Y-89366714D01*
X172813428Y-89309571D01*
X173899142Y-89766714D02*
X173784857Y-89823857D01*
X173556285Y-89823857D01*
X173442000Y-89766714D01*
X173384857Y-89709571D01*
X173327714Y-89595285D01*
X173327714Y-89252428D01*
X173384857Y-89138142D01*
X173442000Y-89081000D01*
X173556285Y-89023857D01*
X173784857Y-89023857D01*
X173899142Y-89081000D01*
X174870571Y-89766714D02*
X174756285Y-89823857D01*
X174527714Y-89823857D01*
X174413428Y-89766714D01*
X174356285Y-89652428D01*
X174356285Y-89195285D01*
X174413428Y-89081000D01*
X174527714Y-89023857D01*
X174756285Y-89023857D01*
X174870571Y-89081000D01*
X174927714Y-89195285D01*
X174927714Y-89309571D01*
X174356285Y-89423857D01*
X176356285Y-88623857D02*
X176356285Y-89595285D01*
X176413428Y-89709571D01*
X176470571Y-89766714D01*
X176584857Y-89823857D01*
X176813428Y-89823857D01*
X176927714Y-89766714D01*
X176984857Y-89709571D01*
X177042000Y-89595285D01*
X177042000Y-88623857D01*
X177556285Y-89766714D02*
X177727714Y-89823857D01*
X178013428Y-89823857D01*
X178127714Y-89766714D01*
X178184857Y-89709571D01*
X178242000Y-89595285D01*
X178242000Y-89481000D01*
X178184857Y-89366714D01*
X178127714Y-89309571D01*
X178013428Y-89252428D01*
X177784857Y-89195285D01*
X177670571Y-89138142D01*
X177613428Y-89081000D01*
X177556285Y-88966714D01*
X177556285Y-88852428D01*
X177613428Y-88738142D01*
X177670571Y-88681000D01*
X177784857Y-88623857D01*
X178070571Y-88623857D01*
X178242000Y-88681000D01*
X179156285Y-89195285D02*
X179327714Y-89252428D01*
X179384857Y-89309571D01*
X179442000Y-89423857D01*
X179442000Y-89595285D01*
X179384857Y-89709571D01*
X179327714Y-89766714D01*
X179213428Y-89823857D01*
X178756285Y-89823857D01*
X178756285Y-88623857D01*
X179156285Y-88623857D01*
X179270571Y-88681000D01*
X179327714Y-88738142D01*
X179384857Y-88852428D01*
X179384857Y-88966714D01*
X179327714Y-89081000D01*
X179270571Y-89138142D01*
X179156285Y-89195285D01*
X178756285Y-89195285D01*
X180870571Y-89023857D02*
X180870571Y-90223857D01*
X180870571Y-89081000D02*
X180984857Y-89023857D01*
X181213428Y-89023857D01*
X181327714Y-89081000D01*
X181384857Y-89138142D01*
X181442000Y-89252428D01*
X181442000Y-89595285D01*
X181384857Y-89709571D01*
X181327714Y-89766714D01*
X181213428Y-89823857D01*
X180984857Y-89823857D01*
X180870571Y-89766714D01*
X182127714Y-89823857D02*
X182013428Y-89766714D01*
X181956285Y-89709571D01*
X181899142Y-89595285D01*
X181899142Y-89252428D01*
X181956285Y-89138142D01*
X182013428Y-89081000D01*
X182127714Y-89023857D01*
X182299142Y-89023857D01*
X182413428Y-89081000D01*
X182470571Y-89138142D01*
X182527714Y-89252428D01*
X182527714Y-89595285D01*
X182470571Y-89709571D01*
X182413428Y-89766714D01*
X182299142Y-89823857D01*
X182127714Y-89823857D01*
X183556285Y-89023857D02*
X183556285Y-89823857D01*
X183042000Y-89023857D02*
X183042000Y-89652428D01*
X183099142Y-89766714D01*
X183213428Y-89823857D01*
X183384857Y-89823857D01*
X183499142Y-89766714D01*
X183556285Y-89709571D01*
X184127714Y-89823857D02*
X184127714Y-89023857D01*
X184127714Y-89252428D02*
X184184857Y-89138142D01*
X184242000Y-89081000D01*
X184356285Y-89023857D01*
X184470571Y-89023857D01*
X185727714Y-89766714D02*
X185899142Y-89823857D01*
X186184857Y-89823857D01*
X186299142Y-89766714D01*
X186356285Y-89709571D01*
X186413428Y-89595285D01*
X186413428Y-89481000D01*
X186356285Y-89366714D01*
X186299142Y-89309571D01*
X186184857Y-89252428D01*
X185956285Y-89195285D01*
X185842000Y-89138142D01*
X185784857Y-89081000D01*
X185727714Y-88966714D01*
X185727714Y-88852428D01*
X185784857Y-88738142D01*
X185842000Y-88681000D01*
X185956285Y-88623857D01*
X186242000Y-88623857D01*
X186413428Y-88681000D01*
X186927714Y-89823857D02*
X186927714Y-88623857D01*
X187442000Y-89823857D02*
X187442000Y-89195285D01*
X187384857Y-89081000D01*
X187270571Y-89023857D01*
X187099142Y-89023857D01*
X186984857Y-89081000D01*
X186927714Y-89138142D01*
X188527714Y-89823857D02*
X188527714Y-89195285D01*
X188470571Y-89081000D01*
X188356285Y-89023857D01*
X188127714Y-89023857D01*
X188013428Y-89081000D01*
X188527714Y-89766714D02*
X188413428Y-89823857D01*
X188127714Y-89823857D01*
X188013428Y-89766714D01*
X187956285Y-89652428D01*
X187956285Y-89538142D01*
X188013428Y-89423857D01*
X188127714Y-89366714D01*
X188413428Y-89366714D01*
X188527714Y-89309571D01*
X189099142Y-89823857D02*
X189099142Y-89023857D01*
X189099142Y-89252428D02*
X189156285Y-89138142D01*
X189213428Y-89081000D01*
X189327714Y-89023857D01*
X189442000Y-89023857D01*
X189842000Y-89023857D02*
X189842000Y-90223857D01*
X189842000Y-89081000D02*
X189956285Y-89023857D01*
X190184857Y-89023857D01*
X190299142Y-89081000D01*
X190356285Y-89138142D01*
X190413428Y-89252428D01*
X190413428Y-89595285D01*
X190356285Y-89709571D01*
X190299142Y-89766714D01*
X190184857Y-89823857D01*
X189956285Y-89823857D01*
X189842000Y-89766714D01*
X191842000Y-89823857D02*
X191842000Y-88623857D01*
X192299142Y-88623857D01*
X192413428Y-88681000D01*
X192470571Y-88738142D01*
X192527714Y-88852428D01*
X192527714Y-89023857D01*
X192470571Y-89138142D01*
X192413428Y-89195285D01*
X192299142Y-89252428D01*
X191842000Y-89252428D01*
X193727714Y-89709571D02*
X193670571Y-89766714D01*
X193499142Y-89823857D01*
X193384857Y-89823857D01*
X193213428Y-89766714D01*
X193099142Y-89652428D01*
X193042000Y-89538142D01*
X192984857Y-89309571D01*
X192984857Y-89138142D01*
X193042000Y-88909571D01*
X193099142Y-88795285D01*
X193213428Y-88681000D01*
X193384857Y-88623857D01*
X193499142Y-88623857D01*
X193670571Y-88681000D01*
X193727714Y-88738142D01*
X194242000Y-89366714D02*
X195156285Y-89366714D01*
X196356285Y-88681000D02*
X196242000Y-88623857D01*
X196070571Y-88623857D01*
X195899142Y-88681000D01*
X195784857Y-88795285D01*
X195727714Y-88909571D01*
X195670571Y-89138142D01*
X195670571Y-89309571D01*
X195727714Y-89538142D01*
X195784857Y-89652428D01*
X195899142Y-89766714D01*
X196070571Y-89823857D01*
X196184857Y-89823857D01*
X196356285Y-89766714D01*
X196413428Y-89709571D01*
X196413428Y-89309571D01*
X196184857Y-89309571D01*
X197099142Y-89138142D02*
X196984857Y-89081000D01*
X196927714Y-89023857D01*
X196870571Y-88909571D01*
X196870571Y-88852428D01*
X196927714Y-88738142D01*
X196984857Y-88681000D01*
X197099142Y-88623857D01*
X197327714Y-88623857D01*
X197442000Y-88681000D01*
X197499142Y-88738142D01*
X197556285Y-88852428D01*
X197556285Y-88909571D01*
X197499142Y-89023857D01*
X197442000Y-89081000D01*
X197327714Y-89138142D01*
X197099142Y-89138142D01*
X196984857Y-89195285D01*
X196927714Y-89252428D01*
X196870571Y-89366714D01*
X196870571Y-89595285D01*
X196927714Y-89709571D01*
X196984857Y-89766714D01*
X197099142Y-89823857D01*
X197327714Y-89823857D01*
X197442000Y-89766714D01*
X197499142Y-89709571D01*
X197556285Y-89595285D01*
X197556285Y-89366714D01*
X197499142Y-89252428D01*
X197442000Y-89195285D01*
X197327714Y-89138142D01*
X198642000Y-88623857D02*
X198070571Y-88623857D01*
X198013428Y-89195285D01*
X198070571Y-89138142D01*
X198184857Y-89081000D01*
X198470571Y-89081000D01*
X198584857Y-89138142D01*
X198642000Y-89195285D01*
X198699142Y-89309571D01*
X198699142Y-89595285D01*
X198642000Y-89709571D01*
X198584857Y-89766714D01*
X198470571Y-89823857D01*
X198184857Y-89823857D01*
X198070571Y-89766714D01*
X198013428Y-89709571D01*
X199442000Y-88623857D02*
X199556285Y-88623857D01*
X199670571Y-88681000D01*
X199727714Y-88738142D01*
X199784857Y-88852428D01*
X199842000Y-89081000D01*
X199842000Y-89366714D01*
X199784857Y-89595285D01*
X199727714Y-89709571D01*
X199670571Y-89766714D01*
X199556285Y-89823857D01*
X199442000Y-89823857D01*
X199327714Y-89766714D01*
X199270571Y-89709571D01*
X199213428Y-89595285D01*
X199156285Y-89366714D01*
X199156285Y-89081000D01*
X199213428Y-88852428D01*
X199270571Y-88738142D01*
X199327714Y-88681000D01*
X199442000Y-88623857D01*
D10*
X182022904Y-118070380D02*
X182641952Y-118070380D01*
X182308619Y-118451333D01*
X182451476Y-118451333D01*
X182546714Y-118498952D01*
X182594333Y-118546571D01*
X182641952Y-118641809D01*
X182641952Y-118879904D01*
X182594333Y-118975142D01*
X182546714Y-119022761D01*
X182451476Y-119070380D01*
X182165761Y-119070380D01*
X182070523Y-119022761D01*
X182022904Y-118975142D01*
X182927666Y-118070380D02*
X183261000Y-119070380D01*
X183594333Y-118070380D01*
X183832428Y-118070380D02*
X184451476Y-118070380D01*
X184118142Y-118451333D01*
X184261000Y-118451333D01*
X184356238Y-118498952D01*
X184403857Y-118546571D01*
X184451476Y-118641809D01*
X184451476Y-118879904D01*
X184403857Y-118975142D01*
X184356238Y-119022761D01*
X184261000Y-119070380D01*
X183975285Y-119070380D01*
X183880047Y-119022761D01*
X183832428Y-118975142D01*
X176847523Y-118070380D02*
X176371333Y-118070380D01*
X176323714Y-118546571D01*
X176371333Y-118498952D01*
X176466571Y-118451333D01*
X176704666Y-118451333D01*
X176799904Y-118498952D01*
X176847523Y-118546571D01*
X176895142Y-118641809D01*
X176895142Y-118879904D01*
X176847523Y-118975142D01*
X176799904Y-119022761D01*
X176704666Y-119070380D01*
X176466571Y-119070380D01*
X176371333Y-119022761D01*
X176323714Y-118975142D01*
X177180857Y-118070380D02*
X177514190Y-119070380D01*
X177847523Y-118070380D01*
D11*
X177101904Y-114260380D02*
X177435238Y-115260380D01*
X177768571Y-114260380D01*
X178673333Y-115165142D02*
X178625714Y-115212761D01*
X178482857Y-115260380D01*
X178387619Y-115260380D01*
X178244761Y-115212761D01*
X178149523Y-115117523D01*
X178101904Y-115022285D01*
X178054285Y-114831809D01*
X178054285Y-114688952D01*
X178101904Y-114498476D01*
X178149523Y-114403238D01*
X178244761Y-114308000D01*
X178387619Y-114260380D01*
X178482857Y-114260380D01*
X178625714Y-114308000D01*
X178673333Y-114355619D01*
X179673333Y-115165142D02*
X179625714Y-115212761D01*
X179482857Y-115260380D01*
X179387619Y-115260380D01*
X179244761Y-115212761D01*
X179149523Y-115117523D01*
X179101904Y-115022285D01*
X179054285Y-114831809D01*
X179054285Y-114688952D01*
X179101904Y-114498476D01*
X179149523Y-114403238D01*
X179244761Y-114308000D01*
X179387619Y-114260380D01*
X179482857Y-114260380D01*
X179625714Y-114308000D01*
X179673333Y-114355619D01*
X180101904Y-114879428D02*
X180863809Y-114879428D01*
X181340000Y-115260380D02*
X181340000Y-114260380D01*
X182530476Y-114212761D02*
X181673333Y-115498476D01*
X183054285Y-114260380D02*
X183244761Y-114260380D01*
X183340000Y-114308000D01*
X183435238Y-114403238D01*
X183482857Y-114593714D01*
X183482857Y-114927047D01*
X183435238Y-115117523D01*
X183340000Y-115212761D01*
X183244761Y-115260380D01*
X183054285Y-115260380D01*
X182959047Y-115212761D01*
X182863809Y-115117523D01*
X182816190Y-114927047D01*
X182816190Y-114593714D01*
X182863809Y-114403238D01*
X182959047Y-114308000D01*
X183054285Y-114260380D01*
D10*
X195905428Y-117570095D02*
X195905428Y-116808190D01*
X196286380Y-117189142D02*
X195524476Y-117189142D01*
X195286380Y-116474857D02*
X195286380Y-115903428D01*
X196286380Y-116189142D02*
X195286380Y-116189142D01*
X195286380Y-115665333D02*
X196286380Y-114998666D01*
X195286380Y-114998666D02*
X196286380Y-115665333D01*
X191587428Y-117689142D02*
X191587428Y-116927238D01*
X191968380Y-117308190D02*
X191206476Y-117308190D01*
X191968380Y-115879619D02*
X191492190Y-116212952D01*
X191968380Y-116451047D02*
X190968380Y-116451047D01*
X190968380Y-116070095D01*
X191016000Y-115974857D01*
X191063619Y-115927238D01*
X191158857Y-115879619D01*
X191301714Y-115879619D01*
X191396952Y-115927238D01*
X191444571Y-115974857D01*
X191492190Y-116070095D01*
X191492190Y-116451047D01*
X190968380Y-115546285D02*
X191968380Y-114879619D01*
X190968380Y-114879619D02*
X191968380Y-115546285D01*
X175847619Y-98496380D02*
X175847619Y-97496380D01*
X176228571Y-97496380D01*
X176323809Y-97544000D01*
X176371428Y-97591619D01*
X176419047Y-97686857D01*
X176419047Y-97829714D01*
X176371428Y-97924952D01*
X176323809Y-97972571D01*
X176228571Y-98020190D01*
X175847619Y-98020190D01*
X176752380Y-97496380D02*
X176990476Y-98496380D01*
X177180952Y-97782095D01*
X177371428Y-98496380D01*
X177609523Y-97496380D01*
X178561904Y-98496380D02*
X178228571Y-98020190D01*
X177990476Y-98496380D02*
X177990476Y-97496380D01*
X178371428Y-97496380D01*
X178466666Y-97544000D01*
X178514285Y-97591619D01*
X178561904Y-97686857D01*
X178561904Y-97829714D01*
X178514285Y-97924952D01*
X178466666Y-97972571D01*
X178371428Y-98020190D01*
X177990476Y-98020190D01*
X178990476Y-98115428D02*
X179752380Y-98115428D01*
X179371428Y-98496380D02*
X179371428Y-97734476D01*
D12*
X193040000Y-98552000D02*
G75*
G03*
X193040000Y-98552000I-254000J0D01*
G01*
D10*
%TO.C,U1*%
X191694000Y-99233000D02*
X191694000Y-97633000D01*
X181619000Y-99233000D02*
X181619000Y-104983000D01*
X192269000Y-99233000D02*
X192269000Y-104983000D01*
X181619000Y-99233000D02*
X182269000Y-99233000D01*
X181619000Y-104983000D02*
X182269000Y-104983000D01*
X192269000Y-104983000D02*
X191619000Y-104983000D01*
X192269000Y-99233000D02*
X191694000Y-99233000D01*
D12*
%TO.C,R13*%
X207466000Y-100328252D02*
X207466000Y-99805748D01*
X206046000Y-100328252D02*
X206046000Y-99805748D01*
%TO.C,R12*%
X202436252Y-100382000D02*
X201913748Y-100382000D01*
X202436252Y-101802000D02*
X201913748Y-101802000D01*
%TO.C,R11*%
X206046000Y-114555748D02*
X206046000Y-115078252D01*
X207466000Y-114555748D02*
X207466000Y-115078252D01*
%TO.C,R10*%
X202436252Y-113082000D02*
X201913748Y-113082000D01*
X202436252Y-114502000D02*
X201913748Y-114502000D01*
%TO.C,R9*%
X206046000Y-109475748D02*
X206046000Y-109998252D01*
X207466000Y-109475748D02*
X207466000Y-109998252D01*
%TO.C,R8*%
X202436252Y-108002000D02*
X201913748Y-108002000D01*
X202436252Y-109422000D02*
X201913748Y-109422000D01*
%TO.C,R7*%
X207466000Y-105408252D02*
X207466000Y-104885748D01*
X206046000Y-105408252D02*
X206046000Y-104885748D01*
%TO.C,R6*%
X202436252Y-105462000D02*
X201913748Y-105462000D01*
X202436252Y-106882000D02*
X201913748Y-106882000D01*
%TO.C,R5*%
X190448000Y-111776252D02*
X190448000Y-111253748D01*
X189028000Y-111776252D02*
X189028000Y-111253748D01*
%TO.C,R4*%
X194766000Y-111767252D02*
X194766000Y-111244748D01*
X193346000Y-111767252D02*
X193346000Y-111244748D01*
%TO.C,R3*%
X177045252Y-103938000D02*
X176522748Y-103938000D01*
X177045252Y-105358000D02*
X176522748Y-105358000D01*
%TO.C,R2*%
X177036252Y-106224000D02*
X176513748Y-106224000D01*
X177036252Y-107644000D02*
X176513748Y-107644000D01*
%TO.C,R1*%
X172736252Y-95556000D02*
X172213748Y-95556000D01*
X172736252Y-96976000D02*
X172213748Y-96976000D01*
%TO.C,JP2*%
X177738000Y-117840000D02*
X176338000Y-117840000D01*
X175638000Y-117140000D02*
X175638000Y-116540000D01*
X176338000Y-115840000D02*
X177738000Y-115840000D01*
X178438000Y-116540000D02*
X178438000Y-117140000D01*
X178438000Y-117140000D02*
G75*
G02*
X177738000Y-117840000I-700000J0D01*
G01*
X177738000Y-115840000D02*
G75*
G02*
X178438000Y-116540000I0J-700000D01*
G01*
X175638000Y-116540000D02*
G75*
G02*
X176338000Y-115840000I700000J0D01*
G01*
X176338000Y-117840000D02*
G75*
G02*
X175638000Y-117140000I0J700000D01*
G01*
%TO.C,JP1*%
X183946000Y-117840000D02*
X182546000Y-117840000D01*
X181846000Y-117140000D02*
X181846000Y-116540000D01*
X182546000Y-115840000D02*
X183946000Y-115840000D01*
X184646000Y-116540000D02*
X184646000Y-117140000D01*
X184646000Y-117140000D02*
G75*
G02*
X183946000Y-117840000I-700000J0D01*
G01*
X183946000Y-115840000D02*
G75*
G02*
X184646000Y-116540000I0J-700000D01*
G01*
X181846000Y-116540000D02*
G75*
G02*
X182546000Y-115840000I700000J0D01*
G01*
X182546000Y-117840000D02*
G75*
G02*
X181846000Y-117140000I0J700000D01*
G01*
%TO.C,J3*%
X211268000Y-92142000D02*
X212598000Y-92142000D01*
X211268000Y-93472000D02*
X211268000Y-92142000D01*
X211268000Y-94742000D02*
X213928000Y-94742000D01*
X213928000Y-94742000D02*
X213928000Y-120202000D01*
X211268000Y-94742000D02*
X211268000Y-120202000D01*
X211268000Y-120202000D02*
X213928000Y-120202000D01*
%TO.C,J1*%
X170968500Y-103964000D02*
X170518500Y-103964000D01*
X170968500Y-103964000D02*
X170968500Y-104414000D01*
X170418500Y-109564000D02*
X170418500Y-109114000D01*
X168568500Y-109564000D02*
X170418500Y-109564000D01*
X166018500Y-101764000D02*
X166268500Y-101764000D01*
X166018500Y-109564000D02*
X166268500Y-109564000D01*
X168568500Y-101764000D02*
X170418500Y-101764000D01*
X170418500Y-101764000D02*
X170418500Y-102214000D01*
%TO.C,FB1*%
X178052252Y-90476000D02*
X177529748Y-90476000D01*
X178052252Y-91896000D02*
X177529748Y-91896000D01*
%TO.C,F1*%
X173031564Y-90334000D02*
X171827436Y-90334000D01*
X173031564Y-93054000D02*
X171827436Y-93054000D01*
%TO.C,D3*%
X188778000Y-114463000D02*
X188778000Y-117323000D01*
X190698000Y-114463000D02*
X188778000Y-114463000D01*
X190698000Y-117323000D02*
X190698000Y-114463000D01*
%TO.C,D2*%
X193096000Y-114481000D02*
X193096000Y-117341000D01*
X195016000Y-114481000D02*
X193096000Y-114481000D01*
X195016000Y-117341000D02*
X195016000Y-114481000D01*
%TO.C,D1*%
X175949000Y-97226000D02*
X178809000Y-97226000D01*
X175949000Y-95306000D02*
X175949000Y-97226000D01*
X178809000Y-95306000D02*
X175949000Y-95306000D01*
%TO.C,C4*%
X184913748Y-109422000D02*
X185436252Y-109422000D01*
X184913748Y-108002000D02*
X185436252Y-108002000D01*
%TO.C,C3*%
X187504000Y-91940748D02*
X187504000Y-92463252D01*
X188924000Y-91940748D02*
X188924000Y-92463252D01*
%TO.C,C2*%
X183948000Y-91940748D02*
X183948000Y-92463252D01*
X185368000Y-91940748D02*
X185368000Y-92463252D01*
%TO.C,C1*%
X180646000Y-91940748D02*
X180646000Y-92463252D01*
X182066000Y-91940748D02*
X182066000Y-92463252D01*
%TO.C,J2*%
D10*
X220713666Y-90654380D02*
X220713666Y-91368666D01*
X220666047Y-91511523D01*
X220570809Y-91606761D01*
X220427952Y-91654380D01*
X220332714Y-91654380D01*
X221142238Y-90749619D02*
X221189857Y-90702000D01*
X221285095Y-90654380D01*
X221523190Y-90654380D01*
X221618428Y-90702000D01*
X221666047Y-90749619D01*
X221713666Y-90844857D01*
X221713666Y-90940095D01*
X221666047Y-91082952D01*
X221094619Y-91654380D01*
X221713666Y-91654380D01*
%TO.C,U1*%
X192646380Y-102869904D02*
X193455904Y-102869904D01*
X193551142Y-102822285D01*
X193598761Y-102774666D01*
X193646380Y-102679428D01*
X193646380Y-102488952D01*
X193598761Y-102393714D01*
X193551142Y-102346095D01*
X193455904Y-102298476D01*
X192646380Y-102298476D01*
X193646380Y-101298476D02*
X193646380Y-101869904D01*
X193646380Y-101584190D02*
X192646380Y-101584190D01*
X192789238Y-101679428D01*
X192884476Y-101774666D01*
X192932095Y-101869904D01*
%TO.C,R13*%
X208732380Y-100718857D02*
X208256190Y-101052190D01*
X208732380Y-101290285D02*
X207732380Y-101290285D01*
X207732380Y-100909333D01*
X207780000Y-100814095D01*
X207827619Y-100766476D01*
X207922857Y-100718857D01*
X208065714Y-100718857D01*
X208160952Y-100766476D01*
X208208571Y-100814095D01*
X208256190Y-100909333D01*
X208256190Y-101290285D01*
X208732380Y-99766476D02*
X208732380Y-100337904D01*
X208732380Y-100052190D02*
X207732380Y-100052190D01*
X207875238Y-100147428D01*
X207970476Y-100242666D01*
X208018095Y-100337904D01*
X207732380Y-99433142D02*
X207732380Y-98814095D01*
X208113333Y-99147428D01*
X208113333Y-99004571D01*
X208160952Y-98909333D01*
X208208571Y-98861714D01*
X208303809Y-98814095D01*
X208541904Y-98814095D01*
X208637142Y-98861714D01*
X208684761Y-98909333D01*
X208732380Y-99004571D01*
X208732380Y-99290285D01*
X208684761Y-99385523D01*
X208637142Y-99433142D01*
%TO.C,R12*%
X201541142Y-100020380D02*
X201207809Y-99544190D01*
X200969714Y-100020380D02*
X200969714Y-99020380D01*
X201350666Y-99020380D01*
X201445904Y-99068000D01*
X201493523Y-99115619D01*
X201541142Y-99210857D01*
X201541142Y-99353714D01*
X201493523Y-99448952D01*
X201445904Y-99496571D01*
X201350666Y-99544190D01*
X200969714Y-99544190D01*
X202493523Y-100020380D02*
X201922095Y-100020380D01*
X202207809Y-100020380D02*
X202207809Y-99020380D01*
X202112571Y-99163238D01*
X202017333Y-99258476D01*
X201922095Y-99306095D01*
X202874476Y-99115619D02*
X202922095Y-99068000D01*
X203017333Y-99020380D01*
X203255428Y-99020380D01*
X203350666Y-99068000D01*
X203398285Y-99115619D01*
X203445904Y-99210857D01*
X203445904Y-99306095D01*
X203398285Y-99448952D01*
X202826857Y-100020380D01*
X203445904Y-100020380D01*
%TO.C,R11*%
X208732380Y-115450857D02*
X208256190Y-115784190D01*
X208732380Y-116022285D02*
X207732380Y-116022285D01*
X207732380Y-115641333D01*
X207780000Y-115546095D01*
X207827619Y-115498476D01*
X207922857Y-115450857D01*
X208065714Y-115450857D01*
X208160952Y-115498476D01*
X208208571Y-115546095D01*
X208256190Y-115641333D01*
X208256190Y-116022285D01*
X208732380Y-114498476D02*
X208732380Y-115069904D01*
X208732380Y-114784190D02*
X207732380Y-114784190D01*
X207875238Y-114879428D01*
X207970476Y-114974666D01*
X208018095Y-115069904D01*
X208732380Y-113546095D02*
X208732380Y-114117523D01*
X208732380Y-113831809D02*
X207732380Y-113831809D01*
X207875238Y-113927047D01*
X207970476Y-114022285D01*
X208018095Y-114117523D01*
%TO.C,R10*%
X201532142Y-115768380D02*
X201198809Y-115292190D01*
X200960714Y-115768380D02*
X200960714Y-114768380D01*
X201341666Y-114768380D01*
X201436904Y-114816000D01*
X201484523Y-114863619D01*
X201532142Y-114958857D01*
X201532142Y-115101714D01*
X201484523Y-115196952D01*
X201436904Y-115244571D01*
X201341666Y-115292190D01*
X200960714Y-115292190D01*
X202484523Y-115768380D02*
X201913095Y-115768380D01*
X202198809Y-115768380D02*
X202198809Y-114768380D01*
X202103571Y-114911238D01*
X202008333Y-115006476D01*
X201913095Y-115054095D01*
X203103571Y-114768380D02*
X203198809Y-114768380D01*
X203294047Y-114816000D01*
X203341666Y-114863619D01*
X203389285Y-114958857D01*
X203436904Y-115149333D01*
X203436904Y-115387428D01*
X203389285Y-115577904D01*
X203341666Y-115673142D01*
X203294047Y-115720761D01*
X203198809Y-115768380D01*
X203103571Y-115768380D01*
X203008333Y-115720761D01*
X202960714Y-115673142D01*
X202913095Y-115577904D01*
X202865476Y-115387428D01*
X202865476Y-115149333D01*
X202913095Y-114958857D01*
X202960714Y-114863619D01*
X203008333Y-114816000D01*
X203103571Y-114768380D01*
%TO.C,R9*%
X208732380Y-109894666D02*
X208256190Y-110228000D01*
X208732380Y-110466095D02*
X207732380Y-110466095D01*
X207732380Y-110085142D01*
X207780000Y-109989904D01*
X207827619Y-109942285D01*
X207922857Y-109894666D01*
X208065714Y-109894666D01*
X208160952Y-109942285D01*
X208208571Y-109989904D01*
X208256190Y-110085142D01*
X208256190Y-110466095D01*
X208732380Y-109418476D02*
X208732380Y-109228000D01*
X208684761Y-109132761D01*
X208637142Y-109085142D01*
X208494285Y-108989904D01*
X208303809Y-108942285D01*
X207922857Y-108942285D01*
X207827619Y-108989904D01*
X207780000Y-109037523D01*
X207732380Y-109132761D01*
X207732380Y-109323238D01*
X207780000Y-109418476D01*
X207827619Y-109466095D01*
X207922857Y-109513714D01*
X208160952Y-109513714D01*
X208256190Y-109466095D01*
X208303809Y-109418476D01*
X208351428Y-109323238D01*
X208351428Y-109132761D01*
X208303809Y-109037523D01*
X208256190Y-108989904D01*
X208160952Y-108942285D01*
%TO.C,R8*%
X202008333Y-110688380D02*
X201675000Y-110212190D01*
X201436904Y-110688380D02*
X201436904Y-109688380D01*
X201817857Y-109688380D01*
X201913095Y-109736000D01*
X201960714Y-109783619D01*
X202008333Y-109878857D01*
X202008333Y-110021714D01*
X201960714Y-110116952D01*
X201913095Y-110164571D01*
X201817857Y-110212190D01*
X201436904Y-110212190D01*
X202579761Y-110116952D02*
X202484523Y-110069333D01*
X202436904Y-110021714D01*
X202389285Y-109926476D01*
X202389285Y-109878857D01*
X202436904Y-109783619D01*
X202484523Y-109736000D01*
X202579761Y-109688380D01*
X202770238Y-109688380D01*
X202865476Y-109736000D01*
X202913095Y-109783619D01*
X202960714Y-109878857D01*
X202960714Y-109926476D01*
X202913095Y-110021714D01*
X202865476Y-110069333D01*
X202770238Y-110116952D01*
X202579761Y-110116952D01*
X202484523Y-110164571D01*
X202436904Y-110212190D01*
X202389285Y-110307428D01*
X202389285Y-110497904D01*
X202436904Y-110593142D01*
X202484523Y-110640761D01*
X202579761Y-110688380D01*
X202770238Y-110688380D01*
X202865476Y-110640761D01*
X202913095Y-110593142D01*
X202960714Y-110497904D01*
X202960714Y-110307428D01*
X202913095Y-110212190D01*
X202865476Y-110164571D01*
X202770238Y-110116952D01*
%TO.C,R7*%
X208732380Y-105322666D02*
X208256190Y-105656000D01*
X208732380Y-105894095D02*
X207732380Y-105894095D01*
X207732380Y-105513142D01*
X207780000Y-105417904D01*
X207827619Y-105370285D01*
X207922857Y-105322666D01*
X208065714Y-105322666D01*
X208160952Y-105370285D01*
X208208571Y-105417904D01*
X208256190Y-105513142D01*
X208256190Y-105894095D01*
X207732380Y-104989333D02*
X207732380Y-104322666D01*
X208732380Y-104751238D01*
%TO.C,R6*%
X202008333Y-105100380D02*
X201675000Y-104624190D01*
X201436904Y-105100380D02*
X201436904Y-104100380D01*
X201817857Y-104100380D01*
X201913095Y-104148000D01*
X201960714Y-104195619D01*
X202008333Y-104290857D01*
X202008333Y-104433714D01*
X201960714Y-104528952D01*
X201913095Y-104576571D01*
X201817857Y-104624190D01*
X201436904Y-104624190D01*
X202865476Y-104100380D02*
X202675000Y-104100380D01*
X202579761Y-104148000D01*
X202532142Y-104195619D01*
X202436904Y-104338476D01*
X202389285Y-104528952D01*
X202389285Y-104909904D01*
X202436904Y-105005142D01*
X202484523Y-105052761D01*
X202579761Y-105100380D01*
X202770238Y-105100380D01*
X202865476Y-105052761D01*
X202913095Y-105005142D01*
X202960714Y-104909904D01*
X202960714Y-104671809D01*
X202913095Y-104576571D01*
X202865476Y-104528952D01*
X202770238Y-104481333D01*
X202579761Y-104481333D01*
X202484523Y-104528952D01*
X202436904Y-104576571D01*
X202389285Y-104671809D01*
%TO.C,R5*%
X191714380Y-111681666D02*
X191238190Y-112015000D01*
X191714380Y-112253095D02*
X190714380Y-112253095D01*
X190714380Y-111872142D01*
X190762000Y-111776904D01*
X190809619Y-111729285D01*
X190904857Y-111681666D01*
X191047714Y-111681666D01*
X191142952Y-111729285D01*
X191190571Y-111776904D01*
X191238190Y-111872142D01*
X191238190Y-112253095D01*
X190714380Y-110776904D02*
X190714380Y-111253095D01*
X191190571Y-111300714D01*
X191142952Y-111253095D01*
X191095333Y-111157857D01*
X191095333Y-110919761D01*
X191142952Y-110824523D01*
X191190571Y-110776904D01*
X191285809Y-110729285D01*
X191523904Y-110729285D01*
X191619142Y-110776904D01*
X191666761Y-110824523D01*
X191714380Y-110919761D01*
X191714380Y-111157857D01*
X191666761Y-111253095D01*
X191619142Y-111300714D01*
%TO.C,R4*%
X196032380Y-111672666D02*
X195556190Y-112006000D01*
X196032380Y-112244095D02*
X195032380Y-112244095D01*
X195032380Y-111863142D01*
X195080000Y-111767904D01*
X195127619Y-111720285D01*
X195222857Y-111672666D01*
X195365714Y-111672666D01*
X195460952Y-111720285D01*
X195508571Y-111767904D01*
X195556190Y-111863142D01*
X195556190Y-112244095D01*
X195365714Y-110815523D02*
X196032380Y-110815523D01*
X194984761Y-111053619D02*
X195699047Y-111291714D01*
X195699047Y-110672666D01*
%TO.C,R3*%
X176617333Y-103576380D02*
X176284000Y-103100190D01*
X176045904Y-103576380D02*
X176045904Y-102576380D01*
X176426857Y-102576380D01*
X176522095Y-102624000D01*
X176569714Y-102671619D01*
X176617333Y-102766857D01*
X176617333Y-102909714D01*
X176569714Y-103004952D01*
X176522095Y-103052571D01*
X176426857Y-103100190D01*
X176045904Y-103100190D01*
X176950666Y-102576380D02*
X177569714Y-102576380D01*
X177236380Y-102957333D01*
X177379238Y-102957333D01*
X177474476Y-103004952D01*
X177522095Y-103052571D01*
X177569714Y-103147809D01*
X177569714Y-103385904D01*
X177522095Y-103481142D01*
X177474476Y-103528761D01*
X177379238Y-103576380D01*
X177093523Y-103576380D01*
X176998285Y-103528761D01*
X176950666Y-103481142D01*
%TO.C,R2*%
X176608333Y-109036380D02*
X176275000Y-108560190D01*
X176036904Y-109036380D02*
X176036904Y-108036380D01*
X176417857Y-108036380D01*
X176513095Y-108084000D01*
X176560714Y-108131619D01*
X176608333Y-108226857D01*
X176608333Y-108369714D01*
X176560714Y-108464952D01*
X176513095Y-108512571D01*
X176417857Y-108560190D01*
X176036904Y-108560190D01*
X176989285Y-108131619D02*
X177036904Y-108084000D01*
X177132142Y-108036380D01*
X177370238Y-108036380D01*
X177465476Y-108084000D01*
X177513095Y-108131619D01*
X177560714Y-108226857D01*
X177560714Y-108322095D01*
X177513095Y-108464952D01*
X176941666Y-109036380D01*
X177560714Y-109036380D01*
%TO.C,R1*%
X172308333Y-98368380D02*
X171975000Y-97892190D01*
X171736904Y-98368380D02*
X171736904Y-97368380D01*
X172117857Y-97368380D01*
X172213095Y-97416000D01*
X172260714Y-97463619D01*
X172308333Y-97558857D01*
X172308333Y-97701714D01*
X172260714Y-97796952D01*
X172213095Y-97844571D01*
X172117857Y-97892190D01*
X171736904Y-97892190D01*
X173260714Y-98368380D02*
X172689285Y-98368380D01*
X172975000Y-98368380D02*
X172975000Y-97368380D01*
X172879761Y-97511238D01*
X172784523Y-97606476D01*
X172689285Y-97654095D01*
%TO.C,J1*%
X171220880Y-105997333D02*
X171935166Y-105997333D01*
X172078023Y-106044952D01*
X172173261Y-106140190D01*
X172220880Y-106283047D01*
X172220880Y-106378285D01*
X172220880Y-104997333D02*
X172220880Y-105568761D01*
X172220880Y-105283047D02*
X171220880Y-105283047D01*
X171363738Y-105378285D01*
X171458976Y-105473523D01*
X171506595Y-105568761D01*
%TO.C,FB1*%
X176957666Y-92764571D02*
X176624333Y-92764571D01*
X176624333Y-93288380D02*
X176624333Y-92288380D01*
X177100523Y-92288380D01*
X177814809Y-92764571D02*
X177957666Y-92812190D01*
X178005285Y-92859809D01*
X178052904Y-92955047D01*
X178052904Y-93097904D01*
X178005285Y-93193142D01*
X177957666Y-93240761D01*
X177862428Y-93288380D01*
X177481476Y-93288380D01*
X177481476Y-92288380D01*
X177814809Y-92288380D01*
X177910047Y-92336000D01*
X177957666Y-92383619D01*
X178005285Y-92478857D01*
X178005285Y-92574095D01*
X177957666Y-92669333D01*
X177910047Y-92716952D01*
X177814809Y-92764571D01*
X177481476Y-92764571D01*
X179005285Y-93288380D02*
X178433857Y-93288380D01*
X178719571Y-93288380D02*
X178719571Y-92288380D01*
X178624333Y-92431238D01*
X178529095Y-92526476D01*
X178433857Y-92574095D01*
%TO.C,F1*%
X172096166Y-93902571D02*
X171762833Y-93902571D01*
X171762833Y-94426380D02*
X171762833Y-93426380D01*
X172239023Y-93426380D01*
X173143785Y-94426380D02*
X172572357Y-94426380D01*
X172858071Y-94426380D02*
X172858071Y-93426380D01*
X172762833Y-93569238D01*
X172667595Y-93664476D01*
X172572357Y-93712095D01*
%TO.C,C4*%
X184999333Y-110593142D02*
X184951714Y-110640761D01*
X184808857Y-110688380D01*
X184713619Y-110688380D01*
X184570761Y-110640761D01*
X184475523Y-110545523D01*
X184427904Y-110450285D01*
X184380285Y-110259809D01*
X184380285Y-110116952D01*
X184427904Y-109926476D01*
X184475523Y-109831238D01*
X184570761Y-109736000D01*
X184713619Y-109688380D01*
X184808857Y-109688380D01*
X184951714Y-109736000D01*
X184999333Y-109783619D01*
X185856476Y-110021714D02*
X185856476Y-110688380D01*
X185618380Y-109640761D02*
X185380285Y-110355047D01*
X185999333Y-110355047D01*
%TO.C,C3*%
X190221142Y-92368666D02*
X190268761Y-92416285D01*
X190316380Y-92559142D01*
X190316380Y-92654380D01*
X190268761Y-92797238D01*
X190173523Y-92892476D01*
X190078285Y-92940095D01*
X189887809Y-92987714D01*
X189744952Y-92987714D01*
X189554476Y-92940095D01*
X189459238Y-92892476D01*
X189364000Y-92797238D01*
X189316380Y-92654380D01*
X189316380Y-92559142D01*
X189364000Y-92416285D01*
X189411619Y-92368666D01*
X189316380Y-92035333D02*
X189316380Y-91416285D01*
X189697333Y-91749619D01*
X189697333Y-91606761D01*
X189744952Y-91511523D01*
X189792571Y-91463904D01*
X189887809Y-91416285D01*
X190125904Y-91416285D01*
X190221142Y-91463904D01*
X190268761Y-91511523D01*
X190316380Y-91606761D01*
X190316380Y-91892476D01*
X190268761Y-91987714D01*
X190221142Y-92035333D01*
%TO.C,C2*%
X186665142Y-92368666D02*
X186712761Y-92416285D01*
X186760380Y-92559142D01*
X186760380Y-92654380D01*
X186712761Y-92797238D01*
X186617523Y-92892476D01*
X186522285Y-92940095D01*
X186331809Y-92987714D01*
X186188952Y-92987714D01*
X185998476Y-92940095D01*
X185903238Y-92892476D01*
X185808000Y-92797238D01*
X185760380Y-92654380D01*
X185760380Y-92559142D01*
X185808000Y-92416285D01*
X185855619Y-92368666D01*
X185855619Y-91987714D02*
X185808000Y-91940095D01*
X185760380Y-91844857D01*
X185760380Y-91606761D01*
X185808000Y-91511523D01*
X185855619Y-91463904D01*
X185950857Y-91416285D01*
X186046095Y-91416285D01*
X186188952Y-91463904D01*
X186760380Y-92035333D01*
X186760380Y-91416285D01*
%TO.C,C1*%
X183363142Y-92368666D02*
X183410761Y-92416285D01*
X183458380Y-92559142D01*
X183458380Y-92654380D01*
X183410761Y-92797238D01*
X183315523Y-92892476D01*
X183220285Y-92940095D01*
X183029809Y-92987714D01*
X182886952Y-92987714D01*
X182696476Y-92940095D01*
X182601238Y-92892476D01*
X182506000Y-92797238D01*
X182458380Y-92654380D01*
X182458380Y-92559142D01*
X182506000Y-92416285D01*
X182553619Y-92368666D01*
X183458380Y-91416285D02*
X183458380Y-91987714D01*
X183458380Y-91702000D02*
X182458380Y-91702000D01*
X182601238Y-91797238D01*
X182696476Y-91892476D01*
X182744095Y-91987714D01*
%TD*%
M02*
