M48
; DRILL file {KiCad (5.1.6)-1} date 05/21/20 20:49:08
; FORMAT={-:-/ absolute / metric / decimal}
; #@! TF.CreationDate,2020-05-21T20:49:08+03:00
; #@! TF.GenerationSoftware,Kicad,Pcbnew,(5.1.6)-1
; #@! TF.FileFunction,Plated,1,2,PTH
FMAT,2
METRIC
T1C0.400
T2C0.600
T3C0.850
T4C1.000
%
G90
G05
T1
X167.64Y-87.63
X167.64Y-92.71
X167.64Y-97.79
X167.64Y-111.76
X167.64Y-116.84
X167.64Y-121.92
X172.72Y-87.63
X172.72Y-121.92
X172.974Y-98.806
X176.53Y-113.538
X177.8Y-87.63
X177.8Y-121.92
X182.88Y-87.63
X182.88Y-121.92
X184.404Y-104.14
X186.69Y-96.774
X187.452Y-101.346
X187.452Y-110.49
X187.96Y-87.63
X187.96Y-121.92
X188.214Y-114.046
X188.976Y-101.346
X188.976Y-103.632
X190.5Y-101.562
X191.262Y-103.378
X191.77Y-100.33
X191.77Y-113.792
X193.04Y-87.63
X193.04Y-121.92
X193.294Y-99.568
X193.51Y-95.758
X193.51Y-97.028
X193.548Y-103.632
X195.326Y-95.758
X195.326Y-98.806
X195.58Y-102.616
X196.85Y-105.372
X198.12Y-87.63
X198.12Y-121.92
X198.374Y-108.712
X199.39Y-107.188
X203.2Y-87.63
X203.2Y-121.92
X208.28Y-87.63
X208.28Y-121.92
X209.296Y-107.442
X213.36Y-87.63
X213.36Y-121.92
X218.44Y-87.63
X218.44Y-92.71
X218.44Y-97.79
X218.44Y-102.87
X218.44Y-107.95
X218.44Y-111.76
X218.44Y-116.84
X218.44Y-121.92
T3
X170.118Y-103.164
X170.118Y-108.164
T4
X216.662Y-93.472
X216.662Y-96.012
X216.662Y-98.552
X216.662Y-101.092
X216.662Y-103.632
X216.662Y-106.172
X216.662Y-108.712
X216.662Y-111.252
X216.662Y-113.792
X216.662Y-116.332
X216.662Y-118.872
X212.598Y-93.472
X212.598Y-96.012
X212.598Y-98.552
X212.598Y-101.092
X212.598Y-103.632
X212.598Y-106.172
X212.598Y-108.712
X212.598Y-111.252
X212.598Y-113.792
X212.598Y-116.332
X212.598Y-118.872
T2
G00X167.069Y-102.164
M15
G01X167.768Y-102.164
M16
G05
G00X167.768Y-109.164
M15
G01X167.069Y-109.164
M16
G05
T0
M30
