%TF.GenerationSoftware,KiCad,Pcbnew,(5.1.6)-1*%
%TF.CreationDate,2020-05-21T20:48:38+03:00*%
%TF.ProjectId,Sharp G850-Interface,53686172-7020-4473-9835-302d496e7465,rev?*%
%TF.SameCoordinates,Original*%
%TF.FileFunction,Paste,Top*%
%TF.FilePolarity,Positive*%
%FSLAX46Y46*%
G04 Gerber Fmt 4.6, Leading zero omitted, Abs format (unit mm)*
G04 Created by KiCad (PCBNEW (5.1.6)-1) date 2020-05-21 20:48:38*
%MOMM*%
%LPD*%
G01*
G04 APERTURE LIST*
%ADD10R,0.450000X1.750000*%
%ADD11R,1.900000X1.500000*%
%ADD12R,1.350000X0.400000*%
G04 APERTURE END LIST*
D10*
%TO.C,U1*%
X191169000Y-105708000D03*
X190519000Y-105708000D03*
X189869000Y-105708000D03*
X189219000Y-105708000D03*
X188569000Y-105708000D03*
X187919000Y-105708000D03*
X187269000Y-105708000D03*
X186619000Y-105708000D03*
X185969000Y-105708000D03*
X185319000Y-105708000D03*
X184669000Y-105708000D03*
X184019000Y-105708000D03*
X183369000Y-105708000D03*
X182719000Y-105708000D03*
X182719000Y-98508000D03*
X183369000Y-98508000D03*
X184019000Y-98508000D03*
X184669000Y-98508000D03*
X185319000Y-98508000D03*
X185969000Y-98508000D03*
X186619000Y-98508000D03*
X187269000Y-98508000D03*
X187919000Y-98508000D03*
X188569000Y-98508000D03*
X189219000Y-98508000D03*
X189869000Y-98508000D03*
X190519000Y-98508000D03*
X191169000Y-98508000D03*
%TD*%
%TO.C,R13*%
G36*
G01*
X207206001Y-99617000D02*
X206305999Y-99617000D01*
G75*
G02*
X206056000Y-99367001I0J249999D01*
G01*
X206056000Y-98716999D01*
G75*
G02*
X206305999Y-98467000I249999J0D01*
G01*
X207206001Y-98467000D01*
G75*
G02*
X207456000Y-98716999I0J-249999D01*
G01*
X207456000Y-99367001D01*
G75*
G02*
X207206001Y-99617000I-249999J0D01*
G01*
G37*
G36*
G01*
X207206001Y-101667000D02*
X206305999Y-101667000D01*
G75*
G02*
X206056000Y-101417001I0J249999D01*
G01*
X206056000Y-100766999D01*
G75*
G02*
X206305999Y-100517000I249999J0D01*
G01*
X207206001Y-100517000D01*
G75*
G02*
X207456000Y-100766999I0J-249999D01*
G01*
X207456000Y-101417001D01*
G75*
G02*
X207206001Y-101667000I-249999J0D01*
G01*
G37*
%TD*%
%TO.C,R12*%
G36*
G01*
X201725000Y-100641999D02*
X201725000Y-101542001D01*
G75*
G02*
X201475001Y-101792000I-249999J0D01*
G01*
X200824999Y-101792000D01*
G75*
G02*
X200575000Y-101542001I0J249999D01*
G01*
X200575000Y-100641999D01*
G75*
G02*
X200824999Y-100392000I249999J0D01*
G01*
X201475001Y-100392000D01*
G75*
G02*
X201725000Y-100641999I0J-249999D01*
G01*
G37*
G36*
G01*
X203775000Y-100641999D02*
X203775000Y-101542001D01*
G75*
G02*
X203525001Y-101792000I-249999J0D01*
G01*
X202874999Y-101792000D01*
G75*
G02*
X202625000Y-101542001I0J249999D01*
G01*
X202625000Y-100641999D01*
G75*
G02*
X202874999Y-100392000I249999J0D01*
G01*
X203525001Y-100392000D01*
G75*
G02*
X203775000Y-100641999I0J-249999D01*
G01*
G37*
%TD*%
%TO.C,R11*%
G36*
G01*
X206305999Y-115267000D02*
X207206001Y-115267000D01*
G75*
G02*
X207456000Y-115516999I0J-249999D01*
G01*
X207456000Y-116167001D01*
G75*
G02*
X207206001Y-116417000I-249999J0D01*
G01*
X206305999Y-116417000D01*
G75*
G02*
X206056000Y-116167001I0J249999D01*
G01*
X206056000Y-115516999D01*
G75*
G02*
X206305999Y-115267000I249999J0D01*
G01*
G37*
G36*
G01*
X206305999Y-113217000D02*
X207206001Y-113217000D01*
G75*
G02*
X207456000Y-113466999I0J-249999D01*
G01*
X207456000Y-114117001D01*
G75*
G02*
X207206001Y-114367000I-249999J0D01*
G01*
X206305999Y-114367000D01*
G75*
G02*
X206056000Y-114117001I0J249999D01*
G01*
X206056000Y-113466999D01*
G75*
G02*
X206305999Y-113217000I249999J0D01*
G01*
G37*
%TD*%
%TO.C,R10*%
G36*
G01*
X201725000Y-113341999D02*
X201725000Y-114242001D01*
G75*
G02*
X201475001Y-114492000I-249999J0D01*
G01*
X200824999Y-114492000D01*
G75*
G02*
X200575000Y-114242001I0J249999D01*
G01*
X200575000Y-113341999D01*
G75*
G02*
X200824999Y-113092000I249999J0D01*
G01*
X201475001Y-113092000D01*
G75*
G02*
X201725000Y-113341999I0J-249999D01*
G01*
G37*
G36*
G01*
X203775000Y-113341999D02*
X203775000Y-114242001D01*
G75*
G02*
X203525001Y-114492000I-249999J0D01*
G01*
X202874999Y-114492000D01*
G75*
G02*
X202625000Y-114242001I0J249999D01*
G01*
X202625000Y-113341999D01*
G75*
G02*
X202874999Y-113092000I249999J0D01*
G01*
X203525001Y-113092000D01*
G75*
G02*
X203775000Y-113341999I0J-249999D01*
G01*
G37*
%TD*%
%TO.C,R9*%
G36*
G01*
X206305999Y-110187000D02*
X207206001Y-110187000D01*
G75*
G02*
X207456000Y-110436999I0J-249999D01*
G01*
X207456000Y-111087001D01*
G75*
G02*
X207206001Y-111337000I-249999J0D01*
G01*
X206305999Y-111337000D01*
G75*
G02*
X206056000Y-111087001I0J249999D01*
G01*
X206056000Y-110436999D01*
G75*
G02*
X206305999Y-110187000I249999J0D01*
G01*
G37*
G36*
G01*
X206305999Y-108137000D02*
X207206001Y-108137000D01*
G75*
G02*
X207456000Y-108386999I0J-249999D01*
G01*
X207456000Y-109037001D01*
G75*
G02*
X207206001Y-109287000I-249999J0D01*
G01*
X206305999Y-109287000D01*
G75*
G02*
X206056000Y-109037001I0J249999D01*
G01*
X206056000Y-108386999D01*
G75*
G02*
X206305999Y-108137000I249999J0D01*
G01*
G37*
%TD*%
%TO.C,R8*%
G36*
G01*
X201725000Y-108261999D02*
X201725000Y-109162001D01*
G75*
G02*
X201475001Y-109412000I-249999J0D01*
G01*
X200824999Y-109412000D01*
G75*
G02*
X200575000Y-109162001I0J249999D01*
G01*
X200575000Y-108261999D01*
G75*
G02*
X200824999Y-108012000I249999J0D01*
G01*
X201475001Y-108012000D01*
G75*
G02*
X201725000Y-108261999I0J-249999D01*
G01*
G37*
G36*
G01*
X203775000Y-108261999D02*
X203775000Y-109162001D01*
G75*
G02*
X203525001Y-109412000I-249999J0D01*
G01*
X202874999Y-109412000D01*
G75*
G02*
X202625000Y-109162001I0J249999D01*
G01*
X202625000Y-108261999D01*
G75*
G02*
X202874999Y-108012000I249999J0D01*
G01*
X203525001Y-108012000D01*
G75*
G02*
X203775000Y-108261999I0J-249999D01*
G01*
G37*
%TD*%
%TO.C,R7*%
G36*
G01*
X207206001Y-104697000D02*
X206305999Y-104697000D01*
G75*
G02*
X206056000Y-104447001I0J249999D01*
G01*
X206056000Y-103796999D01*
G75*
G02*
X206305999Y-103547000I249999J0D01*
G01*
X207206001Y-103547000D01*
G75*
G02*
X207456000Y-103796999I0J-249999D01*
G01*
X207456000Y-104447001D01*
G75*
G02*
X207206001Y-104697000I-249999J0D01*
G01*
G37*
G36*
G01*
X207206001Y-106747000D02*
X206305999Y-106747000D01*
G75*
G02*
X206056000Y-106497001I0J249999D01*
G01*
X206056000Y-105846999D01*
G75*
G02*
X206305999Y-105597000I249999J0D01*
G01*
X207206001Y-105597000D01*
G75*
G02*
X207456000Y-105846999I0J-249999D01*
G01*
X207456000Y-106497001D01*
G75*
G02*
X207206001Y-106747000I-249999J0D01*
G01*
G37*
%TD*%
%TO.C,R6*%
G36*
G01*
X201725000Y-105721999D02*
X201725000Y-106622001D01*
G75*
G02*
X201475001Y-106872000I-249999J0D01*
G01*
X200824999Y-106872000D01*
G75*
G02*
X200575000Y-106622001I0J249999D01*
G01*
X200575000Y-105721999D01*
G75*
G02*
X200824999Y-105472000I249999J0D01*
G01*
X201475001Y-105472000D01*
G75*
G02*
X201725000Y-105721999I0J-249999D01*
G01*
G37*
G36*
G01*
X203775000Y-105721999D02*
X203775000Y-106622001D01*
G75*
G02*
X203525001Y-106872000I-249999J0D01*
G01*
X202874999Y-106872000D01*
G75*
G02*
X202625000Y-106622001I0J249999D01*
G01*
X202625000Y-105721999D01*
G75*
G02*
X202874999Y-105472000I249999J0D01*
G01*
X203525001Y-105472000D01*
G75*
G02*
X203775000Y-105721999I0J-249999D01*
G01*
G37*
%TD*%
%TO.C,R5*%
G36*
G01*
X190188001Y-111065000D02*
X189287999Y-111065000D01*
G75*
G02*
X189038000Y-110815001I0J249999D01*
G01*
X189038000Y-110164999D01*
G75*
G02*
X189287999Y-109915000I249999J0D01*
G01*
X190188001Y-109915000D01*
G75*
G02*
X190438000Y-110164999I0J-249999D01*
G01*
X190438000Y-110815001D01*
G75*
G02*
X190188001Y-111065000I-249999J0D01*
G01*
G37*
G36*
G01*
X190188001Y-113115000D02*
X189287999Y-113115000D01*
G75*
G02*
X189038000Y-112865001I0J249999D01*
G01*
X189038000Y-112214999D01*
G75*
G02*
X189287999Y-111965000I249999J0D01*
G01*
X190188001Y-111965000D01*
G75*
G02*
X190438000Y-112214999I0J-249999D01*
G01*
X190438000Y-112865001D01*
G75*
G02*
X190188001Y-113115000I-249999J0D01*
G01*
G37*
%TD*%
%TO.C,R4*%
G36*
G01*
X194506001Y-111056000D02*
X193605999Y-111056000D01*
G75*
G02*
X193356000Y-110806001I0J249999D01*
G01*
X193356000Y-110155999D01*
G75*
G02*
X193605999Y-109906000I249999J0D01*
G01*
X194506001Y-109906000D01*
G75*
G02*
X194756000Y-110155999I0J-249999D01*
G01*
X194756000Y-110806001D01*
G75*
G02*
X194506001Y-111056000I-249999J0D01*
G01*
G37*
G36*
G01*
X194506001Y-113106000D02*
X193605999Y-113106000D01*
G75*
G02*
X193356000Y-112856001I0J249999D01*
G01*
X193356000Y-112205999D01*
G75*
G02*
X193605999Y-111956000I249999J0D01*
G01*
X194506001Y-111956000D01*
G75*
G02*
X194756000Y-112205999I0J-249999D01*
G01*
X194756000Y-112856001D01*
G75*
G02*
X194506001Y-113106000I-249999J0D01*
G01*
G37*
%TD*%
%TO.C,R3*%
G36*
G01*
X176334000Y-104197999D02*
X176334000Y-105098001D01*
G75*
G02*
X176084001Y-105348000I-249999J0D01*
G01*
X175433999Y-105348000D01*
G75*
G02*
X175184000Y-105098001I0J249999D01*
G01*
X175184000Y-104197999D01*
G75*
G02*
X175433999Y-103948000I249999J0D01*
G01*
X176084001Y-103948000D01*
G75*
G02*
X176334000Y-104197999I0J-249999D01*
G01*
G37*
G36*
G01*
X178384000Y-104197999D02*
X178384000Y-105098001D01*
G75*
G02*
X178134001Y-105348000I-249999J0D01*
G01*
X177483999Y-105348000D01*
G75*
G02*
X177234000Y-105098001I0J249999D01*
G01*
X177234000Y-104197999D01*
G75*
G02*
X177483999Y-103948000I249999J0D01*
G01*
X178134001Y-103948000D01*
G75*
G02*
X178384000Y-104197999I0J-249999D01*
G01*
G37*
%TD*%
%TO.C,R2*%
G36*
G01*
X176325000Y-106483999D02*
X176325000Y-107384001D01*
G75*
G02*
X176075001Y-107634000I-249999J0D01*
G01*
X175424999Y-107634000D01*
G75*
G02*
X175175000Y-107384001I0J249999D01*
G01*
X175175000Y-106483999D01*
G75*
G02*
X175424999Y-106234000I249999J0D01*
G01*
X176075001Y-106234000D01*
G75*
G02*
X176325000Y-106483999I0J-249999D01*
G01*
G37*
G36*
G01*
X178375000Y-106483999D02*
X178375000Y-107384001D01*
G75*
G02*
X178125001Y-107634000I-249999J0D01*
G01*
X177474999Y-107634000D01*
G75*
G02*
X177225000Y-107384001I0J249999D01*
G01*
X177225000Y-106483999D01*
G75*
G02*
X177474999Y-106234000I249999J0D01*
G01*
X178125001Y-106234000D01*
G75*
G02*
X178375000Y-106483999I0J-249999D01*
G01*
G37*
%TD*%
%TO.C,R1*%
G36*
G01*
X172025000Y-95815999D02*
X172025000Y-96716001D01*
G75*
G02*
X171775001Y-96966000I-249999J0D01*
G01*
X171124999Y-96966000D01*
G75*
G02*
X170875000Y-96716001I0J249999D01*
G01*
X170875000Y-95815999D01*
G75*
G02*
X171124999Y-95566000I249999J0D01*
G01*
X171775001Y-95566000D01*
G75*
G02*
X172025000Y-95815999I0J-249999D01*
G01*
G37*
G36*
G01*
X174075000Y-95815999D02*
X174075000Y-96716001D01*
G75*
G02*
X173825001Y-96966000I-249999J0D01*
G01*
X173174999Y-96966000D01*
G75*
G02*
X172925000Y-96716001I0J249999D01*
G01*
X172925000Y-95815999D01*
G75*
G02*
X173174999Y-95566000I249999J0D01*
G01*
X173825001Y-95566000D01*
G75*
G02*
X174075000Y-95815999I0J-249999D01*
G01*
G37*
%TD*%
D11*
%TO.C,J1*%
X167418500Y-104664000D03*
D12*
X170118500Y-105664000D03*
X170118500Y-106314000D03*
X170118500Y-106964000D03*
X170118500Y-104364000D03*
X170118500Y-105014000D03*
D11*
X167418500Y-106664000D03*
%TD*%
%TO.C,FB1*%
G36*
G01*
X177341000Y-90735999D02*
X177341000Y-91636001D01*
G75*
G02*
X177091001Y-91886000I-249999J0D01*
G01*
X176440999Y-91886000D01*
G75*
G02*
X176191000Y-91636001I0J249999D01*
G01*
X176191000Y-90735999D01*
G75*
G02*
X176440999Y-90486000I249999J0D01*
G01*
X177091001Y-90486000D01*
G75*
G02*
X177341000Y-90735999I0J-249999D01*
G01*
G37*
G36*
G01*
X179391000Y-90735999D02*
X179391000Y-91636001D01*
G75*
G02*
X179141001Y-91886000I-249999J0D01*
G01*
X178490999Y-91886000D01*
G75*
G02*
X178241000Y-91636001I0J249999D01*
G01*
X178241000Y-90735999D01*
G75*
G02*
X178490999Y-90486000I249999J0D01*
G01*
X179141001Y-90486000D01*
G75*
G02*
X179391000Y-90735999I0J-249999D01*
G01*
G37*
%TD*%
%TO.C,F1*%
G36*
G01*
X171654500Y-90619000D02*
X171654500Y-92769000D01*
G75*
G02*
X171404500Y-93019000I-250000J0D01*
G01*
X170479500Y-93019000D01*
G75*
G02*
X170229500Y-92769000I0J250000D01*
G01*
X170229500Y-90619000D01*
G75*
G02*
X170479500Y-90369000I250000J0D01*
G01*
X171404500Y-90369000D01*
G75*
G02*
X171654500Y-90619000I0J-250000D01*
G01*
G37*
G36*
G01*
X174629500Y-90619000D02*
X174629500Y-92769000D01*
G75*
G02*
X174379500Y-93019000I-250000J0D01*
G01*
X173454500Y-93019000D01*
G75*
G02*
X173204500Y-92769000I0J250000D01*
G01*
X173204500Y-90619000D01*
G75*
G02*
X173454500Y-90369000I250000J0D01*
G01*
X174379500Y-90369000D01*
G75*
G02*
X174629500Y-90619000I0J-250000D01*
G01*
G37*
%TD*%
%TO.C,D3*%
G36*
G01*
X189287999Y-116773000D02*
X190188001Y-116773000D01*
G75*
G02*
X190438000Y-117022999I0J-249999D01*
G01*
X190438000Y-117673001D01*
G75*
G02*
X190188001Y-117923000I-249999J0D01*
G01*
X189287999Y-117923000D01*
G75*
G02*
X189038000Y-117673001I0J249999D01*
G01*
X189038000Y-117022999D01*
G75*
G02*
X189287999Y-116773000I249999J0D01*
G01*
G37*
G36*
G01*
X189287999Y-114723000D02*
X190188001Y-114723000D01*
G75*
G02*
X190438000Y-114972999I0J-249999D01*
G01*
X190438000Y-115623001D01*
G75*
G02*
X190188001Y-115873000I-249999J0D01*
G01*
X189287999Y-115873000D01*
G75*
G02*
X189038000Y-115623001I0J249999D01*
G01*
X189038000Y-114972999D01*
G75*
G02*
X189287999Y-114723000I249999J0D01*
G01*
G37*
%TD*%
%TO.C,D2*%
G36*
G01*
X193605999Y-116791000D02*
X194506001Y-116791000D01*
G75*
G02*
X194756000Y-117040999I0J-249999D01*
G01*
X194756000Y-117691001D01*
G75*
G02*
X194506001Y-117941000I-249999J0D01*
G01*
X193605999Y-117941000D01*
G75*
G02*
X193356000Y-117691001I0J249999D01*
G01*
X193356000Y-117040999D01*
G75*
G02*
X193605999Y-116791000I249999J0D01*
G01*
G37*
G36*
G01*
X193605999Y-114741000D02*
X194506001Y-114741000D01*
G75*
G02*
X194756000Y-114990999I0J-249999D01*
G01*
X194756000Y-115641001D01*
G75*
G02*
X194506001Y-115891000I-249999J0D01*
G01*
X193605999Y-115891000D01*
G75*
G02*
X193356000Y-115641001I0J249999D01*
G01*
X193356000Y-114990999D01*
G75*
G02*
X193605999Y-114741000I249999J0D01*
G01*
G37*
%TD*%
%TO.C,D1*%
G36*
G01*
X178259000Y-96716001D02*
X178259000Y-95815999D01*
G75*
G02*
X178508999Y-95566000I249999J0D01*
G01*
X179159001Y-95566000D01*
G75*
G02*
X179409000Y-95815999I0J-249999D01*
G01*
X179409000Y-96716001D01*
G75*
G02*
X179159001Y-96966000I-249999J0D01*
G01*
X178508999Y-96966000D01*
G75*
G02*
X178259000Y-96716001I0J249999D01*
G01*
G37*
G36*
G01*
X176209000Y-96716001D02*
X176209000Y-95815999D01*
G75*
G02*
X176458999Y-95566000I249999J0D01*
G01*
X177109001Y-95566000D01*
G75*
G02*
X177359000Y-95815999I0J-249999D01*
G01*
X177359000Y-96716001D01*
G75*
G02*
X177109001Y-96966000I-249999J0D01*
G01*
X176458999Y-96966000D01*
G75*
G02*
X176209000Y-96716001I0J249999D01*
G01*
G37*
%TD*%
%TO.C,C4*%
G36*
G01*
X185625000Y-109162001D02*
X185625000Y-108261999D01*
G75*
G02*
X185874999Y-108012000I249999J0D01*
G01*
X186525001Y-108012000D01*
G75*
G02*
X186775000Y-108261999I0J-249999D01*
G01*
X186775000Y-109162001D01*
G75*
G02*
X186525001Y-109412000I-249999J0D01*
G01*
X185874999Y-109412000D01*
G75*
G02*
X185625000Y-109162001I0J249999D01*
G01*
G37*
G36*
G01*
X183575000Y-109162001D02*
X183575000Y-108261999D01*
G75*
G02*
X183824999Y-108012000I249999J0D01*
G01*
X184475001Y-108012000D01*
G75*
G02*
X184725000Y-108261999I0J-249999D01*
G01*
X184725000Y-109162001D01*
G75*
G02*
X184475001Y-109412000I-249999J0D01*
G01*
X183824999Y-109412000D01*
G75*
G02*
X183575000Y-109162001I0J249999D01*
G01*
G37*
%TD*%
%TO.C,C3*%
G36*
G01*
X187763999Y-92652000D02*
X188664001Y-92652000D01*
G75*
G02*
X188914000Y-92901999I0J-249999D01*
G01*
X188914000Y-93552001D01*
G75*
G02*
X188664001Y-93802000I-249999J0D01*
G01*
X187763999Y-93802000D01*
G75*
G02*
X187514000Y-93552001I0J249999D01*
G01*
X187514000Y-92901999D01*
G75*
G02*
X187763999Y-92652000I249999J0D01*
G01*
G37*
G36*
G01*
X187763999Y-90602000D02*
X188664001Y-90602000D01*
G75*
G02*
X188914000Y-90851999I0J-249999D01*
G01*
X188914000Y-91502001D01*
G75*
G02*
X188664001Y-91752000I-249999J0D01*
G01*
X187763999Y-91752000D01*
G75*
G02*
X187514000Y-91502001I0J249999D01*
G01*
X187514000Y-90851999D01*
G75*
G02*
X187763999Y-90602000I249999J0D01*
G01*
G37*
%TD*%
%TO.C,C2*%
G36*
G01*
X184207999Y-92652000D02*
X185108001Y-92652000D01*
G75*
G02*
X185358000Y-92901999I0J-249999D01*
G01*
X185358000Y-93552001D01*
G75*
G02*
X185108001Y-93802000I-249999J0D01*
G01*
X184207999Y-93802000D01*
G75*
G02*
X183958000Y-93552001I0J249999D01*
G01*
X183958000Y-92901999D01*
G75*
G02*
X184207999Y-92652000I249999J0D01*
G01*
G37*
G36*
G01*
X184207999Y-90602000D02*
X185108001Y-90602000D01*
G75*
G02*
X185358000Y-90851999I0J-249999D01*
G01*
X185358000Y-91502001D01*
G75*
G02*
X185108001Y-91752000I-249999J0D01*
G01*
X184207999Y-91752000D01*
G75*
G02*
X183958000Y-91502001I0J249999D01*
G01*
X183958000Y-90851999D01*
G75*
G02*
X184207999Y-90602000I249999J0D01*
G01*
G37*
%TD*%
%TO.C,C1*%
G36*
G01*
X180905999Y-92652000D02*
X181806001Y-92652000D01*
G75*
G02*
X182056000Y-92901999I0J-249999D01*
G01*
X182056000Y-93552001D01*
G75*
G02*
X181806001Y-93802000I-249999J0D01*
G01*
X180905999Y-93802000D01*
G75*
G02*
X180656000Y-93552001I0J249999D01*
G01*
X180656000Y-92901999D01*
G75*
G02*
X180905999Y-92652000I249999J0D01*
G01*
G37*
G36*
G01*
X180905999Y-90602000D02*
X181806001Y-90602000D01*
G75*
G02*
X182056000Y-90851999I0J-249999D01*
G01*
X182056000Y-91502001D01*
G75*
G02*
X181806001Y-91752000I-249999J0D01*
G01*
X180905999Y-91752000D01*
G75*
G02*
X180656000Y-91502001I0J249999D01*
G01*
X180656000Y-90851999D01*
G75*
G02*
X180905999Y-90602000I249999J0D01*
G01*
G37*
%TD*%
M02*
